<?xml version="1.0" encoding="utf-8"?>
<!-- Generator: Adobe Illustrator 22.1.0, SVG Export Plug-In . SVG Version: 6.00 Build 0)  -->
<svg version="1.1" id="图层_1" xmlns="http://www.w3.org/2000/svg" xmlns:xlink="http://www.w3.org/1999/xlink" x="0px" y="0px"
	 viewBox="0 0 256.2 75" style="enable-background:new 0 0 256.2 75;" xml:space="preserve">
<style type="text/css">
	.st0{fill:#03A9F4;}
	.st1{font-family:'FZDESHS_513B--GB1-0';}
	.st2{font-size:36px;}
</style>
<path class="st0" d="M3.6,65.1V41.2h15.1V59H9.1v6.8l3.6-1c-0.4-1.2-0.8-2.4-1.2-3.6l5.2-1.7c0.6,1.8,1.5,4.9,2.8,9.4
	c0.3,1.1,0.5,1.9,0.7,2.4l-5,1.5l-0.8-2.9l-9.8,2.8l-2.1-4.4C3.2,67.8,3.6,66.7,3.6,65.1z M9.1,45.7v2.3h4.4v-2.3H9.1z M9.1,54.5
	h4.4v-2.2H9.1V54.5z M20.2,41.2h14.5v23.1c0,3.3-1.7,5-5.2,5h-2.8l-0.9-4.6v8.5h-5.7V41.2z M25.9,46.2v18.1h1.8
	c1.2,0.1,1.8-0.5,1.7-1.8V46.2H25.9z"/>
<path class="st0" d="M53.7,56.1l3.9,3.1c-1.4,2.1-2.9,3.9-4.5,5.6c0.9,0.7,2.1,1.7,3.8,3.1c0.6,0.5,1,0.9,1.3,1.2l-3.5,4.3
	c-1.9-1.8-3.7-3.6-5.5-5.1c-2.7,2-6,3.8-9.6,5.3L37,68.9C44.1,66.1,49.7,61.8,53.7,56.1z M56.8,48.1h-8.6l0.7,0.5
	c-1.1,1.4-2.2,2.7-3.3,4l2.9-0.1c1.1-1.2,2-2.5,2.8-3.8l3.9,3c-4.2,6.1-9.4,10.7-15.5,13.7l-2.6-4.1c2.5-1.2,4.9-2.7,7.2-4.6
	l-1.9,0.1c0,0-0.1,0-0.3,0c-1.6,0.1-2.7,0.2-3.5,0.4l-0.9-4.5c1.3-0.1,2.2-0.5,2.9-1.2c0.9-1,1.8-2.1,2.8-3.4h-5.7v-4.8h7.1
	l-0.8-2.8l5.4-0.7l0.9,3.6h6.5V48.1z M62.4,64.3H58V42.9h4.5V64.3z M58.7,67.6h3.2c1.7,0.2,2.5-0.7,2.3-2.5V40.3h5.5v27.2
	c0,3.5-1.7,5.3-5,5.3h-5L58.7,67.6z"/>
<text transform="matrix(0.9941 0 0 1 10.2336 63.3622)" class="st0 st1 st2"> </text>
<title>即刻镇 我的关键词</title>
<desc>Created with Sketch.</desc>
<path d="M1.1,62.3V38.5h15.1v17.8H6.6v6.8l3.6-1c-0.4-1.2-0.8-2.4-1.2-3.6l5.2-1.7c0.6,1.8,1.5,4.9,2.8,9.4c0.3,1.1,0.5,1.9,0.7,2.4
	l-5,1.5l-0.8-2.9L2.1,70L0,65.6C0.8,65,1.2,63.9,1.1,62.3z M6.6,43v2.3H11V43H6.6z M6.6,51.7H11v-2.2H6.6V51.7z M17.8,38.5h14.5
	v23.1c0,3.3-1.7,5-5.2,5h-2.8l-0.9-4.6v8.5h-5.7V38.5z M23.5,43.5v18.1h1.8c1.2,0.1,1.8-0.5,1.7-1.8V43.5H23.5z"/>
<path d="M51.2,53.3l3.9,3.1c-1.4,2.1-2.9,3.9-4.5,5.6c0.9,0.7,2.1,1.7,3.8,3.1c0.6,0.5,1,0.9,1.3,1.2l-3.5,4.3
	c-1.9-1.8-3.7-3.6-5.5-5.1c-2.7,2-6,3.8-9.6,5.3l-2.6-4.5C41.7,63.4,47.2,59.1,51.2,53.3z M54.4,45.4h-8.6l0.7,0.5
	c-1.1,1.4-2.2,2.7-3.3,4l2.9-0.1c1.1-1.2,2-2.5,2.8-3.8l3.9,3c-4.2,6.1-9.4,10.7-15.5,13.7l-2.6-4.1c2.5-1.2,4.9-2.7,7.2-4.6
	L40,54.1c0,0-0.1,0-0.3,0c-1.6,0.1-2.7,0.2-3.5,0.4L35.3,50c1.3-0.1,2.2-0.5,2.9-1.2c0.9-1,1.8-2.1,2.8-3.4h-5.7v-4.8h7.1l-0.8-2.8
	l5.4-0.7l0.9,3.6h6.5V45.4z M60,61.5h-4.5V40.2H60V61.5z M56.2,64.9h3.2c1.7,0.2,2.5-0.7,2.3-2.5V37.6h5.5v27.2c0,3.5-1.7,5.3-5,5.3
	h-5L56.2,64.9z"/>
<text transform="matrix(0.9941 0 0 1 8.804 59.6219)" class="st1 st2"> </text>
<path d="M23,1c0,2.3,0,4,0,5.1c0,1.3,0,2.5,0.1,3.6h4L23.3,3l4.5-2.6l4,6.6l-4.3,2.7h4.8v5.1h-3.5l3.1,2.3c-1.4,1.9-2.6,3.5-3.7,4.8
	l4.3,1.5c-0.6,3.6-1.1,6-1.6,7.2c-1,2.5-2.6,3.8-5,3.7c-2.9,0.1-4.9-1.5-6-4.8c-1.5,1-3.1,1.9-4.9,2.8l-2.7-3.6
	c0,3.4-1.6,5.2-4.8,5.2H2.8l-1-5.3h2.6c1.3,0.2,1.9-0.5,1.8-2.1v-2.5l-5.1,0.9l-0.9-5.2l6-1v-3.7H0.8V9.6h5.5V7.2
	c-0.8,0.1-2,0.2-3.6,0.3c-0.1,0-0.3,0-0.3,0L1.4,2.6c5.7-0.4,10.2-1,13.6-2.1l1.3,4.9c-1.3,0.4-2.7,0.7-4.2,1v3.2h5.2
	c-0.1-3.2-0.1-6.1-0.1-8.7L23,1z M18.4,23.4c-0.4-2.4-0.6-5.3-0.8-8.7h-5.4v2.7l4.1-0.7l0.1,5.1l-4.2,0.8v4.4
	C14.4,25.9,16.5,24.7,18.4,23.4z M23.3,14.6c0.1,1.5,0.2,2.9,0.3,4.2c1.1-1.2,2.2-2.6,3.3-4.2H23.3z M26.8,26.9
	c0.3-0.9,0.5-2.4,0.8-4.5c-0.9,1.2-1.9,2.3-3,3.3c0.1,0.3,0.2,0.6,0.3,0.9c0.3,1.1,0.7,1.6,1.1,1.6C26.3,28.2,26.6,27.7,26.8,26.9z"
	/>
<path d="M59.3,1.9c-0.2,1-0.5,2-0.9,3.1h8.8c-0.1,10.4-0.3,18-0.4,22.6c-0.2,3.9-2.2,5.9-5.9,6h-5.2L54.6,28h4
	c1.6,0.1,2.5-0.9,2.5-3c0-0.6,0-1.7,0.1-3.5c0-0.4,0-0.6,0-0.8l-4,3c-1.4-2.3-3.2-4.7-5.2-7.4l1.4-1l-2.4-1.7v20.1h-5.6v-1.9h-3.7
	v1.9H36V5.3h3.9l0.8-4.5l6.1,0.4L46,5.3h4.9v4.1c1.3-2.8,2.3-5.6,3-8.6L59.3,1.9z M41.7,10.3v5.6h3.7v-5.6H41.7z M41.7,20.8v5.9h3.7
	v-5.9H41.7z M56,13.4c1.3,1.7,3,4,5.2,7.1l0.1-10h-5c-0.9,1.9-1.9,3.6-2.9,4.9L56,13.4z"/>
<path d="M100.6,48.1H90c0,1.4-0.1,2.8-0.2,4.1h12.6v5.6H91.6c1.9,3.2,5.6,5.6,11.2,7.2l-3.5,6.5c-5.6-1.9-9.7-5-12.3-9.2
	c-2.2,3.9-6.4,6.9-12.7,9l-3.7-6.3c5.8-1.8,9.4-4.3,10.8-7.3H71.3v-5.6h11.5c0.1-1.2,0.2-2.6,0.2-4.1h-9.9v-5.5H78l-1.5-3.5l5.6-1.9
	l2.5,5.3l-0.1,0h4.3l2-5.3l6,1.6l-1.5,3.7h5.2V48.1z"/>
<path d="M136.7,58h-5.1v1.5h5.9v3.7h-5.9v2.4h6.8l-0.7,4.5h-10.6c-3.1,0-5.7-0.7-7.5-2.2c-0.7,1.1-1.6,2.1-2.6,3l-2.8-2.9l-4.8,2.6
	l-2.4-4.4c1-0.6,1.5-1.8,1.5-3.4v-3.8h-2.9v-4.4h2.9v-2.3h-0.9l-0.3,0.6l-3-3.6c1.4-2.9,2.6-6.7,3.5-11.6l4.6,1.1
	c-0.1,0.8-0.3,1.7-0.6,2.6h3V46h-4.4c0,0.1-0.1,0.3-0.2,0.6c-0.2,0.6-0.4,1.1-0.5,1.4h4.7v4.3h-1.3v2.3h2.2v2.1l2.3-1
	c0.3,1.1,0.6,2.1,0.9,3c0.2-1.2,0.4-2.6,0.4-4.2h-3.5v-4.3l2.5-5.4h-2.6v-4.6h7.4v4.4l-2.8,5.6h3.2v4.3c-0.2,4.1-0.6,7.3-1.4,9.5
	c1.3,1.1,3.1,1.7,5.4,1.7v-2.4h-4.2v-3.7h4.2V58h-3.3v-3.4h3.3v-1.5h-3.1v-3.3h3.1v-1.7H123v-3.4h4.1v-1.6h-3.4v-3.3h3.4V38h4.6v1.8
	h5.1v4.9h1.4v3.4h-1.4v5h-5.1v1.5h5.1V58z M116.6,64.2c-0.8-1.4-1.5-3.1-2.2-5.1h-1.3v4.8l1.9-1l0.5,3
	C115.8,65.3,116.2,64.8,116.6,64.2z M133.2,43.2h-1.5v1.6h1.5V43.2z M131.7,49.8h1.5v-1.7h-1.5V49.8z"/>
<path d="M151.2,61.3l0.6,1.7V52.3h12.8v12.8h-8.3v1.8h-4.6v-0.3l-6.9,4.2l-2.9-4.2c1.3-0.8,1.9-1.9,1.9-3.4V52.9h-3.3v-4.8h8.7v14.4
	L151.2,61.3z M145.7,37.8c0.9,1.1,2.3,3.1,4.3,6c0.3,0.4,0.5,0.7,0.6,0.9l-4.5,3.3c-1.4-2.2-3-4.6-4.8-7.2L145.7,37.8z M165.4,50.4
	h-14.6v-4.5h14.6V50.4z M166.8,63.1V44h-15.4v-4.7h20.9v26c0,3.4-1.7,5.1-5,5.2h-4.9l-0.9-5h3.1C166.2,65.5,166.9,64.8,166.8,63.1z
	 M160,60.5v-3.7h-3.6v3.7H160z"/>
<path d="M1.1,62.3V38.5h15.1v17.8H6.6v6.8l3.6-1c-0.4-1.2-0.8-2.4-1.2-3.6l5.2-1.7c0.6,1.8,1.5,4.9,2.8,9.4c0.3,1.1,0.5,1.9,0.7,2.4
	l-5,1.5l-0.8-2.9L2.1,70L0,65.6C0.8,65,1.2,63.9,1.1,62.3z M6.6,43v2.3H11V43H6.6z M6.6,51.7H11v-2.2H6.6V51.7z M17.8,38.5h14.5
	v23.1c0,3.3-1.7,5-5.2,5h-2.8l-0.9-4.6v8.5h-5.7V38.5z M23.5,43.5v18.1h1.8c1.2,0.1,1.8-0.5,1.7-1.8V43.5H23.5z"/>
<path d="M51.2,53.3l3.9,3.1c-1.4,2.1-2.9,3.9-4.5,5.6c0.9,0.7,2.1,1.7,3.8,3.1c0.6,0.5,1,0.9,1.3,1.2l-3.5,4.3
	c-1.9-1.8-3.7-3.6-5.5-5.1c-2.7,2-6,3.8-9.6,5.3l-2.6-4.5C41.7,63.4,47.2,59.1,51.2,53.3z M54.4,45.4h-8.6l0.7,0.5
	c-1.1,1.4-2.2,2.7-3.3,4l2.9-0.1c1.1-1.2,2-2.5,2.8-3.8l3.9,3c-4.2,6.1-9.4,10.7-15.5,13.7l-2.6-4.1c2.5-1.2,4.9-2.7,7.2-4.6
	L40,54.1c0,0-0.1,0-0.3,0c-1.6,0.1-2.7,0.2-3.5,0.4L35.3,50c1.3-0.1,2.2-0.5,2.9-1.2c0.9-1,1.8-2.1,2.8-3.4h-5.7v-4.8h7.1l-0.8-2.8
	l5.4-0.7l0.9,3.6h6.5V45.4z M60,61.5h-4.5V40.2H60V61.5z M56.2,64.9h3.2c1.7,0.2,2.5-0.7,2.3-2.5V37.6h5.5v27.2c0,3.5-1.7,5.3-5,5.3
	h-5L56.2,64.9z"/>
</svg>
