<?xml version="1.0" encoding="utf-8"?>
<!-- Generator: Adobe Illustrator 22.1.0, SVG Export Plug-In . SVG Version: 6.00 Build 0)  -->
<svg version="1.1" id="图层_1" xmlns="http://www.w3.org/2000/svg" xmlns:xlink="http://www.w3.org/1999/xlink" x="0px" y="0px"
	 viewBox="0 0 222 43.3" style="enable-background:new 0 0 222 43.3;" xml:space="preserve">
<style type="text/css">
	.st0{enable-background:new    ;}
	.st1{opacity:0.55;}
	.st2{font-family:'AvenirNextCondensed-BoldItalic';}
	.st3{font-size:17.5119px;}
</style>
<title>KEYWORDS</title>
<desc>Created with Sketch.</desc>
<g class="st0">
	<path d="M14.8,10.7l2.7,10.9h-7L9,12.4H8.9l-1.6,9.2H1.1L4.7,0.7h6.2L9.5,9h0.2L14,0.7h7L14.8,10.7z"/>
	<path d="M33,6.1h-5l-0.5,2.4h4.6l-0.9,5h-4.6l-0.5,2.6h5.5l-0.9,5.5H19.4L23,0.7h10.9L33,6.1z"/>
	<path d="M42.4,21.6h-6.2l1.2-6.9L34.6,0.7h6.6l0.4,7.8h0.1l3-7.8h6.7l-7.8,14.1L42.4,21.6z"/>
	<path d="M68,21.6h-6.2v-12h-0.1l-4.2,12h-6.4V0.7h6.2l-0.7,12.6h0.2l3.8-12.6h5.6l-0.5,12.6h0.1l3.7-12.6h6L68,21.6z"/>
	<path d="M92.2,8.3c0,1.8-0.2,3.4-0.7,5.1c-0.5,1.7-1.1,3.1-2.1,4.4c-0.9,1.3-2,2.3-3.3,3.1c-1.3,0.8-2.8,1.2-4.4,1.2
		c-1.2,0-2.2-0.2-3.1-0.6c-0.9-0.4-1.7-1-2.3-1.7s-1.1-1.6-1.4-2.6c-0.3-1-0.5-2.2-0.5-3.4c0-1.8,0.2-3.4,0.7-5.1
		c0.5-1.7,1.1-3.1,2.1-4.4c0.9-1.3,2-2.3,3.3-3.1c1.3-0.8,2.7-1.2,4.4-1.2c1.3,0,2.3,0.2,3.3,0.6s1.7,1,2.3,1.7
		c0.6,0.7,1.1,1.6,1.4,2.6C92.2,6,92.2,7.1,92.2,8.3z M85.9,9.2c0-0.9-0.2-1.6-0.5-2.2c-0.3-0.6-0.7-0.9-1.4-0.9
		c-0.6,0-1,0.2-1.4,0.7c-0.4,0.5-0.8,1-1,1.8c-0.3,0.7-0.5,1.4-0.6,2.2c-0.2,0.8-0.2,1.6-0.2,2.2c0,0.9,0.2,1.6,0.4,2.2
		c0.2,0.6,0.7,0.9,1.4,0.9c0.6,0,1-0.2,1.4-0.7c0.4-0.5,0.8-1,1-1.7c0.3-0.7,0.5-1.4,0.6-2.2C85.8,10.7,85.9,9.9,85.9,9.2z"/>
	<path d="M109.5,6.6c0,1.5-0.3,2.8-0.9,3.8c-0.6,1-1.4,1.8-2.6,2.2l2,9h-6.6l-1.1-7.6h-0.8l-1.4,7.6h-5.9L96,0.7h7.3
		c2,0,3.6,0.5,4.6,1.5C109,3.1,109.5,4.6,109.5,6.6z M103.3,7.4c0-0.6-0.2-1-0.5-1.2c-0.3-0.2-0.6-0.3-1-0.3h-0.8l-0.7,3.8h0.6
		c0.6,0,1.1-0.2,1.6-0.6C103.1,8.8,103.3,8.3,103.3,7.4z"/>
	<path d="M109.4,21.6l3.7-20.9h6.2c1.5,0,2.8,0.2,3.8,0.6c1,0.4,1.8,1,2.5,1.7s1.1,1.6,1.4,2.6c0.3,1,0.4,2.2,0.4,3.4
		c0,0.8-0.1,1.7-0.2,2.6c-0.1,1-0.3,1.9-0.6,2.8c-0.3,1-0.7,1.8-1.2,2.7c-0.5,0.9-1.2,1.6-2,2.3c-0.8,0.6-1.8,1.2-2.9,1.6
		c-1.1,0.4-2.4,0.6-3.9,0.6H109.4z M121,9.5c0-0.4,0-0.9-0.1-1.3c-0.1-0.4-0.2-0.8-0.3-1.1c-0.2-0.3-0.4-0.6-0.6-0.8
		c-0.3-0.2-0.6-0.3-1.1-0.3h-0.5l-1.8,10.2h0.6c0.7,0,1.4-0.2,1.8-0.7c0.5-0.5,0.9-1,1.2-1.7c0.3-0.7,0.5-1.4,0.6-2.2
		C121,10.9,121,10.2,121,9.5z"/>
	<path d="M139.7,6.9c-0.3-0.3-0.7-0.6-1.2-0.8c-0.5-0.2-1-0.3-1.4-0.3c-0.2,0-0.4,0-0.6,0.1c-0.2,0.1-0.3,0.1-0.5,0.2
		c-0.2,0.1-0.3,0.2-0.4,0.4s-0.2,0.4-0.2,0.6c0,0.3,0.2,0.6,0.4,0.9c0.2,0.2,0.7,0.5,1.4,0.9c0.3,0.2,0.7,0.5,1.2,0.8
		c0.4,0.3,0.8,0.7,1.2,1.1c0.4,0.4,0.7,1,1,1.6c0.2,0.6,0.4,1.4,0.4,2.2c0,1.4-0.2,2.5-0.7,3.4c-0.5,1-1.1,1.8-1.8,2.3
		c-0.8,0.6-1.6,1-2.6,1.4c-1,0.3-1.9,0.4-2.9,0.4c-1.4,0-2.7-0.2-3.9-0.6c-1.2-0.4-2.1-1-2.8-1.5l3.5-4.7c0.4,0.3,0.9,0.6,1.4,0.9
		c0.6,0.2,1.1,0.3,1.7,0.3c0.4,0,0.7-0.1,1-0.3c0.3-0.2,0.5-0.6,0.5-1c0-0.3-0.2-0.6-0.4-1s-0.7-0.6-1.4-1c-0.5-0.2-0.9-0.6-1.4-0.9
		c-0.4-0.3-0.8-0.7-1.1-1.1c-0.3-0.4-0.6-1-0.8-1.5s-0.3-1.2-0.3-2c0-1,0.2-2,0.6-2.9c0.4-0.9,0.9-1.7,1.6-2.4
		c0.7-0.7,1.5-1.2,2.5-1.6s2.1-0.6,3.4-0.6c1.4,0,2.6,0.2,3.7,0.6c1.1,0.4,1.9,0.9,2.5,1.5L139.7,6.9z"/>
</g>
<text transform="matrix(1 0 0 1 0.6665 38.4082)" class="st1 st2 st3">http://jike.town/keywords</text>
</svg>
