<?xml version="1.0" encoding="utf-8"?>
<!-- Generator: Adobe Illustrator 22.1.0, SVG Export Plug-In . SVG Version: 6.00 Build 0)  -->
<svg version="1.1" id="图层_1" xmlns="http://www.w3.org/2000/svg" xmlns:xlink="http://www.w3.org/1999/xlink" x="0px" y="0px"
	 viewBox="0 0 90 22" style="enable-background:new 0 0 90 22;" xml:space="preserve">
<style type="text/css">
	.st0{enable-background:new    ;}
	.st1{fill:#FFFFFF;}
</style>
<g class="st0">
	<path class="st1" d="M1,16.3V1h9.7v11.4H4.6v4.3l2.3-0.7c-0.3-0.8-0.5-1.6-0.8-2.3l3.4-1.1c0.4,1.1,1,3.1,1.8,6
		c0.2,0.7,0.3,1.2,0.4,1.5l-3.2,1l-0.5-1.8l-6.3,1.8l-1.3-2.8C0.8,18,1.1,17.3,1,16.3z M4.6,3.9v1.5h2.8V3.9H4.6z M4.6,9.5h2.8V8.1
		H4.6V9.5z M11.7,1h9.3v14.7c0,2.1-1.1,3.2-3.3,3.2H16L15.4,16v5.4h-3.7V1z M15.4,4.2v11.5h1.1c0.8,0.1,1.1-0.3,1.1-1.2V4.2H15.4z"
		/>
	<path class="st1" d="M33.3,10.5l2.5,2c-0.9,1.3-1.9,2.5-2.9,3.6c0.6,0.4,1.4,1.1,2.4,2c0.4,0.3,0.7,0.6,0.9,0.7l-2.3,2.7
		c-1.2-1.2-2.4-2.3-3.5-3.3c-1.8,1.3-3.8,2.4-6.2,3.4l-1.7-2.9C27.1,16.9,30.7,14.2,33.3,10.5z M35.3,5.4h-5.5l0.5,0.3
		c-0.7,0.9-1.4,1.8-2.1,2.6l1.9-0.1c0.7-0.8,1.3-1.6,1.8-2.4l2.5,1.9c-2.7,3.9-6,6.8-9.9,8.7l-1.7-2.6c1.6-0.7,3.2-1.7,4.6-2.9
		L26,11c0,0-0.1,0-0.2,0c-1,0.1-1.7,0.1-2.2,0.2L23,8.4c0.8-0.1,1.4-0.3,1.8-0.8c0.6-0.6,1.2-1.4,1.8-2.2H23v-3h4.5L27,0.6l3.5-0.5
		l0.6,2.3h4.2V5.4z M38.9,15.8H36V2.1h2.9V15.8z M36.5,17.9h2.1c1.1,0.1,1.6-0.4,1.5-1.6V0.4h3.5v17.4c0,2.3-1.1,3.4-3.2,3.4h-3.2
		L36.5,17.9z"/>
	<path class="st1" d="M66,20.7H46v-3.4h8.1v-3.5H48v-3.2l-2.8-1.8c1.4-2.5,2.4-5.2,3.2-8.1l3.6,0.8c-0.2,0.8-0.4,1.6-0.7,2.5h2.9
		V0.4h4.2V4h7v3.4h-7v3.2h6.1v3.3h-6.1v3.5H66V20.7z M49.9,7.4c-0.5,1.3-1.1,2.3-1.6,3.2h5.8V7.4H49.9z"/>
	<path class="st1" d="M83.7,0.7l3-0.5L87.3,3l-0.7,0.1h2v3.3h-6c0.1,1.8,0.3,3.5,0.5,5c0.8-1.4,1.4-2.9,1.9-4.4l3.3,1.3
		c-1.2,3.1-2.6,5.8-4.2,7.9l0.1,0.3c0.3,0.8,0.6,1.1,1,1.1c0.3,0,0.5-0.2,0.6-0.8c0.1-0.5,0.3-1.5,0.5-2.9c0-0.1,0-0.2,0-0.3l2.9,1
		c-0.2,1.7-0.5,3.2-1,4.6c-0.6,1.5-1.6,2.4-3.2,2.4c-1.6,0-2.8-0.8-3.7-2.4c-0.8,0.8-1.7,1.6-2.7,2.3L76.5,19
		c-0.4,0.2-0.8,0.2-1.2,0.2h-2.2l-0.5-2.3c-0.4,1.8-0.9,3.3-1.5,4.6l-3.5-1.4c1.2-2.8,1.9-6,1.9-9.6V3.2h9c0-0.9,0-1.8,0-2.8h3.8
		l0.1,2.8h1.8L83.7,0.7z M73.2,11.8c0,1.6-0.2,3.1-0.4,4.4h1c0.8,0.1,1.1-0.3,1.1-1.3l0.1-3.2H73.2z M78.3,8.8l-0.3,7.8
		c0,0.5-0.1,0.9-0.3,1.3c0.9-0.7,1.7-1.5,2.4-2.3c-0.6-2.4-1.1-5.5-1.4-9.1h-5.6v2.3H78.3z"/>
</g>
</svg>
