<?xml version="1.0" encoding="utf-8"?>
<!-- Generator: Adobe Illustrator 22.1.0, SVG Export Plug-In . SVG Version: 6.00 Build 0)  -->
<svg version="1.1" id="图层_1" xmlns="http://www.w3.org/2000/svg" xmlns:xlink="http://www.w3.org/1999/xlink" x="0px" y="0px"
	 viewBox="0 0 300 300" style="enable-background:new 0 0 300 300;" xml:space="preserve">
<style type="text/css">
	.st0{fill:none;stroke:#000000;stroke-width:8;stroke-miterlimit:10;}
</style>
<path class="st0" d="M191.9,152.3c-2.7-25.2-10.5-86.4-10.5-86.4l-14.7-10.1l-41.1,7.4c0,0,9.3,64.3,11.6,97.7
	c2.1,30.2-38,36.4-38,36.4l8.9,33.7l14,9.7c0,0,0.8,2.3,24-7c23.3-9.3,29.2-15.8,37.6-27.9C191.5,194.5,194.6,177.5,191.9,152.3z"/>
<path class="st0" d="M166.7,55.8c0,0,8.7,76,10.9,93.4c2.3,18.6,0.2,35.1-7,46.5c-8.5,13.6-16.4,19.6-31,26
	c-18.6,8.1-31.4,9.3-31.4,9.3"/>
<line class="st0" x1="169.3" y1="78.6" x2="184.3" y2="88.8"/>
<line class="st0" x1="171.6" y1="101.9" x2="187.3" y2="112.6"/>
<line class="st0" x1="174.8" y1="126" x2="190.1" y2="136.6"/>
<line class="st0" x1="177.2" y1="149.6" x2="192.5" y2="160.3"/>
<line class="st0" x1="178" y1="172.3" x2="192.1" y2="182.3"/>
<line class="st0" x1="173.1" y1="191" x2="186.7" y2="200.8"/>
<line class="st0" x1="163" y1="206" x2="176.2" y2="215.5"/>
<line class="st0" x1="148.2" y1="217.4" x2="161.1" y2="226.9"/>
<line class="st0" x1="129.3" y1="225.7" x2="142.2" y2="235.2"/>
</svg>
