<?xml version="1.0" encoding="utf-8"?>
<!-- Generator: Adobe Illustrator 22.1.0, SVG Export Plug-In . SVG Version: 6.00 Build 0)  -->
<svg version="1.1" id="图层_1" xmlns="http://www.w3.org/2000/svg" xmlns:xlink="http://www.w3.org/1999/xlink" x="0px" y="0px"
	 viewBox="0 0 174 115" style="enable-background:new 0 0 174 115;" xml:space="preserve">
<style type="text/css">
	.st0{enable-background:new    ;}
</style>
<title>填写昵称 生成 我的关键词</title>
<desc>Created with Sketch.</desc>
<g class="st0">
	<path d="M50,7h-7.6v1.5H49V24h2v4.2h-4.5l4.6,2.3l-2.2,4c-2.7-1.5-5.5-3-8.5-4.5l1.2-1.8h-3.8l1.3,1.9c-2.2,1.4-5.1,2.8-8.6,4.1
		l-1.8-3.5l-10.2,2l-0.9-5.1l3.1-0.6V15.5h-2.6v-5.1h2.6V1h5.9v9.4h2.7v5.1h-2.7v10.4l1.9-0.4V24h1.9V8.4h6.6V7h-7.6v-4h7.6v-2h5.4
		v2H50V7z M29.3,30c1.4-0.5,2.9-1.1,4.5-1.9h-4.5L29.3,30z M35.4,11.8V13h8.7v-1.3H35.4z M35.4,15.5v1.1h8.7v-1.1H35.4z M35.4,19.1
		v1.1h8.7v-1.1H35.4z M35.4,22.7V24h8.7v-1.3H35.4z"/>
	<path d="M75.4,27.3H54.5V23h20.9V27.3z M82.5,15H64.3l-0.2,2.1h19.1c-0.1,4.6-0.2,8.4-0.4,11.3c-0.1,3.5-1.9,5.2-5.5,5.1H70L69,29
		h5.4c1.1,0,1.8-0.1,2.1-0.5c0.4-0.3,0.6-1,0.6-2c0.1-0.9,0.1-2.6,0.2-5.1H58.1l0.9-9.9h-3.9v-9h29.6v9h-2.2V15z M65,8.5l-0.2,2.1
		h14.4V7.1H60.7v1.4H65z"/>
	<path d="M89.2,29.9V2.8h11.4v25.1h-6.9v2.1H89.2z M93.8,7.5v5.4h2.4V7.5H93.8z M96.2,23.1v-5.7h-2.4v5.7H96.2z M101.9,1.8h18.8
		v12.1h-13.4v2.9c0,6.9-0.9,12.6-3,17.2L99,32.2c1.1-2.1,1.9-4.3,2.3-6.8c0.4-2.3,0.6-5.6,0.6-9.8V1.8z M115.9,9.2V6.6h-8.5v2.6
		H115.9z M119.6,15.2l2.6,4.1c-2.3,1.7-5.2,3.3-8.8,4.9v2.7c-0.1,1.4,0.4,2,1.4,1.9h1.2c0.8,0.1,1.3-0.5,1.3-1.7
		c0.1-0.9,0.2-2,0.2-3.4l4.5,0.9c-0.1,2.1-0.4,3.9-0.7,5.5c-0.3,2.2-1.8,3.3-4.5,3.2h-4.4c-2.9,0-4.4-1.5-4.4-4.5V15h5.2v4.1
		C115.5,18,117.6,16.7,119.6,15.2z"/>
	<path d="M153.4,15.4c1.7,4.8,3.1,9.1,4.1,12.7l-4.9,1.6c-0.7-2.6-2-6.9-3.9-12.8v11.6c0,3.4-1.6,5.1-4.9,5.1h-3.9l-0.8-4.4
		l-0.1,0.3l-4.1-1.4c0.6-1.7,1.3-3.6,1.9-5.9l-1.8,2.4l-1.6-1.7v10.8h-5.7v-9.9c-1,1.8-1.9,3.1-2.6,4l-2.2-4.9
		c1.7-2.1,3.2-4.5,4.5-7.5h-3.6v-4.9h4V7.2c-1.1,0.2-2.1,0.3-3,0.4l-0.9-4.6c4.4-0.6,8.3-1.3,11.7-2.2l1.5,4.5
		c-0.8,0.3-2,0.6-3.6,0.9v4.5h2.9c1.3-3.5,2.3-6.9,2.9-10.2l5.3,0.9c-0.1,0.8-0.3,1.6-0.5,2.5H156v4.4l-1.4,7l-4.9-1l1.2-5.5h-8.2
		c-0.8,2.5-1.6,4.7-2.4,6.4l-3.3-1.2v1.6h-3.4v1.4l3.9,3.5c0-0.2,0.1-0.4,0.2-0.7c0.3-1.1,0.5-2.3,0.8-3.7l4.3,1
		c-0.9,4.3-2,8.2-3.2,11.6h1.9c1.4,0.1,2-0.6,1.9-2.1V11h5.6v5.9L153.4,15.4z"/>
</g>
<g>
	<g>
		<path d="M85.5,72.7H54.3v-5.3h12.6v-5.5h-9.6V57l-4.4-2.8c2.2-3.9,3.8-8.1,4.9-12.7l5.7,1.2c-0.3,1.2-0.7,2.5-1.2,3.9h4.5v-5.5
			h6.6v5.5h10.9v5.3H73.4v4.9h9.6v5.1h-9.6v5.5h12V72.7z M60.4,51.8c-0.8,2-1.7,3.6-2.6,4.9h9v-4.9H60.4z"/>
		<path d="M113.2,41.4l4.6-0.8l1,4.4l-1.1,0.2h3.1v5.2h-9.4c0.2,2.8,0.4,5.4,0.8,7.8c1.2-2.2,2.2-4.5,2.9-6.9l5.2,2
			c-1.9,4.9-4.1,9-6.6,12.3l0.2,0.5c0.4,1.2,0.9,1.8,1.5,1.8c0.5,0,0.8-0.4,1-1.2c0.2-0.8,0.4-2.3,0.8-4.6c0-0.2,0-0.4,0.1-0.5
			l4.6,1.5c-0.3,2.7-0.8,5-1.5,7.1c-0.9,2.4-2.5,3.7-5,3.8c-2.5,0-4.4-1.2-5.8-3.7c-1.3,1.3-2.7,2.4-4.2,3.5l-3.5-3.8
			c-0.6,0.2-1.2,0.4-1.9,0.4h-3.4L96,66.8c-0.6,2.8-1.3,5.2-2.4,7.3l-5.5-2.2c1.9-4.3,2.9-9.3,3-15V45.2h14.1c0-1.4-0.1-2.8-0.1-4.3
			h6l0.1,4.3h2.8L113.2,41.4z M96.8,58.8c0,2.5-0.3,4.8-0.6,6.9h1.6c1.2,0.1,1.8-0.5,1.7-2l0.1-5H96.8z M104.8,54l-0.4,12.2
			c0,0.8-0.2,1.4-0.5,2c1.3-1.1,2.6-2.3,3.8-3.6c-1-3.8-1.7-8.5-2.1-14.2h-8.7V54H104.8z"/>
	</g>
</g>
<g>
	<g>
		<path d="M23.6,80.9c0,2.3,0,4,0,5.1c0,1.3,0,2.5,0.1,3.6h4L23.8,83l4.5-2.6l4,6.6l-4.3,2.7h4.8v5.1h-3.5l3.1,2.3
			c-1.4,1.9-2.6,3.5-3.7,4.8l4.3,1.5c-0.6,3.6-1.1,6-1.7,7.2c-1,2.5-2.7,3.8-5.1,3.7c-2.9,0.1-5-1.5-6.1-4.8c-1.5,1-3.1,1.9-5,2.8
			l-2.7-3.6c0,3.4-1.6,5.2-4.8,5.2H3.2l-1-5.3h2.6c1.3,0.2,1.9-0.5,1.8-2.1v-2.5l-5.1,0.9l-0.9-5.2l6-1v-3.7H1.2v-5.1h5.5v-2.4
			c-0.8,0.1-2,0.2-3.6,0.3c-0.1,0-0.3,0-0.3,0l-0.9-4.9c5.7-0.4,10.3-1,13.7-2.1l1.3,4.9c-1.3,0.4-2.7,0.7-4.2,1v3.2h5.3
			c-0.1-3.2-0.1-6.1-0.1-8.7L23.6,80.9z M18.9,103.4c-0.4-2.4-0.6-5.3-0.8-8.7h-5.5v2.7l4.1-0.7l0.1,5.1l-4.2,0.8v4.4
			C14.9,105.9,17,104.7,18.9,103.4z M23.8,94.6c0.1,1.5,0.2,2.9,0.3,4.2c1.1-1.2,2.2-2.6,3.3-4.2H23.8z M27.4,106.9
			c0.3-0.9,0.5-2.4,0.8-4.5c-0.9,1.2-2,2.3-3.1,3.3c0.1,0.3,0.2,0.6,0.3,0.9c0.3,1.1,0.7,1.6,1.1,1.6
			C26.9,108.2,27.2,107.7,27.4,106.9z"/>
		<path d="M60.1,81.9c-0.2,1-0.5,2-0.9,3.1H68c-0.1,10.4-0.3,18-0.4,22.6c-0.2,3.9-2.2,5.9-5.9,6h-5.3l-1.1-5.6h4
			c1.7,0.1,2.5-0.9,2.5-3c0-0.6,0-1.7,0.1-3.5c0-0.4,0-0.6,0-0.8l-4.1,3c-1.4-2.3-3.2-4.7-5.2-7.4l1.4-1l-2.4-1.7v20.1H46v-1.9h-3.7
			v1.9h-5.7V85.3h3.9l0.8-4.5l6.1,0.4l-0.8,4.1h5v4.1c1.3-2.8,2.3-5.6,3-8.6L60.1,81.9z M42.3,90.3v5.6H46v-5.6H42.3z M42.3,100.8
			v5.9H46v-5.9H42.3z M56.7,93.4c1.3,1.7,3.1,4,5.2,7.1l0.1-10h-5c-0.9,1.9-1.9,3.6-2.9,4.9L56.7,93.4z"/>
		<path d="M101.2,91.1H90.5c0,1.4-0.1,2.8-0.2,4.1H103v5.6H92.1c1.9,3.2,5.6,5.6,11.2,7.2l-3.5,6.5c-5.6-1.9-9.7-5-12.4-9.2
			c-2.2,3.9-6.5,6.9-12.7,9l-3.7-6.3c5.9-1.8,9.5-4.3,10.8-7.3H71.7v-5.6h11.6c0.1-1.2,0.2-2.6,0.2-4.1h-10v-5.5h4.9l-1.5-3.5
			l5.7-1.9l2.6,5.3l-0.1,0h4.4l2-5.3l6.1,1.6L96,85.6h5.2V91.1z"/>
		<path d="M137.6,101h-5.1v1.5h5.9v3.7h-5.9v2.4h6.8l-0.7,4.5H128c-3.2,0-5.7-0.7-7.6-2.2c-0.7,1.1-1.6,2.1-2.6,3l-2.8-2.9l-4.9,2.6
			l-2.4-4.4c1-0.6,1.5-1.8,1.5-3.4v-3.8h-3v-4.4h3v-2.3h-0.9L108,96l-3-3.6c1.4-2.9,2.6-6.7,3.5-11.6l4.6,1.1
			c-0.1,0.8-0.3,1.7-0.6,2.6h3V89h-4.4c0,0.1-0.1,0.3-0.2,0.6c-0.2,0.6-0.4,1.1-0.5,1.4h4.7v4.3h-1.3v2.3h2.2v2.1l2.3-1
			c0.3,1.1,0.6,2.1,0.9,3c0.2-1.2,0.4-2.6,0.4-4.2H116v-4.3l2.6-5.4H116v-4.6h7.5v4.4l-2.8,5.6h3.2v4.3c-0.2,4.1-0.6,7.3-1.4,9.5
			c1.3,1.1,3.1,1.7,5.4,1.7v-2.4h-4.2v-3.7h4.2V101h-3.3v-3.4h3.3v-1.5h-3.2v-3.3h3.2v-1.7h-4.1v-3.4h4.1v-1.6h-3.4v-3.3h3.4V81h4.6
			v1.8h5.1v4.9h1.4v3.4h-1.4v5h-5.1v1.5h5.1V101z M117.3,107.2c-0.8-1.4-1.5-3.1-2.2-5.1h-1.3v4.8l1.9-1l0.5,3
			C116.5,108.3,116.9,107.8,117.3,107.2z M134,86.2h-1.5v1.6h1.5V86.2z M132.5,92.8h1.5v-1.7h-1.5V92.8z"/>
		<path d="M152.1,104.3l0.6,1.7V95.3h12.9v12.8h-8.3v1.8h-4.6v-0.3l-7,4.2l-2.9-4.2c1.3-0.8,1.9-1.9,1.9-3.4V95.9h-3.3v-4.8h8.7
			v14.4L152.1,104.3z M146.5,80.8c0.9,1.1,2.3,3.1,4.3,6c0.3,0.4,0.5,0.7,0.6,0.9L147,91c-1.4-2.2-3-4.6-4.9-7.2L146.5,80.8z
			 M166.4,93.4h-14.7v-4.5h14.7V93.4z M167.8,106.1V87h-15.4v-4.7h21v26c0,3.4-1.7,5.1-5,5.2h-5l-0.9-5h3.2
			C167.1,108.5,167.9,107.8,167.8,106.1z M161,103.5v-3.7h-3.6v3.7H161z"/>
	</g>
</g>
</svg>
