<?xml version="1.0" encoding="utf-8"?>
<!-- Generator: Adobe Illustrator 22.1.0, SVG Export Plug-In . SVG Version: 6.00 Build 0)  -->
<svg version="1.1" id="图层_1" xmlns="http://www.w3.org/2000/svg" xmlns:xlink="http://www.w3.org/1999/xlink" x="0px" y="0px"
	 viewBox="0 0 407.3 213" style="enable-background:new 0 0 407.3 213;" xml:space="preserve">
<style type="text/css">
	.st0{fill:none;stroke:#FFE210;stroke-width:8;}
	.st1{fill:none;stroke:#0230C5;stroke-width:8;stroke-linecap:round;stroke-linejoin:round;}
	.st2{fill:none;stroke:#E40B5F;stroke-width:8;stroke-linecap:round;stroke-linejoin:round;}
	.st3{fill:none;stroke:#1FDDD7;stroke-width:9;stroke-linecap:round;stroke-linejoin:round;}
	.st4{fill:none;stroke:#0230C5;stroke-width:9;stroke-linecap:round;stroke-linejoin:round;}
	.st5{fill:none;stroke:#E40B5F;stroke-width:7;stroke-linecap:round;stroke-linejoin:round;}
	.st6{fill:#1FDDD7;}
	.st7{fill:#0230C5;}
	.st8{fill:#FFE210;}
	.st9{fill:none;stroke:#E40B5F;stroke-width:9;stroke-linecap:round;stroke-linejoin:round;}
</style>
<title>Group 2</title>
<desc>Created with Sketch.</desc>
<g id="Page-1">
	<g id="着陆页">
		<g id="Group-2" transform="translate(-10.000000, -15.000000)">
			<circle id="Oval" class="st0" cx="65.3" cy="69" r="14"/>
			<circle id="Oval_1_" class="st0" cx="396.3" cy="175" r="14"/>
			<path id="Path-3" class="st1" d="M108.3,183c3.3-6,8.7-9,16-9c7.3,0,12.7,3,16,9"/>
			<path id="Path-3_1_" class="st2" d="M206.3,23c6,3.3,9,8.7,9,16s-3,12.7-9,16"/>
			<path id="Path-4" class="st3" d="M381.3,31v32"/>
			<path id="Path-4_1_" class="st4" d="M356.3,130h-32"/>
			<polygon id="Triangle" class="st5" points="313.3,192 329.3,221 297.3,221 			"/>
			<circle id="Oval-3" class="st6" cx="242.8" cy="179.5" r="5.5"/>
			<circle id="Oval-3_1_" class="st7" cx="118.8" cy="77.5" r="5.5"/>
			<circle id="Oval-3_2_" class="st8" cx="302.8" cy="63.5" r="5.5"/>
			<path id="Path-4_2_" class="st9" d="M39,131l-22.6,22.6"/>
		</g>
	</g>
</g>
</svg>
