<?xml version="1.0" encoding="UTF-8"?>
<svg width="342px" height="177px" viewBox="0 0 342 177" version="1.1" xmlns="http://www.w3.org/2000/svg" xmlns:xlink="http://www.w3.org/1999/xlink">
    <!-- Generator: Sketch 49.2 (51160) - http://www.bohemiancoding.com/sketch -->
    <title>resulttitle</title>
    <desc>Created with Sketch.</desc>
    <defs>
        <path d="M259.246424,601 L243.753576,601 C242.032478,595.217022 236.675375,591 230.333333,591 C223.991292,591 218.634189,595.217022 216.913091,601 L201.420243,601 C199.699144,595.217022 194.342041,591 188,591 C181.657959,591 176.300856,595.217022 174.579757,601 L159.086909,601 C157.365811,595.217022 152.008708,591 145.666667,591 C139.324625,591 133.967522,595.217022 132.246424,601 L116.753576,601 C115.032478,595.217022 109.675375,591 103.333333,591 C96.9912921,591 91.6341891,595.217022 89.9130907,601 L74.4202426,601 C72.6991443,595.217022 67.3420413,591 61,591 C54.6579587,591 49.3008557,595.217022 47.5797574,601 L27,601 L27,38 L47.9192576,38 C49.9321022,43.2627404 55.0296092,47 61,47 C66.9703908,47 72.0678978,43.2627404 74.0807424,38 L90.252591,38 C92.2654356,43.2627404 97.3629426,47 103.333333,47 C109.303724,47 114.401231,43.2627404 116.414076,38 L132.585924,38 C134.598769,43.2627404 139.696276,47 145.666667,47 C151.637057,47 156.734564,43.2627404 158.747409,38 L174.919258,38 C176.932102,43.2627404 182.029609,47 188,47 C193.970391,47 199.067898,43.2627404 201.080742,38 L217.252591,38 C219.265436,43.2627404 224.362943,47 230.333333,47 C236.303724,47 241.401231,43.2627404 243.414076,38 L259.585924,38 C261.598769,43.2627404 266.696276,47 272.666667,47 C278.637057,47 283.734564,43.2627404 285.747409,38 L301.919258,38 C303.932102,43.2627404 309.029609,47 315,47 C320.970391,47 326.067898,43.2627404 328.080742,38 L348,38 L348,601 L328.420243,601 C326.699144,595.217022 321.342041,591 315,591 C308.657959,591 303.300856,595.217022 301.579757,601 L286.086909,601 C284.365811,595.217022 279.008708,591 272.666667,591 C266.324625,591 260.967522,595.217022 259.246424,601 Z" id="path-1"></path>
    </defs>
    <g id="Page-1" stroke="none" stroke-width="1" fill="none" fill-rule="evenodd">
        <g id="结果页" transform="translate(-17.000000, -20.000000)">
            <g id="Combined-Shape">
                <use fill="#FFFFFF" fill-rule="evenodd" xlink:href="#path-1"></use>
                <path stroke="#FFE210" stroke-width="8" d="M256.537214,597 C259.518677,590.989321 265.702507,587 272.666667,587 C279.630826,587 285.814656,590.989321 288.796119,597 L298.870548,597 C301.852011,590.989321 308.035841,587 315,587 C321.964159,587 328.147989,590.989321 331.129452,597 L344,597 L344,42 L330.592508,42 C327.433205,47.4712546 321.547643,51 315,51 C308.452357,51 302.566795,47.4712546 299.407492,42 L288.259174,42 C285.099871,47.4712546 279.214309,51 272.666667,51 C266.119024,51 260.233462,47.4712546 257.074159,42 L245.925841,42 C242.766538,47.4712546 236.880976,51 230.333333,51 C223.785691,51 217.900129,47.4712546 214.740826,42 L203.592508,42 C200.433205,47.4712546 194.547643,51 188,51 C181.452357,51 175.566795,47.4712546 172.407492,42 L161.259174,42 C158.099871,47.4712546 152.214309,51 145.666667,51 C139.119024,51 133.233462,47.4712546 130.074159,42 L118.925841,42 C115.766538,47.4712546 109.880976,51 103.333333,51 C96.7856907,51 90.9001288,47.4712546 87.7408256,42 L76.5925078,42 C73.4332046,47.4712546 67.5476426,51 61,51 C54.4523574,51 48.5667954,47.4712546 45.4074922,42 L31,42 L31,597 L44.8705478,597 C47.8520107,590.989321 54.0358407,587 61,587 C67.9641593,587 74.1479893,590.989321 77.1294522,597 L87.2038811,597 C90.1853441,590.989321 96.369174,587 103.333333,587 C110.297493,587 116.481323,590.989321 119.462786,597 L129.537214,597 C132.518677,590.989321 138.702507,587 145.666667,587 C152.630826,587 158.814656,590.989321 161.796119,597 L171.870548,597 C174.852011,590.989321 181.035841,587 188,587 C194.964159,587 201.147989,590.989321 204.129452,597 L214.203881,597 C217.185344,590.989321 223.369174,587 230.333333,587 C237.297493,587 243.481323,590.989321 246.462786,597 L256.537214,597 Z"></path>
            </g>
            <circle id="Oval" stroke="#FFE210" stroke-width="7.2" cx="58.5" cy="50.5" r="12.5"></circle>
            <path d="M75,167 C78.0208333,161.666667 82.8541667,159 89.5,159 C96.1458333,159 100.979167,161.666667 104,167" id="Path-3" stroke="#0230C5" stroke-width="7.2" stroke-linecap="round" stroke-linejoin="round"></path>
            <path d="M177.5,47.5 C180.520833,42.1666667 185.354167,39.5 192,39.5 C198.645833,39.5 203.479167,42.1666667 206.5,47.5" id="Path-3" stroke="#E40B5F" stroke-width="7.2" stroke-linecap="round" stroke-linejoin="round" transform="translate(192.000000, 43.500000) rotate(-270.000000) translate(-192.000000, -43.500000) "></path>
            <path d="M348,117 L319,117" id="Path-4" stroke="#E40B5F" stroke-width="8.1" stroke-linecap="round" stroke-linejoin="round"></path>
            <polygon id="Triangle" stroke="#E40B5F" stroke-width="6.3" stroke-linecap="round" stroke-linejoin="round" points="139.5 115 154 141 125 141"></polygon>
            <circle id="Oval-3" fill="#1FDDD7" cx="231" cy="155" r="5"></circle>
            <circle id="Oval-3" fill="#0230C5" cx="119" cy="63" r="5"></circle>
            <circle id="Oval-3" fill="#FFE210" cx="309" cy="68" r="5"></circle>
            <path d="M99.4789062,114.978516 L99.4789062,93.7371094 C99.3453118,92.4011652 98.6105536,91.6664069 97.2746094,91.5328125 L96.8738281,91.5328125 C95.5378839,91.6664069 94.8031257,92.4011652 94.6695313,93.7371094 L94.6695313,114.978516 C94.8031257,116.31446 95.5378839,117.049218 96.8738281,117.182812 C97.0074225,117.182812 97.2078112,117.116016 97.475,116.982422 C98.8109442,116.982422 99.4789062,116.31446 99.4789062,114.978516 Z M94.0683594,85.7214844 C94.4691426,85.7214844 94.6695313,85.9886692 94.6695313,86.5230469 C94.8031257,86.7902357 95.0035143,86.9238281 95.2707031,86.9238281 L98.0761719,86.9238281 C99.0113328,86.9238281 99.8128873,86.5230509 100.480859,85.7214844 C101.549615,84.7863234 102.68515,84.652731 103.8875,85.3207031 L106.492578,87.1242187 C107.828522,88.3265685 108.028911,89.6624927 107.09375,91.1320312 C106.425778,92.0671922 106.091797,93.2027277 106.091797,94.5386719 L106.091797,116.180859 C106.49258,120.188692 104.889471,122.593355 101.282422,123.394922 C99.8128833,123.394922 98.6105516,122.72696 97.6753906,121.391016 C97.4082018,121.123827 97.0742208,120.856642 96.6734375,120.589453 C95.6046822,120.18867 94.9367201,120.656243 94.6695313,121.992188 L94.6695313,128.805469 C94.5359368,130.675791 93.5339937,131.677734 91.6636719,131.811328 L91.0625,131.811328 C89.1921781,131.677734 88.190235,130.675791 88.0566406,128.805469 L88.0566406,88.7273437 C88.190235,86.8570219 89.1921781,85.8550788 91.0625,85.7214844 L94.0683594,85.7214844 Z M71.6246094,102.955078 C71.7582038,104.157428 72.4261659,104.82539 73.6285156,104.958984 L76.0332031,104.958984 C77.2355529,104.82539 77.903515,104.157428 78.0371094,102.955078 L78.0371094,101.752734 C77.903515,100.550385 77.2355529,99.8824225 76.0332031,99.7488281 L73.6285156,99.7488281 C72.4261659,99.8824225 71.7582038,100.550385 71.6246094,101.752734 L71.6246094,102.955078 Z M71.6246094,93.7371094 C71.7582038,95.0730536 72.4261659,95.8078118 73.6285156,95.9414062 L76.0332031,95.9414062 C77.2355529,95.8078118 77.903515,95.0730536 78.0371094,93.7371094 L78.0371094,92.5347656 C77.903515,91.3324159 77.2355529,90.6644538 76.0332031,90.5308594 L73.6285156,90.5308594 C72.4261659,90.6644538 71.7582038,91.3324159 71.6246094,92.5347656 L71.6246094,93.7371094 Z M85.8523437,118.986328 C86.3867214,119.787895 86.4535176,120.723042 86.0527344,121.791797 C85.3847623,123.127741 84.316023,124.530461 82.8464844,126 C81.9113234,126.667972 81.1765652,126.53438 80.6421875,125.599219 C80.3749987,124.664058 80.0410176,123.728911 79.6402344,122.79375 C79.2394511,121.858589 78.5046928,121.6582 77.4359375,122.192578 C75.9663989,123.127739 74.5636786,124.062886 73.2277344,124.998047 C72.158979,125.666019 71.2906283,126.467573 70.6226563,127.402734 C69.5539009,128.605084 68.3515692,128.738677 67.015625,127.803516 L65.2121094,126.400781 C64.0097596,125.198431 63.809371,123.728915 64.6109375,121.992188 C64.7445319,121.324215 64.8113281,120.72305 64.8113281,120.188672 L64.8113281,88.5269531 C65.078517,86.6566313 66.1472563,85.6546882 68.0175781,85.5210938 L71.0234375,85.5210938 C71.2906263,85.5210938 71.4576169,85.6880843 71.5244141,86.0220703 C71.5912113,86.3560564 71.7582018,86.5230469 72.0253906,86.5230469 L76.634375,86.5230469 C77.5695359,86.5230469 78.3710904,86.1890658 79.0390625,85.5210938 C80.1078178,84.5859328 81.2433534,84.5191366 82.4457031,85.3207031 L85.0507812,87.3246094 C85.8523478,87.9925815 85.919144,88.7941359 85.2511719,89.7292969 C84.7167942,90.397269 84.4496094,91.1320272 84.4496094,91.9335938 L84.4496094,107.163281 C84.316015,109.033603 83.3140719,110.102342 81.44375,110.369531 L78.8386719,110.369531 C78.3042942,110.235937 78.0371094,110.00215 78.0371094,109.668164 C78.0371094,109.334178 77.903517,109.167187 77.6363281,109.167187 L73.6285156,109.167187 C72.4261659,109.167187 71.7582038,109.83515 71.6246094,111.171094 L71.6246094,116.982422 C71.7582038,118.051177 72.3593697,118.518751 73.428125,118.385156 C74.0960971,118.117967 74.8308554,117.917579 75.6324219,117.783984 C76.5675828,117.249607 76.8347676,116.514848 76.4339844,115.579688 C76.30039,115.178904 76.0666032,114.677933 75.7326172,114.076758 C75.3986311,113.475583 75.5322236,112.907815 76.1333984,112.373437 C76.7345733,111.83906 77.3023411,111.772264 77.8367188,112.173047 C81.443768,114.444152 84.1156163,116.715223 85.8523437,118.986328 Z M154.987109,84.7195312 C156.857431,84.9867201 157.859374,86.0554594 157.992969,87.9257812 L157.992969,126.801563 C157.992969,128.137507 157.692386,129.172848 157.091211,129.907617 C156.490036,130.642386 155.120714,131.143358 152.983203,131.410547 C151.647259,131.410547 150.511723,130.742585 149.576563,129.406641 C149.175779,128.738669 148.307429,128.337891 146.971484,128.204297 C146.036323,127.937108 145.435158,127.402738 145.167969,126.601172 C145.167969,125.799605 145.568746,125.332032 146.370313,125.198437 C149.977362,125.465626 151.580471,124.931257 151.179688,123.595313 L151.179688,87.9257812 C151.313282,86.0554594 152.315225,84.9867201 154.185547,84.7195312 L154.987109,84.7195312 Z M145.56875,91.7332031 C147.439072,91.8667975 148.441015,92.8687406 148.574609,94.7390625 L148.574609,116.782031 C148.441015,118.518759 147.439072,119.520702 145.56875,119.787891 L145.368359,119.787891 C143.498038,119.520702 142.496094,118.518759 142.3625,116.782031 L142.3625,94.7390625 C142.496094,92.8687406 143.498038,91.8667975 145.368359,91.7332031 L145.56875,91.7332031 Z M139.356641,111.371484 C140.692585,112.707429 140.759381,114.043353 139.557031,115.379297 C138.354681,116.448052 137.085554,117.516792 135.749609,118.585547 C135.081637,119.387113 135.148433,120.055075 135.95,120.589453 C138.087511,121.658208 140.024601,122.660152 141.761328,123.595313 C142.4293,123.996096 142.629689,124.597262 142.3625,125.398828 C141.828122,127.001961 141.093364,128.60507 140.158203,130.208203 C139.623825,131.276958 139.02266,131.410551 138.354688,130.608984 C136.751554,128.605068 134.614076,126.333997 131.942187,123.795703 C131.007027,122.860542 129.938287,122.72695 128.735938,123.394922 C124.594511,126.200405 120.319553,128.605068 115.910937,130.608984 C114.975777,131.009768 114.174222,130.809379 113.50625,130.007812 C113.105467,129.206246 113.239059,128.538284 113.907031,128.003906 C121.789102,123.328102 128.535519,117.71722 134.146484,111.171094 C135.348834,109.83515 136.751554,109.634761 138.354688,110.569922 L139.356641,111.371484 Z M117.113281,103.355859 C118.315631,102.019915 119.517963,100.283214 120.720313,98.1457031 C121.121096,97.0769478 120.787115,96.4757819 119.718359,96.3421875 L115.510156,96.3421875 C114.040618,96.2085931 113.205665,95.4738348 113.005273,94.1378906 C112.804882,92.8019464 113.37265,92.0671882 114.708594,91.9335938 L123.726172,91.9335938 C124.661333,91.6664049 124.928518,91.0652391 124.527734,90.1300781 C123.726168,89.0613228 122.857817,87.9925835 121.922656,86.9238281 C121.388279,86.255856 121.421677,85.6212921 122.022852,85.0201172 C122.624026,84.4189423 123.392183,84.2519518 124.327344,84.5191406 C126.732043,85.3207071 128.669133,86.1890578 130.138672,87.1242187 C130.806644,87.3914076 131.007033,87.8255829 130.739844,88.4267578 C130.472655,89.0279327 130.20547,89.5957005 129.938281,90.1300781 C129.671092,91.0652391 130.07187,91.6664049 131.140625,91.9335938 L132.543359,91.9335938 C133.47852,91.9335938 134.213279,91.5996127 134.747656,90.9316406 C135.682817,89.9964797 136.617964,89.8628873 137.553125,90.5308594 L140.558984,92.9355469 C141.226956,93.603519 141.293753,94.3048791 140.759375,95.0396484 C140.224997,95.7744177 139.490239,96.2085931 138.555078,96.3421875 L127.333203,96.3421875 C126.798825,96.4757819 126.732029,96.7429667 127.132812,97.14375 L127.333203,97.14375 C128.669147,98.0789109 128.80274,99.2144464 127.733984,100.550391 C126.130851,102.019929 124.460946,103.355853 122.724219,104.558203 C122.323435,105.092581 122.457028,105.426562 123.125,105.560156 C124.193755,105.560156 125.396087,105.526758 126.732031,105.459961 C128.067975,105.393164 129.136715,104.825396 129.938281,103.756641 C130.472659,103.222263 130.940232,102.621097 131.341016,101.953125 C132.543365,100.617181 134.012882,100.2832 135.749609,100.951172 L137.152344,101.953125 C138.488288,102.888286 138.62188,104.090618 137.553125,105.560156 C131.140593,111.839094 124.193787,116.782013 116.7125,120.389062 C115.777339,120.92344 114.908988,120.723052 114.107422,119.787891 C113.573044,118.986324 113.706637,118.251566 114.508203,117.583594 C117.313686,115.846866 119.985534,113.84298 122.523828,111.571875 C122.924611,110.903903 122.791019,110.569922 122.123047,110.569922 C120.787103,110.837111 119.451179,111.037499 118.115234,111.171094 C116.244913,111.304688 115.042581,110.503134 114.508203,108.766406 L114.307813,107.964844 C114.174218,106.228116 114.908976,104.892192 116.512109,103.957031 L117.113281,103.355859 Z M198.872656,105.359766 C198.872656,106.562115 199.440424,107.163281 200.575977,107.163281 C201.711529,107.163281 202.346093,106.562115 202.479688,105.359766 L202.479688,100.149609 C202.346093,98.9472596 201.711529,98.3460937 200.575977,98.3460937 C199.440424,98.3460937 198.872656,98.9472596 198.872656,100.149609 L198.872656,105.359766 Z M188.051562,105.359766 C188.185157,106.562115 188.853119,107.163281 190.055469,107.163281 C191.257819,107.163281 191.858984,106.562115 191.858984,105.359766 L191.858984,100.149609 C191.858984,98.9472596 191.257819,98.3460937 190.055469,98.3460937 C188.853119,98.3460937 188.185157,98.9472596 188.051562,100.149609 L188.051562,105.359766 Z M198.872656,121.190625 C198.872656,122.25938 199.473822,122.860546 200.676172,122.994141 C201.744927,122.860546 202.346093,122.25938 202.479688,121.190625 L202.479688,113.976562 C202.346093,112.907807 201.744927,112.306641 200.676172,112.173047 C199.473822,112.306641 198.872656,112.907807 198.872656,113.976562 L198.872656,121.190625 Z M188.051562,121.190625 C188.185157,122.25938 188.853119,122.860546 190.055469,122.994141 C191.257819,122.860546 191.858984,122.25938 191.858984,121.190625 L191.858984,113.976562 C191.858984,112.907807 191.257819,112.306641 190.055469,112.173047 C188.853119,112.306641 188.185157,112.907807 188.051562,113.976562 L188.051562,121.190625 Z M187.25,91.9335938 C187.784378,92.0671882 188.051563,92.4011692 188.051563,92.9355469 C188.185157,93.2027357 188.385546,93.4031243 188.652734,93.5367188 L190.055469,93.5367188 C191.257819,93.4031243 191.858984,92.7351623 191.858984,91.5328125 L191.858984,86.7234375 C192.126173,84.8531156 193.128116,83.8511725 194.864844,83.7175781 L195.666406,83.7175781 C197.536728,83.8511725 198.605467,84.8531156 198.872656,86.7234375 L198.872656,91.7332031 C198.872656,92.8019585 199.407026,93.4031243 200.475781,93.5367188 L200.876563,93.5367188 C201.678129,93.4031243 202.346091,93.0023471 202.880469,92.334375 C203.548441,91.2656197 204.416792,90.9984348 205.485547,91.5328125 L209.292969,93.7371094 C210.361724,94.4050815 210.628909,95.2734322 210.094531,96.3421875 C209.560154,97.143754 209.292969,97.9453085 209.292969,98.746875 L209.292969,128.404687 C209.159374,130.141415 208.157431,131.143358 206.287109,131.410547 L204.683984,131.410547 C203.34804,131.276952 202.613282,130.542194 202.479688,129.20625 C202.479688,128.404683 202.012114,127.93711 201.076953,127.803516 L189.654688,127.803516 C188.719527,127.93711 188.185157,128.404683 188.051563,129.20625 C188.051563,130.542194 187.3836,131.276952 186.047656,131.410547 L184.644922,131.410547 C182.7746,131.143358 181.705861,130.141415 181.438672,128.404687 L181.438672,97.9453125 C181.438672,97.6781237 181.305079,97.6781237 181.037891,97.9453125 C180.503513,98.6132846 179.835551,98.9472656 179.033984,98.9472656 L177.831641,98.9472656 C176.89648,99.08086 176.428906,99.6152297 176.428906,100.550391 L176.428906,104.357812 C176.562501,105.426568 177.09687,105.894141 178.032031,105.760547 L178.833594,105.359766 C179.768755,105.226171 180.369921,105.626948 180.637109,106.562109 C180.637109,107.764459 180.169536,108.63281 179.234375,109.167187 C178.833592,109.434376 178.432815,109.634765 178.032031,109.768359 C176.963276,110.436331 176.428906,111.371478 176.428906,112.573828 L176.428906,126 C176.696095,129.473455 174.892597,131.544137 171.018359,132.212109 C169.682415,132.212109 168.613676,131.544147 167.812109,130.208203 C167.411326,129.673825 166.743364,129.306446 165.808203,129.106055 C164.873042,128.905663 164.271876,128.337895 164.004687,127.402734 C164.004687,126.467573 164.472261,125.933204 165.407422,125.799609 C168.480093,125.933204 169.816018,125.265242 169.415234,123.795703 L169.415234,115.579688 C169.28164,114.644527 168.74727,114.310546 167.812109,114.577734 C166.075382,114.978518 164.806254,114.377352 164.004687,112.774219 L164.004687,112.373437 C163.603904,110.503116 164.271866,109.300784 166.008594,108.766406 L167.611719,108.365625 C168.814069,107.964842 169.415234,107.096491 169.415234,105.760547 L169.415234,100.951172 C169.415234,99.7488221 168.747272,99.08086 167.411328,98.9472656 L166.810156,98.9472656 C165.340618,98.8136712 164.405471,98.0121167 164.004687,96.5425781 C163.871093,95.0730395 164.539055,94.271485 166.008594,94.1378906 L167.411328,94.1378906 C168.747272,94.0042962 169.415234,93.3363341 169.415234,92.1339844 L169.415234,86.7234375 C169.682423,84.8531156 170.751163,83.8511725 172.621484,83.7175781 L173.222656,83.7175781 C175.092978,83.8511725 176.161717,84.8531156 176.428906,86.7234375 L176.428906,94.1378906 L176.829688,93.3363281 C177.364065,92.8019505 177.898435,92.7351542 178.432813,93.1359375 L180.436719,94.5386719 C180.971096,94.8058607 181.305077,94.6054721 181.438672,93.9375 C181.572266,92.7351502 182.307025,92.0671882 183.642969,91.9335938 L187.25,91.9335938 Z M226.326172,92.5347656 C226.86055,93.3363321 226.927346,94.0710904 226.526563,94.7390625 C225.85859,95.9414123 224.890045,96.9099573 223.620898,97.6447266 C222.351751,98.3794959 221.583595,98.2793016 221.316406,97.3441406 C220.51484,94.6722523 219.713285,92.4011812 218.911719,90.5308594 C218.510935,89.5956984 218.77812,88.8609402 219.713281,88.3265625 C220.648442,87.7921848 221.516793,87.858981 222.318359,88.5269531 C223.654304,89.7293029 224.990228,91.065227 226.326172,92.5347656 Z M240.954688,122.392969 C240.153121,121.591402 239.418363,121.524606 238.750391,122.192578 C235.009747,127.40276 228.998088,130.675775 220.715234,132.011719 C219.646479,132.145313 218.878323,131.711138 218.410742,130.70918 C217.943162,129.707222 218.176948,129.005861 219.112109,128.605078 C225.123858,126.734756 229.465612,123.728927 232.1375,119.5875 C232.538283,118.518745 232.137506,117.917579 230.935156,117.783984 L220.314453,117.783984 C218.71132,117.65039 217.776173,116.782039 217.508984,115.178906 C217.37539,113.842962 218.043352,113.041408 219.512891,112.774219 L233.540234,112.774219 C234.208206,112.774219 234.608984,112.440238 234.742578,111.772266 C235.009767,110.837105 235.610933,110.302735 236.546094,110.169141 L237.748438,110.169141 C238.149221,110.035546 238.282813,109.768361 238.149219,109.367578 C237.748435,108.699606 237.948824,108.165236 238.750391,107.764453 C240.219929,107.096481 241.62265,106.361723 242.958594,105.560156 C244.027349,104.892184 244.294534,103.890241 243.760156,102.554297 C243.359373,101.619136 242.825003,100.750785 242.157031,99.9492188 C241.756248,99.0140578 241.923239,98.2459014 242.658008,97.6447266 C243.392777,97.0435517 244.194332,96.9767555 245.062695,97.4443359 C245.931059,97.9119164 246.766012,98.412888 247.567578,98.9472656 C248.636333,99.7488321 249.57148,99.6820359 250.373047,98.746875 L251.976172,95.9414062 C252.243361,94.8726509 251.842583,94.2046888 250.773828,93.9375 L246.565625,93.9375 C245.229681,94.0710944 244.094145,94.6054641 243.158984,95.540625 C241.021474,98.2125134 238.550014,100.483584 235.744531,102.353906 C235.610937,102.487501 235.477344,102.520899 235.34375,102.454102 C235.210156,102.387304 235.143359,102.420702 235.143359,102.554297 L235.143359,106.562109 C235.009765,108.432431 234.007822,109.501171 232.1375,109.768359 L231.335938,109.768359 C229.465616,109.501171 228.463673,108.432431 228.330078,106.562109 L228.330078,105.960938 C228.062889,105.025777 227.461723,104.758592 226.526563,105.159375 C225.190618,106.22813 223.787898,107.29687 222.318359,108.365625 C220.715226,109.167192 219.446098,108.83321 218.510938,107.363672 L218.110156,106.7625 C217.442184,105.025773 217.909758,103.689848 219.512891,102.754688 L226.326172,99.9492188 C227.528522,99.2812467 228.196484,98.2793036 228.330078,96.9433594 L228.330078,88.1261719 C228.463673,86.25585 229.465616,85.2539069 231.335938,85.1203125 L232.1375,85.1203125 C234.007822,85.2539069 235.009765,86.25585 235.143359,88.1261719 L235.143359,95.9414062 C235.410548,96.6093783 235.744529,96.6761745 236.145313,96.1417969 C238.015634,93.3363141 239.618743,90.1300962 240.954688,86.5230469 C241.756254,84.7863194 243.025382,84.1183574 244.762109,84.5191406 L247.166797,85.3207031 C248.636335,85.8550808 249.037113,86.7902277 248.369141,88.1261719 C248.101952,89.0613328 248.435933,89.5957025 249.371094,89.7292969 L252.176563,89.7292969 C252.978129,89.5957025 253.646091,89.1949252 254.180469,88.5269531 C254.848441,87.5917922 255.716792,87.3914036 256.785547,87.9257812 L261.194141,90.9316406 C261.995707,91.5996127 262.062503,92.4011672 261.394531,93.3363281 C260.860154,93.8707058 260.459376,94.5386679 260.192188,95.3402344 C256.985921,102.687927 251.441836,107.630847 243.559766,110.169141 C243.559766,110.302735 243.526368,110.503124 243.45957,110.770313 C243.392773,111.037501 243.292579,111.371482 243.158984,111.772266 C243.158984,112.440238 243.426169,112.774219 243.960547,112.774219 L252.777734,112.774219 C253.712895,112.774219 254.380857,112.373442 254.781641,111.571875 C255.583207,110.636714 256.518354,110.503122 257.587109,111.171094 L260.392578,113.175 C261.327739,113.976567 261.528128,114.911713 260.99375,115.980469 C260.459372,117.049224 259.591022,117.65039 258.388672,117.783984 L245.162891,117.783984 C244.361324,117.917579 244.160935,118.385152 244.561719,119.186719 C248.035174,122.125796 252.844501,123.99609 258.989844,124.797656 C260.592977,125.332034 261.06055,126.333977 260.392578,127.803516 C259.8582,128.337893 259.457423,129.005855 259.190234,129.807422 C257.987885,131.410555 256.451572,132.078517 254.58125,131.811328 C248.302312,130.34179 243.76017,127.202368 240.954688,122.392969 Z M293.457031,85.921875 C293.991409,86.0554694 294.258594,86.3894505 294.258594,86.9238281 C294.258594,87.191017 294.458982,87.3914056 294.859766,87.525 L297.865625,87.525 C298.667192,87.3914056 299.335154,87.0574245 299.869531,86.5230469 C300.671098,85.7214804 301.539448,85.587888 302.474609,86.1222656 L306.282031,88.7273437 C307.217192,89.3953158 307.350785,90.1968703 306.682812,91.1320312 C306.148435,91.8000033 305.88125,92.6015578 305.88125,93.5367188 L305.88125,121.791797 C305.88125,122.726958 306.348823,123.194531 307.283984,123.194531 C307.951956,123.194531 308.41953,122.793754 308.686719,121.992188 C308.820313,120.923432 309.087498,119.654304 309.488281,118.184766 C309.621876,117.383199 310.089449,117.082616 310.891016,117.283008 C311.692582,117.483399 312.093359,117.984371 312.093359,118.785938 C312.226954,119.854693 312.360546,120.656247 312.494141,121.190625 C313.562896,122.927352 313.963673,124.597258 313.696484,126.200391 C312.761323,128.872279 310.757437,130.074611 307.684766,129.807422 L305.079687,129.807422 C300.804666,130.208205 298.80078,127.937134 299.067969,122.994141 L299.067969,94.3382812 C298.934374,93.1359315 298.266412,92.4679694 297.064062,92.334375 L296.2625,92.334375 C295.06015,92.4679694 294.392188,93.1359315 294.258594,94.3382812 L294.258594,104.558203 C294.525783,115.245757 291.185972,123.795671 284.239063,130.208203 C283.303902,130.876175 282.368755,130.909573 281.433594,130.308398 C280.498433,129.707224 280.298044,128.939067 280.832422,128.003906 C285.508227,121.858563 287.779298,114.176999 287.645703,104.958984 L287.645703,89.128125 C287.779298,87.2578031 288.781241,86.1890638 290.651562,85.921875 L293.457031,85.921875 Z M271.614453,102.153516 C271.748048,100.951166 271.213678,100.283204 270.011328,100.149609 L269.009375,100.149609 C267.539836,100.016015 266.60469,99.2144605 266.203906,97.7449219 C266.203906,96.4089777 266.871868,95.6074232 268.207813,95.3402344 L271.013281,95.3402344 C272.349225,95.20664 273.017187,94.5386779 273.017187,93.3363281 L273.017187,87.3246094 C273.284376,85.4542875 274.286319,84.4523444 276.023047,84.31875 L276.624219,84.31875 C278.494541,84.4523444 279.56328,85.4542875 279.830469,87.3246094 L279.830469,95.1398437 C279.830469,95.2734382 279.897265,95.3402344 280.030859,95.3402344 L280.23125,95.3402344 L280.832422,94.5386719 C281.500394,93.8706998 282.235152,93.8039036 283.036719,94.3382812 L286.042578,96.7429688 C286.71055,97.4109408 286.777346,98.112301 286.242969,98.8470703 C285.708591,99.5818396 284.973833,100.016015 284.038672,100.149609 L281.032812,100.149609 C280.231246,100.149609 279.830469,100.550387 279.830469,101.351953 L279.830469,102.554297 C279.830469,102.687891 279.897265,102.721289 280.030859,102.654492 C280.164454,102.587695 280.298046,102.621093 280.431641,102.754688 C281.366802,103.556254 282.435541,104.424605 283.637891,105.359766 C284.84024,106.294927 285.775387,107.096481 286.443359,107.764453 C286.710548,108.165236 286.777344,108.699606 286.64375,109.367578 C285.842183,110.569928 284.84024,111.705463 283.637891,112.774219 C282.836324,113.442191 282.368751,113.375395 282.235156,112.573828 C281.834373,111.638667 281.300003,110.436335 280.632031,108.966797 C280.231248,108.566014 279.964063,108.63281 279.830469,109.167187 L279.830469,128.605078 C279.56328,130.4754 278.494541,131.477343 276.624219,131.610938 L276.023047,131.610938 C274.286319,131.477343 273.284376,130.4754 273.017187,128.605078 L273.017187,114.577734 C272.883593,113.909762 272.549612,113.77617 272.015234,114.176953 C270.946479,115.913681 269.810944,117.51679 268.608594,118.986328 C267.940622,119.6543 267.205863,119.787893 266.404297,119.387109 C265.60273,118.719137 265.402342,117.917583 265.803125,116.982422 C268.341419,111.77224 270.278509,106.82932 271.614453,102.153516 Z" id="即刻抽奖机" fill="#0230C5"></path>
            <path d="M47,122 L27,142" id="Path-4" stroke="#E40B5F" stroke-width="8.1" stroke-linecap="round" stroke-linejoin="round"></path>
            <circle id="Oval" stroke="#FFE210" stroke-width="7.2" cx="284.5" cy="175.5" r="12.5"></circle>
            <path d="M260,46 L260,75" id="Path-4" stroke="#1FDDD7" stroke-width="8.1" stroke-linecap="round" stroke-linejoin="round"></path>
        </g>
    </g>
</svg>