<?xml version="1.0" encoding="UTF-8"?>
<svg width="279px" height="57px" viewBox="0 0 279 57" version="1.1" xmlns="http://www.w3.org/2000/svg" xmlns:xlink="http://www.w3.org/1999/xlink">
    <!-- Generator: Sketch 49.2 (51160) - http://www.bohemiancoding.com/sketch -->
    <title>Group 3</title>
    <desc>Created with Sketch.</desc>
    <defs></defs>
    <g id="Page-1" stroke="none" stroke-width="1" fill="none" fill-rule="evenodd">
        <g id="着陆页" transform="translate(-34.000000, -63.000000)">
            <g id="Group-3" transform="translate(29.000000, 57.000000)">
                <path d="M44.9765625,43.7539062 L44.9765625,20.1523438 C44.8281243,18.6679613 44.0117262,17.8515632 42.5273438,17.703125 L42.0820312,17.703125 C40.5976488,17.8515632 39.7812507,18.6679613 39.6328125,20.1523438 L39.6328125,43.7539062 C39.7812507,45.2382887 40.5976488,46.0546868 42.0820312,46.203125 C42.2304695,46.203125 42.4531235,46.128907 42.75,45.9804688 C44.2343824,45.9804688 44.9765625,45.2382887 44.9765625,43.7539062 Z M38.9648437,11.2460938 C39.4101585,11.2460938 39.6328125,11.5429658 39.6328125,12.1367188 C39.7812507,12.4335952 40.0039048,12.5820312 40.3007812,12.5820312 L43.4179687,12.5820312 C44.4570364,12.5820312 45.3476525,12.1367232 46.0898437,11.2460938 C47.2773497,10.2070261 48.5390558,10.05859 49.875,10.8007812 L52.7695312,12.8046875 C54.2539137,14.1406317 54.4765677,15.6249918 53.4375,17.2578125 C52.6953088,18.2968802 52.3242187,19.5585863 52.3242187,21.0429688 L52.3242187,45.0898438 C52.7695335,49.542991 50.9883013,52.2148393 46.9804687,53.1054688 C45.3476481,53.1054688 44.0117239,52.3632887 42.9726562,50.8789062 C42.6757798,50.5820298 42.3046897,50.2851577 41.859375,49.9882812 C40.6718691,49.5429665 39.929689,50.0624926 39.6328125,51.546875 L39.6328125,59.1171875 C39.4843743,61.1953229 38.3711041,62.308593 36.2929688,62.4570312 L35.625,62.4570312 C33.5468646,62.308593 32.4335945,61.1953229 32.2851562,59.1171875 L32.2851562,14.5859375 C32.4335945,12.5078021 33.5468646,11.394532 35.625,11.2460938 L38.9648437,11.2460938 Z M14.0273438,30.3945312 C14.175782,31.7304754 14.9179621,32.4726555 16.2539062,32.6210938 L18.9257812,32.6210938 C20.2617254,32.4726555 21.0039055,31.7304754 21.1523438,30.3945312 L21.1523438,29.0585938 C21.0039055,27.7226496 20.2617254,26.9804695 18.9257812,26.8320312 L16.2539062,26.8320312 C14.9179621,26.9804695 14.175782,27.7226496 14.0273438,29.0585938 L14.0273438,30.3945312 Z M14.0273438,20.1523438 C14.175782,21.6367262 14.9179621,22.4531243 16.2539062,22.6015625 L18.9257812,22.6015625 C20.2617254,22.4531243 21.0039055,21.6367262 21.1523438,20.1523438 L21.1523438,18.8164062 C21.0039055,17.4804621 20.2617254,16.738282 18.9257812,16.5898438 L16.2539062,16.5898438 C14.9179621,16.738282 14.175782,17.4804621 14.0273438,18.8164062 L14.0273438,20.1523438 Z M29.8359375,48.2070312 C30.4296905,49.0976607 30.5039085,50.1367128 30.0585937,51.3242188 C29.3164025,52.8086012 28.1289144,54.3671793 26.4960937,56 C25.4570261,56.7421912 24.640628,56.5937552 24.046875,55.5546875 C23.7499985,54.5156198 23.3789085,53.4765677 22.9335938,52.4375 C22.488279,51.3984323 21.6718809,51.1757783 20.484375,51.7695313 C18.8515543,52.8085989 17.2929762,53.8476511 15.8085937,54.8867188 C14.6210878,55.62891 13.6562537,56.5195261 12.9140625,57.5585938 C11.7265566,58.8945379 10.3906324,59.0429739 8.90625,58.0039063 L6.90234375,56.4453125 C5.56639957,55.1093683 5.34374555,53.4765721 6.234375,51.546875 C6.38281324,50.8046838 6.45703125,50.1367217 6.45703125,49.5429688 L6.45703125,14.3632813 C6.75390773,12.2851459 7.94139586,11.1718757 10.0195312,11.0234375 L13.359375,11.0234375 C13.6562515,11.0234375 13.8417965,11.2089825 13.9160156,11.5800781 C13.9902347,11.9511737 14.1757798,12.1367188 14.4726562,12.1367188 L19.59375,12.1367188 C20.6328177,12.1367188 21.5234338,11.7656287 22.265625,11.0234375 C23.4531309,9.9843698 24.7148371,9.9101518 26.0507812,10.8007813 L28.9453125,13.0273438 C29.835942,13.769535 29.91016,14.6601511 29.1679687,15.6992188 C28.5742158,16.44141 28.2773437,17.257808 28.2773437,18.1484375 L28.2773437,35.0703125 C28.1289055,37.1484479 27.0156354,38.335936 24.9375,38.6328125 L22.0429687,38.6328125 C21.4492158,38.4843743 21.1523437,38.2246112 21.1523437,37.8535156 C21.1523437,37.48242 21.0039077,37.296875 20.7070312,37.296875 L16.2539062,37.296875 C14.9179621,37.296875 14.175782,38.0390551 14.0273437,39.5234375 L14.0273437,45.9804688 C14.175782,47.1679747 14.8437441,47.6875007 16.03125,47.5390625 C16.7734412,47.242186 17.5898393,47.019532 18.4804687,46.8710938 C19.5195364,46.2773408 19.8164085,45.4609427 19.3710938,44.421875 C19.2226555,43.9765603 18.9628925,43.4199252 18.5917969,42.7519531 C18.2207013,42.083981 18.3691373,41.453128 19.0371094,40.859375 C19.7050815,40.265622 20.3359345,40.191404 20.9296875,40.6367188 C24.93752,43.1601689 27.9062404,45.6835811 29.8359375,48.2070312 Z M106.652344,10.1328125 C108.730479,10.429689 109.843749,11.6171771 109.992188,13.6953125 L109.992188,56.890625 C109.992188,58.3750074 109.658206,59.5253865 108.990234,60.3417969 C108.322262,61.1582072 106.800793,61.7148423 104.425781,62.0117188 C102.941399,62.0117188 101.679693,61.2695387 100.640625,59.7851562 C100.19531,59.042965 99.2304762,58.597657 97.7460938,58.4492188 C96.7070261,58.1523423 96.039064,57.5585982 95.7421875,56.6679688 C95.7421875,55.7773393 96.1874955,55.2578132 97.078125,55.109375 C101.085958,55.4062515 102.86719,54.8125074 102.421875,53.328125 L102.421875,13.6953125 C102.570313,11.6171771 103.683583,10.429689 105.761719,10.1328125 L106.652344,10.1328125 Z M96.1875,17.9257812 C98.2656354,18.0742195 99.3789055,19.1874896 99.5273438,21.265625 L99.5273438,45.7578125 C99.3789055,47.6875096 98.2656354,48.8007798 96.1875,49.0976562 L95.9648438,49.0976562 C93.8867084,48.8007798 92.7734382,47.6875096 92.625,45.7578125 L92.625,21.265625 C92.7734382,19.1874896 93.8867084,18.0742195 95.9648438,17.9257812 L96.1875,17.9257812 Z M89.2851562,39.7460938 C90.7695387,41.2304762 90.8437567,42.7148363 89.5078125,44.1992188 C88.1718683,45.3867247 86.7617262,46.5742128 85.2773438,47.7617188 C84.5351525,48.6523482 84.6093705,49.3945283 85.5,49.9882813 C87.8750119,51.1757872 90.0273341,52.2890573 91.9570312,53.328125 C92.6992225,53.7734397 92.9218765,54.4414018 92.625,55.3320312 C92.031247,57.1132902 91.2148489,58.8945223 90.1757812,60.6757812 C89.5820283,61.8632872 88.9140662,62.0117232 88.171875,61.1210938 C86.3906161,58.8945201 84.0156398,56.3711079 81.046875,53.5507812 C80.0078073,52.5117136 78.8203192,52.3632775 77.484375,53.1054688 C72.8827895,56.2226718 68.132837,58.8945201 63.234375,61.1210938 C62.1953073,61.5664085 61.3046912,61.3437545 60.5625,60.453125 C60.1171853,59.5624955 60.2656213,58.8203155 61.0078125,58.2265625 C69.7656688,53.031224 77.2616876,46.7969114 83.4960938,39.5234375 C84.8320379,38.0390551 86.3906161,37.8164011 88.171875,38.8554688 L89.2851562,39.7460938 Z M64.5703125,30.8398438 C65.9062567,29.3554613 67.2421808,27.4257931 68.578125,25.0507812 C69.0234397,23.8632753 68.6523497,23.1953132 67.4648437,23.046875 L62.7890625,23.046875 C61.1562418,22.8984368 60.2285167,22.0820387 60.0058594,20.5976562 C59.783202,19.1132738 60.4140551,18.2968757 61.8984375,18.1484375 L71.9179688,18.1484375 C72.9570364,17.851561 73.2539085,17.1835989 72.8085938,16.1445312 C71.9179643,14.9570253 70.9531302,13.7695372 69.9140625,12.5820312 C69.3203095,11.83984 69.3574185,11.134769 70.0253906,10.4667969 C70.6933627,9.79882479 71.5468698,9.61327977 72.5859375,9.91015625 C75.2578259,10.8007857 77.4101481,11.7656198 79.0429688,12.8046875 C79.78516,13.101564 80.007814,13.583981 79.7109375,14.2519531 C79.414061,14.9199252 79.117189,15.5507783 78.8203125,16.1445312 C78.523436,17.1835989 78.9687441,17.851561 80.15625,18.1484375 L81.7148438,18.1484375 C82.7539114,18.1484375 83.5703095,17.7773475 84.1640625,17.0351562 C85.2031302,15.9960886 86.2421823,15.8476525 87.28125,16.5898438 L90.6210938,19.2617188 C91.363285,20.00391 91.437503,20.783199 90.84375,21.5996094 C90.249997,22.4160197 89.4335989,22.8984368 88.3945312,23.046875 L75.9257812,23.046875 C75.3320283,23.1953132 75.2578103,23.4921853 75.703125,23.9375 L75.9257812,23.9375 C77.4101637,24.9765677 77.5585997,26.2382738 76.3710938,27.7226563 C74.5898348,29.3554769 72.7343846,30.8398371 70.8046875,32.1757812 C70.3593728,32.7695342 70.5078088,33.1406243 71.25,33.2890625 C72.4375059,33.2890625 73.7734301,33.2519535 75.2578125,33.1777344 C76.7421949,33.1035153 77.929683,32.4726622 78.8203125,31.2851563 C79.4140655,30.6914033 79.9335915,30.0234412 80.3789062,29.28125 C81.7148504,27.7968676 83.3476466,27.4257775 85.2773438,28.1679688 L86.8359375,29.28125 C88.3203199,30.3203177 88.4687559,31.6562418 87.28125,33.2890625 C80.1562144,40.2656599 72.4375416,45.7577925 64.125,49.765625 C63.0859323,50.359378 62.1210982,50.1367239 61.2304687,49.0976562 C60.6367158,48.2070268 60.7851518,47.3906287 61.6757812,46.6484375 C64.7929843,44.7187404 67.7617046,42.4922001 70.5820312,39.96875 C71.027346,39.2265588 70.87891,38.8554688 70.1367188,38.8554688 C68.6523363,39.1523452 67.1679762,39.3749993 65.6835937,39.5234375 C63.6054584,39.6718757 62.2695342,38.7812596 61.6757812,36.8515625 L61.453125,35.9609375 C61.3046868,34.0312404 62.1210848,32.5468802 63.9023437,31.5078125 L64.5703125,30.8398438 Z M155.414062,33.0664062 C155.414062,34.4023504 156.044916,35.0703125 157.306641,35.0703125 C158.568366,35.0703125 159.273437,34.4023504 159.421875,33.0664062 L159.421875,27.2773438 C159.273437,25.9413996 158.568366,25.2734375 157.306641,25.2734375 C156.044916,25.2734375 155.414062,25.9413996 155.414062,27.2773438 L155.414062,33.0664062 Z M143.390625,33.0664062 C143.539063,34.4023504 144.281243,35.0703125 145.617188,35.0703125 C146.953132,35.0703125 147.621094,34.4023504 147.621094,33.0664062 L147.621094,27.2773438 C147.621094,25.9413996 146.953132,25.2734375 145.617188,25.2734375 C144.281243,25.2734375 143.539063,25.9413996 143.390625,27.2773438 L143.390625,33.0664062 Z M155.414062,50.65625 C155.414062,51.8437559 156.082025,52.511718 157.417969,52.6601562 C158.605475,52.511718 159.273437,51.8437559 159.421875,50.65625 L159.421875,42.640625 C159.273437,41.4531191 158.605475,40.785157 157.417969,40.6367188 C156.082025,40.785157 155.414062,41.4531191 155.414062,42.640625 L155.414062,50.65625 Z M143.390625,50.65625 C143.539063,51.8437559 144.281243,52.511718 145.617188,52.6601562 C146.953132,52.511718 147.621094,51.8437559 147.621094,50.65625 L147.621094,42.640625 C147.621094,41.4531191 146.953132,40.785157 145.617188,40.6367188 C144.281243,40.785157 143.539063,41.4531191 143.390625,42.640625 L143.390625,50.65625 Z M142.5,18.1484375 C143.093753,18.2968757 143.390625,18.6679658 143.390625,19.2617188 C143.539063,19.5585952 143.761717,19.7812493 144.058594,19.9296875 L145.617188,19.9296875 C146.953132,19.7812493 147.621094,19.0390692 147.621094,17.703125 L147.621094,12.359375 C147.91797,10.2812396 149.03124,9.16796949 150.960938,9.01953125 L151.851562,9.01953125 C153.929698,9.16796949 155.117186,10.2812396 155.414062,12.359375 L155.414062,17.9257812 C155.414062,19.1132872 156.007807,19.7812493 157.195312,19.9296875 L157.640625,19.9296875 C158.531254,19.7812493 159.273435,19.3359412 159.867188,18.59375 C160.609379,17.4062441 161.574213,17.109372 162.761719,17.703125 L166.992188,20.1523438 C168.179693,20.894535 168.476565,21.8593691 167.882812,23.046875 C167.28906,23.9375045 166.992188,24.8281205 166.992188,25.71875 L166.992188,58.671875 C166.843749,60.6015721 165.730479,61.7148423 163.652344,62.0117188 L161.871094,62.0117188 C160.386711,61.8632805 159.570313,61.0468824 159.421875,59.5625 C159.421875,58.6718705 158.902349,58.1523445 157.863281,58.0039062 L145.171875,58.0039062 C144.132807,58.1523445 143.539063,58.6718705 143.390625,59.5625 C143.390625,61.0468824 142.648445,61.8632805 141.164062,62.0117188 L139.605469,62.0117188 C137.527333,61.7148423 136.339845,60.6015721 136.042969,58.671875 L136.042969,24.828125 C136.042969,24.5312485 135.894533,24.5312485 135.597656,24.828125 C135.003903,25.5703162 134.261723,25.9414062 133.371094,25.9414062 L132.035156,25.9414062 C130.996089,26.0898445 130.476562,26.6835886 130.476562,27.7226562 L130.476562,31.953125 C130.625001,33.1406309 131.218745,33.660157 132.257812,33.5117188 L133.148437,33.0664062 C134.187505,32.917968 134.855467,33.3632761 135.152344,34.4023438 C135.152344,35.7382879 134.632818,36.703122 133.59375,37.296875 C133.148435,37.5937515 132.703127,37.8164055 132.257812,37.9648438 C131.070307,38.707035 130.476562,39.7460871 130.476562,41.0820312 L130.476562,56 C130.773439,59.8593943 128.769553,62.1601525 124.464844,62.9023438 C122.980461,62.9023438 121.792973,62.1601637 120.902344,60.6757812 C120.457029,60.0820283 119.714849,59.6738292 118.675781,59.4511719 C117.636714,59.2285145 116.968751,58.5976614 116.671875,57.5585938 C116.671875,56.5195261 117.191401,55.925782 118.230469,55.7773438 C121.644548,55.925782 123.128908,55.1836019 122.683594,53.5507812 L122.683594,44.421875 C122.535156,43.3828073 121.941411,43.0117173 120.902344,43.3085938 C118.972647,43.7539085 117.562504,43.0859464 116.671875,41.3046875 L116.671875,40.859375 C116.22656,38.7812396 116.96874,37.4453155 118.898437,36.8515625 L120.679687,36.40625 C122.015632,35.9609353 122.683594,34.9961012 122.683594,33.5117188 L122.683594,28.1679688 C122.683594,26.8320246 121.941414,26.0898445 120.457031,25.9414062 L119.789062,25.9414062 C118.156242,25.792968 117.11719,24.9023519 116.671875,23.2695312 C116.523437,21.6367106 117.265617,20.7460945 118.898437,20.5976562 L120.457031,20.5976562 C121.941414,20.449218 122.683594,19.7070379 122.683594,18.3710938 L122.683594,12.359375 C122.98047,10.2812396 124.167958,9.16796949 126.246094,9.01953125 L126.914062,9.01953125 C128.992198,9.16796949 130.179686,10.2812396 130.476562,12.359375 L130.476562,20.5976562 L130.921875,19.7070312 C131.515628,19.1132783 132.109372,19.0390603 132.703125,19.484375 L134.929688,21.0429688 C135.52344,21.3398452 135.894531,21.1171912 136.042969,20.375 C136.191407,19.0390558 137.007805,18.2968757 138.492188,18.1484375 L142.5,18.1484375 Z M185.917969,18.8164062 C186.511722,19.7070357 186.58594,20.5234338 186.140625,21.265625 C185.398434,22.6015692 184.322273,23.6777303 182.912109,24.4941406 C181.501946,25.310551 180.648439,25.1992239 180.351562,24.1601563 C179.460933,21.1913914 178.570317,18.6679791 177.679688,16.5898438 C177.234373,15.5507761 177.531245,14.734378 178.570312,14.140625 C179.60938,13.546872 180.574214,13.62109 181.464844,14.3632812 C182.949226,15.6992254 184.433586,17.1835856 185.917969,18.8164062 Z M202.171875,51.9921875 C201.281246,51.101558 200.464847,51.02734 199.722656,51.7695312 C195.566385,57.5586227 188.886765,61.1953051 179.683594,62.6796875 C178.496088,62.8281257 177.642581,62.3457087 177.123047,61.2324219 C176.603513,60.1191351 176.863276,59.339846 177.902344,58.8945312 C184.582065,56.8163959 189.406235,53.4765855 192.375,48.875 C192.820315,47.6874941 192.375007,47.019532 191.039062,46.8710938 L179.238281,46.8710938 C177.457022,46.7226555 176.41797,45.7578214 176.121094,43.9765625 C175.972656,42.4921801 176.714836,41.601564 178.347656,41.3046875 L193.933594,41.3046875 C194.675785,41.3046875 195.121093,40.9335975 195.269531,40.1914062 C195.566408,39.1523386 196.23437,38.5585945 197.273437,38.4101562 L198.609375,38.4101562 C199.05469,38.261718 199.203126,37.964846 199.054687,37.5195312 C198.609373,36.77734 198.832027,36.183596 199.722656,35.7382812 C201.355477,34.99609 202.914055,34.179692 204.398437,33.2890625 C205.585943,32.5468713 205.882815,31.4336012 205.289062,29.9492188 C204.843748,28.9101511 204.250004,27.945317 203.507812,27.0546875 C203.062498,26.0156198 203.248043,25.1621127 204.064453,24.4941406 C204.880863,23.8261685 205.77148,23.7519505 206.736328,24.2714844 C207.701177,24.7910182 208.628902,25.3476533 209.519531,25.9414062 C210.707037,26.8320357 211.746089,26.7578177 212.636719,25.71875 L214.417969,22.6015625 C214.714845,21.4140566 214.269537,20.6718765 213.082031,20.375 L208.40625,20.375 C206.921868,20.5234382 205.660161,21.1171823 204.621094,22.15625 C202.246082,25.1250148 199.500016,27.6484271 196.382812,29.7265625 C196.234374,29.8750007 196.085938,29.9121097 195.9375,29.8378906 C195.789062,29.7636715 195.714844,29.8007805 195.714844,29.9492188 L195.714844,34.4023438 C195.566406,36.4804791 194.453135,37.6679673 192.375,37.9648438 L191.484375,37.9648438 C189.40624,37.6679673 188.292969,36.4804791 188.144531,34.4023438 L188.144531,33.734375 C187.847655,32.6953073 187.179693,32.3984353 186.140625,32.84375 C184.656243,34.0312559 183.097664,35.2187441 181.464844,36.40625 C179.683585,37.2968795 178.273443,36.9257894 177.234375,35.2929688 L176.789062,34.625 C176.046871,32.6953029 176.566397,31.2109427 178.347656,30.171875 L185.917969,27.0546875 C187.253913,26.3124963 187.996093,25.1992262 188.144531,23.7148438 L188.144531,13.9179688 C188.292969,11.8398334 189.40624,10.7265632 191.484375,10.578125 L192.375,10.578125 C194.453135,10.7265632 195.566406,11.8398334 195.714844,13.9179688 L195.714844,22.6015625 C196.01172,23.3437537 196.38281,23.4179717 196.828125,22.8242188 C198.90626,19.7070157 200.687493,16.1445513 202.171875,12.1367188 C203.062504,10.2070216 204.472647,9.46484152 206.402344,9.91015625 L209.074219,10.8007812 C210.707039,11.3945342 211.152347,12.4335863 210.410156,13.9179688 C210.11328,14.9570364 210.48437,15.5507805 211.523437,15.6992188 L214.640625,15.6992188 C215.531254,15.5507805 216.273435,15.1054725 216.867187,14.3632812 C217.609379,13.3242136 218.574213,13.1015595 219.761719,13.6953125 L224.660156,17.0351562 C225.550786,17.7773475 225.625004,18.6679636 224.882812,19.7070312 C224.28906,20.3007842 223.843751,21.0429643 223.546875,21.9335938 C219.984357,30.0976971 213.824263,35.5898296 205.066406,38.4101562 C205.066406,38.5585945 205.029297,38.7812485 204.955078,39.078125 C204.880859,39.3750015 204.769532,39.7460915 204.621094,40.1914062 C204.621094,40.9335975 204.917966,41.3046875 205.511719,41.3046875 L215.308594,41.3046875 C216.347661,41.3046875 217.089842,40.8593795 217.535156,39.96875 C218.425786,38.9296823 219.464838,38.7812463 220.652344,39.5234375 L223.769531,41.75 C224.808599,42.6406295 225.031253,43.6796816 224.4375,44.8671875 C223.843747,46.0546934 222.878913,46.7226555 221.542969,46.8710938 L206.847656,46.8710938 C205.957027,47.019532 205.734373,47.539058 206.179687,48.4296875 C210.039082,51.6953288 215.382778,53.773433 222.210937,54.6640625 C223.992196,55.2578155 224.511722,56.3710856 223.769531,58.0039062 C223.175778,58.5976592 222.73047,59.3398393 222.433594,60.2304688 C221.09765,62.0117277 219.390635,62.7539077 217.3125,62.4570312 C210.335903,60.8242106 205.289078,57.3359642 202.171875,51.9921875 Z M260.507812,11.46875 C261.101565,11.6171882 261.398437,11.9882783 261.398437,12.5820312 C261.398437,12.8789077 261.621092,13.1015618 262.066406,13.25 L265.40625,13.25 C266.296879,13.1015618 267.03906,12.7304717 267.632812,12.1367188 C268.523442,11.2460893 269.488276,11.0976533 270.527344,11.6914062 L274.757812,14.5859375 C275.79688,15.3281287 275.945316,16.2187448 275.203125,17.2578125 C274.609372,18.0000037 274.3125,18.8906198 274.3125,19.9296875 L274.3125,51.3242188 C274.3125,52.3632864 274.832026,52.8828125 275.871094,52.8828125 C276.613285,52.8828125 277.132811,52.4375045 277.429687,51.546875 C277.578126,50.3593691 277.874998,48.9492269 278.320312,47.3164062 C278.468751,46.4257768 278.988277,46.0917958 279.878906,46.3144531 C280.769536,46.5371105 281.214844,47.0937455 281.214844,47.984375 C281.363282,49.1718809 281.511718,50.062497 281.660156,50.65625 C282.847662,52.5859471 283.29297,54.4413973 282.996094,56.2226562 C281.957026,59.1914211 279.730486,60.5273452 276.316406,60.2304688 L273.421875,60.2304688 C268.671851,60.6757835 266.445311,58.1523712 266.742187,52.6601562 L266.742187,20.8203125 C266.593749,19.4843683 265.851569,18.7421882 264.515625,18.59375 L263.625,18.59375 C262.289056,18.7421882 261.546876,19.4843683 261.398437,20.8203125 L261.398437,32.1757812 C261.695314,44.0508406 257.984414,53.5507456 250.265625,60.6757812 C249.226557,61.4179725 248.187505,61.4550815 247.148437,60.7871094 C246.10937,60.1191373 245.886716,59.2656302 246.480469,58.2265625 C251.675807,51.3984034 254.199219,42.8633325 254.050781,32.6210938 L254.050781,15.03125 C254.199219,12.9531146 255.31249,11.7656265 257.390625,11.46875 L260.507812,11.46875 Z M236.238281,29.5039063 C236.386719,28.1679621 235.792975,27.425782 234.457031,27.2773438 L233.34375,27.2773438 C231.710929,27.1289055 230.671877,26.2382894 230.226562,24.6054688 C230.226562,23.1210863 230.968743,22.2304702 232.453125,21.9335938 L235.570312,21.9335938 C237.054695,21.7851555 237.796875,21.0429754 237.796875,19.7070312 L237.796875,13.0273438 C238.093751,10.9492084 239.207022,9.83593824 241.136719,9.6875 L241.804688,9.6875 C243.882823,9.83593824 245.070311,10.9492084 245.367188,13.0273438 L245.367188,21.7109375 C245.367188,21.8593757 245.441406,21.9335938 245.589844,21.9335938 L245.8125,21.9335938 L246.480469,21.0429688 C247.22266,20.3007775 248.039058,20.2265595 248.929688,20.8203125 L252.269531,23.4921875 C253.011722,24.2343787 253.08594,25.0136678 252.492188,25.8300781 C251.898435,26.6464885 251.082036,27.1289055 250.042969,27.2773438 L246.703125,27.2773438 C245.812496,27.2773438 245.367188,27.7226518 245.367188,28.6132812 L245.367188,29.9492188 C245.367188,30.097657 245.441406,30.134766 245.589844,30.0605469 C245.738282,29.9863278 245.886718,30.0234368 246.035156,30.171875 C247.074224,31.0625045 248.261712,32.0273386 249.597656,33.0664062 C250.9336,34.1054739 251.972653,34.99609 252.714844,35.7382812 C253.01172,36.183596 253.085938,36.77734 252.9375,37.5195313 C252.046871,38.8554754 250.9336,40.1171816 249.597656,41.3046875 C248.707027,42.0468787 248.187501,41.9726607 248.039062,41.0820312 C247.593748,40.0429636 247.000004,38.7070394 246.257812,37.0742188 C245.812498,36.628904 245.515626,36.703122 245.367188,37.296875 L245.367188,58.8945313 C245.070311,60.9726666 243.882823,62.0859368 241.804688,62.234375 L241.136719,62.234375 C239.207022,62.0859368 238.093751,60.9726666 237.796875,58.8945313 L237.796875,43.3085938 C237.648437,42.5664025 237.277347,42.4179665 236.683594,42.8632813 C235.496088,44.7929784 234.234382,46.5742106 232.898438,48.2070313 C232.156246,48.9492225 231.339848,49.0976585 230.449219,48.6523438 C229.558589,47.9101525 229.335935,47.0195364 229.78125,45.9804688 C232.601577,40.1913773 234.753899,34.6992447 236.238281,29.5039063 Z" id="即刻抽奖机" fill="#0230C5"></path>
                <path d="M44.9765625,40.7539062 L44.9765625,17.1523438 C44.8281243,15.6679613 44.0117262,14.8515632 42.5273438,14.703125 L42.0820312,14.703125 C40.5976488,14.8515632 39.7812507,15.6679613 39.6328125,17.1523438 L39.6328125,40.7539062 C39.7812507,42.2382887 40.5976488,43.0546868 42.0820312,43.203125 C42.2304695,43.203125 42.4531235,43.128907 42.75,42.9804688 C44.2343824,42.9804688 44.9765625,42.2382887 44.9765625,40.7539062 Z M38.9648437,8.24609375 C39.4101585,8.24609375 39.6328125,8.54296578 39.6328125,9.13671875 C39.7812507,9.43359523 40.0039048,9.58203125 40.3007812,9.58203125 L43.4179687,9.58203125 C44.4570364,9.58203125 45.3476525,9.1367232 46.0898437,8.24609375 C47.2773497,7.20702605 48.5390558,7.05859004 49.875,7.80078125 L52.7695312,9.8046875 C54.2539137,11.1406317 54.4765677,12.6249918 53.4375,14.2578125 C52.6953088,15.2968802 52.3242187,16.5585863 52.3242187,18.0429688 L52.3242187,42.0898438 C52.7695335,46.542991 50.9883013,49.2148393 46.9804687,50.1054688 C45.3476481,50.1054688 44.0117239,49.3632887 42.9726562,47.8789062 C42.6757798,47.5820298 42.3046897,47.2851577 41.859375,46.9882812 C40.6718691,46.5429665 39.929689,47.0624926 39.6328125,48.546875 L39.6328125,56.1171875 C39.4843743,58.1953229 38.3711041,59.308593 36.2929688,59.4570312 L35.625,59.4570312 C33.5468646,59.308593 32.4335945,58.1953229 32.2851562,56.1171875 L32.2851562,11.5859375 C32.4335945,9.50780211 33.5468646,8.39453199 35.625,8.24609375 L38.9648437,8.24609375 Z M14.0273438,27.3945312 C14.175782,28.7304754 14.9179621,29.4726555 16.2539062,29.6210938 L18.9257812,29.6210938 C20.2617254,29.4726555 21.0039055,28.7304754 21.1523438,27.3945312 L21.1523438,26.0585938 C21.0039055,24.7226496 20.2617254,23.9804695 18.9257812,23.8320312 L16.2539062,23.8320312 C14.9179621,23.9804695 14.175782,24.7226496 14.0273438,26.0585938 L14.0273438,27.3945312 Z M14.0273438,17.1523438 C14.175782,18.6367262 14.9179621,19.4531243 16.2539062,19.6015625 L18.9257812,19.6015625 C20.2617254,19.4531243 21.0039055,18.6367262 21.1523438,17.1523438 L21.1523438,15.8164062 C21.0039055,14.4804621 20.2617254,13.738282 18.9257812,13.5898438 L16.2539062,13.5898438 C14.9179621,13.738282 14.175782,14.4804621 14.0273438,15.8164062 L14.0273438,17.1523438 Z M29.8359375,45.2070312 C30.4296905,46.0976607 30.5039085,47.1367128 30.0585937,48.3242188 C29.3164025,49.8086012 28.1289144,51.3671793 26.4960937,53 C25.4570261,53.7421912 24.640628,53.5937552 24.046875,52.5546875 C23.7499985,51.5156198 23.3789085,50.4765677 22.9335938,49.4375 C22.488279,48.3984323 21.6718809,48.1757783 20.484375,48.7695313 C18.8515543,49.8085989 17.2929762,50.8476511 15.8085937,51.8867188 C14.6210878,52.62891 13.6562537,53.5195261 12.9140625,54.5585938 C11.7265566,55.8945379 10.3906324,56.0429739 8.90625,55.0039063 L6.90234375,53.4453125 C5.56639957,52.1093683 5.34374555,50.4765721 6.234375,48.546875 C6.38281324,47.8046838 6.45703125,47.1367217 6.45703125,46.5429688 L6.45703125,11.3632813 C6.75390773,9.28514586 7.94139586,8.17187574 10.0195312,8.0234375 L13.359375,8.0234375 C13.6562515,8.0234375 13.8417965,8.20898252 13.9160156,8.58007813 C13.9902347,8.95117373 14.1757798,9.13671875 14.4726562,9.13671875 L19.59375,9.13671875 C20.6328177,9.13671875 21.5234338,8.76562871 22.265625,8.0234375 C23.4531309,6.9843698 24.7148371,6.9101518 26.0507812,7.80078125 L28.9453125,10.0273438 C29.835942,10.769535 29.91016,11.6601511 29.1679687,12.6992188 C28.5742158,13.44141 28.2773437,14.257808 28.2773437,15.1484375 L28.2773437,32.0703125 C28.1289055,34.1484479 27.0156354,35.335936 24.9375,35.6328125 L22.0429687,35.6328125 C21.4492158,35.4843743 21.1523437,35.2246112 21.1523437,34.8535156 C21.1523437,34.48242 21.0039077,34.296875 20.7070312,34.296875 L16.2539062,34.296875 C14.9179621,34.296875 14.175782,35.0390551 14.0273437,36.5234375 L14.0273437,42.9804688 C14.175782,44.1679747 14.8437441,44.6875007 16.03125,44.5390625 C16.7734412,44.242186 17.5898393,44.019532 18.4804687,43.8710938 C19.5195364,43.2773408 19.8164085,42.4609427 19.3710938,41.421875 C19.2226555,40.9765603 18.9628925,40.4199252 18.5917969,39.7519531 C18.2207013,39.083981 18.3691373,38.453128 19.0371094,37.859375 C19.7050815,37.265622 20.3359345,37.191404 20.9296875,37.6367188 C24.93752,40.1601689 27.9062404,42.6835811 29.8359375,45.2070312 Z M106.652344,7.1328125 C108.730479,7.42968898 109.843749,8.61717711 109.992188,10.6953125 L109.992188,53.890625 C109.992188,55.3750074 109.658206,56.5253865 108.990234,57.3417969 C108.322262,58.1582072 106.800793,58.7148423 104.425781,59.0117188 C102.941399,59.0117188 101.679693,58.2695387 100.640625,56.7851562 C100.19531,56.042965 99.2304762,55.597657 97.7460938,55.4492188 C96.7070261,55.1523423 96.039064,54.5585982 95.7421875,53.6679688 C95.7421875,52.7773393 96.1874955,52.2578132 97.078125,52.109375 C101.085958,52.4062515 102.86719,51.8125074 102.421875,50.328125 L102.421875,10.6953125 C102.570313,8.61717711 103.683583,7.42968898 105.761719,7.1328125 L106.652344,7.1328125 Z M96.1875,14.9257812 C98.2656354,15.0742195 99.3789055,16.1874896 99.5273438,18.265625 L99.5273438,42.7578125 C99.3789055,44.6875096 98.2656354,45.8007798 96.1875,46.0976562 L95.9648438,46.0976562 C93.8867084,45.8007798 92.7734382,44.6875096 92.625,42.7578125 L92.625,18.265625 C92.7734382,16.1874896 93.8867084,15.0742195 95.9648438,14.9257812 L96.1875,14.9257812 Z M89.2851562,36.7460938 C90.7695387,38.2304762 90.8437567,39.7148363 89.5078125,41.1992188 C88.1718683,42.3867247 86.7617262,43.5742128 85.2773438,44.7617188 C84.5351525,45.6523482 84.6093705,46.3945283 85.5,46.9882813 C87.8750119,48.1757872 90.0273341,49.2890573 91.9570312,50.328125 C92.6992225,50.7734397 92.9218765,51.4414018 92.625,52.3320312 C92.031247,54.1132902 91.2148489,55.8945223 90.1757812,57.6757812 C89.5820283,58.8632872 88.9140662,59.0117232 88.171875,58.1210938 C86.3906161,55.8945201 84.0156398,53.3711079 81.046875,50.5507812 C80.0078073,49.5117136 78.8203192,49.3632775 77.484375,50.1054688 C72.8827895,53.2226718 68.132837,55.8945201 63.234375,58.1210938 C62.1953073,58.5664085 61.3046912,58.3437545 60.5625,57.453125 C60.1171853,56.5624955 60.2656213,55.8203155 61.0078125,55.2265625 C69.7656688,50.031224 77.2616876,43.7969114 83.4960938,36.5234375 C84.8320379,35.0390551 86.3906161,34.8164011 88.171875,35.8554688 L89.2851562,36.7460938 Z M64.5703125,27.8398438 C65.9062567,26.3554613 67.2421808,24.4257931 68.578125,22.0507813 C69.0234397,20.8632753 68.6523497,20.1953132 67.4648437,20.046875 L62.7890625,20.046875 C61.1562418,19.8984368 60.2285167,19.0820387 60.0058594,17.5976562 C59.783202,16.1132738 60.4140551,15.2968757 61.8984375,15.1484375 L71.9179688,15.1484375 C72.9570364,14.851561 73.2539085,14.1835989 72.8085938,13.1445312 C71.9179643,11.9570253 70.9531302,10.7695372 69.9140625,9.58203125 C69.3203095,8.83984004 69.3574185,8.13476896 70.0253906,7.46679688 C70.6933627,6.79882479 71.5468698,6.61327977 72.5859375,6.91015625 C75.2578259,7.8007857 77.4101481,8.7656198 79.0429688,9.8046875 C79.78516,10.101564 80.007814,10.583981 79.7109375,11.2519531 C79.414061,11.9199252 79.117189,12.5507783 78.8203125,13.1445312 C78.523436,14.1835989 78.9687441,14.851561 80.15625,15.1484375 L81.7148438,15.1484375 C82.7539114,15.1484375 83.5703095,14.7773475 84.1640625,14.0351562 C85.2031302,12.9960886 86.2421823,12.8476525 87.28125,13.5898438 L90.6210938,16.2617188 C91.363285,17.00391 91.437503,17.783199 90.84375,18.5996094 C90.249997,19.4160197 89.4335989,19.8984368 88.3945312,20.046875 L75.9257812,20.046875 C75.3320283,20.1953132 75.2578103,20.4921853 75.703125,20.9375 L75.9257812,20.9375 C77.4101637,21.9765677 77.5585997,23.2382738 76.3710938,24.7226563 C74.5898348,26.3554769 72.7343846,27.8398371 70.8046875,29.1757813 C70.3593728,29.7695342 70.5078088,30.1406243 71.25,30.2890625 C72.4375059,30.2890625 73.7734301,30.2519535 75.2578125,30.1777344 C76.7421949,30.1035153 77.929683,29.4726622 78.8203125,28.2851563 C79.4140655,27.6914033 79.9335915,27.0234412 80.3789062,26.28125 C81.7148504,24.7968676 83.3476466,24.4257775 85.2773438,25.1679688 L86.8359375,26.28125 C88.3203199,27.3203177 88.4687559,28.6562418 87.28125,30.2890625 C80.1562144,37.2656599 72.4375416,42.7577925 64.125,46.765625 C63.0859323,47.359378 62.1210982,47.1367239 61.2304687,46.0976563 C60.6367158,45.2070268 60.7851518,44.3906287 61.6757812,43.6484375 C64.7929843,41.7187404 67.7617046,39.4922001 70.5820312,36.96875 C71.027346,36.2265588 70.87891,35.8554688 70.1367188,35.8554688 C68.6523363,36.1523452 67.1679762,36.3749993 65.6835937,36.5234375 C63.6054584,36.6718757 62.2695342,35.7812596 61.6757812,33.8515625 L61.453125,32.9609375 C61.3046868,31.0312404 62.1210848,29.5468802 63.9023437,28.5078125 L64.5703125,27.8398438 Z M155.414062,30.0664062 C155.414062,31.4023504 156.044916,32.0703125 157.306641,32.0703125 C158.568366,32.0703125 159.273437,31.4023504 159.421875,30.0664062 L159.421875,24.2773438 C159.273437,22.9413996 158.568366,22.2734375 157.306641,22.2734375 C156.044916,22.2734375 155.414062,22.9413996 155.414062,24.2773438 L155.414062,30.0664062 Z M143.390625,30.0664062 C143.539063,31.4023504 144.281243,32.0703125 145.617188,32.0703125 C146.953132,32.0703125 147.621094,31.4023504 147.621094,30.0664062 L147.621094,24.2773438 C147.621094,22.9413996 146.953132,22.2734375 145.617188,22.2734375 C144.281243,22.2734375 143.539063,22.9413996 143.390625,24.2773438 L143.390625,30.0664062 Z M155.414062,47.65625 C155.414062,48.8437559 156.082025,49.511718 157.417969,49.6601562 C158.605475,49.511718 159.273437,48.8437559 159.421875,47.65625 L159.421875,39.640625 C159.273437,38.4531191 158.605475,37.785157 157.417969,37.6367188 C156.082025,37.785157 155.414062,38.4531191 155.414062,39.640625 L155.414062,47.65625 Z M143.390625,47.65625 C143.539063,48.8437559 144.281243,49.511718 145.617188,49.6601562 C146.953132,49.511718 147.621094,48.8437559 147.621094,47.65625 L147.621094,39.640625 C147.621094,38.4531191 146.953132,37.785157 145.617188,37.6367188 C144.281243,37.785157 143.539063,38.4531191 143.390625,39.640625 L143.390625,47.65625 Z M142.5,15.1484375 C143.093753,15.2968757 143.390625,15.6679658 143.390625,16.2617188 C143.539063,16.5585952 143.761717,16.7812493 144.058594,16.9296875 L145.617188,16.9296875 C146.953132,16.7812493 147.621094,16.0390692 147.621094,14.703125 L147.621094,9.359375 C147.91797,7.28123961 149.03124,6.16796949 150.960938,6.01953125 L151.851562,6.01953125 C153.929698,6.16796949 155.117186,7.28123961 155.414062,9.359375 L155.414062,14.9257812 C155.414062,16.1132872 156.007807,16.7812493 157.195312,16.9296875 L157.640625,16.9296875 C158.531254,16.7812493 159.273435,16.3359412 159.867188,15.59375 C160.609379,14.4062441 161.574213,14.109372 162.761719,14.703125 L166.992188,17.1523438 C168.179693,17.894535 168.476565,18.8593691 167.882812,20.046875 C167.28906,20.9375045 166.992188,21.8281205 166.992188,22.71875 L166.992188,55.671875 C166.843749,57.6015721 165.730479,58.7148423 163.652344,59.0117188 L161.871094,59.0117188 C160.386711,58.8632805 159.570313,58.0468824 159.421875,56.5625 C159.421875,55.6718705 158.902349,55.1523445 157.863281,55.0039062 L145.171875,55.0039062 C144.132807,55.1523445 143.539063,55.6718705 143.390625,56.5625 C143.390625,58.0468824 142.648445,58.8632805 141.164062,59.0117188 L139.605469,59.0117188 C137.527333,58.7148423 136.339845,57.6015721 136.042969,55.671875 L136.042969,21.828125 C136.042969,21.5312485 135.894533,21.5312485 135.597656,21.828125 C135.003903,22.5703162 134.261723,22.9414062 133.371094,22.9414062 L132.035156,22.9414062 C130.996089,23.0898445 130.476562,23.6835886 130.476562,24.7226562 L130.476562,28.953125 C130.625001,30.1406309 131.218745,30.660157 132.257812,30.5117188 L133.148437,30.0664062 C134.187505,29.917968 134.855467,30.3632761 135.152344,31.4023438 C135.152344,32.7382879 134.632818,33.703122 133.59375,34.296875 C133.148435,34.5937515 132.703127,34.8164055 132.257812,34.9648438 C131.070307,35.707035 130.476562,36.7460871 130.476562,38.0820312 L130.476562,53 C130.773439,56.8593943 128.769553,59.1601525 124.464844,59.9023438 C122.980461,59.9023438 121.792973,59.1601637 120.902344,57.6757812 C120.457029,57.0820283 119.714849,56.6738292 118.675781,56.4511719 C117.636714,56.2285145 116.968751,55.5976614 116.671875,54.5585938 C116.671875,53.5195261 117.191401,52.925782 118.230469,52.7773438 C121.644548,52.925782 123.128908,52.1836019 122.683594,50.5507812 L122.683594,41.421875 C122.535156,40.3828073 121.941411,40.0117173 120.902344,40.3085938 C118.972647,40.7539085 117.562504,40.0859464 116.671875,38.3046875 L116.671875,37.859375 C116.22656,35.7812396 116.96874,34.4453155 118.898437,33.8515625 L120.679687,33.40625 C122.015632,32.9609353 122.683594,31.9961012 122.683594,30.5117188 L122.683594,25.1679688 C122.683594,23.8320246 121.941414,23.0898445 120.457031,22.9414062 L119.789062,22.9414062 C118.156242,22.792968 117.11719,21.9023519 116.671875,20.2695312 C116.523437,18.6367106 117.265617,17.7460945 118.898437,17.5976562 L120.457031,17.5976562 C121.941414,17.449218 122.683594,16.7070379 122.683594,15.3710938 L122.683594,9.359375 C122.98047,7.28123961 124.167958,6.16796949 126.246094,6.01953125 L126.914062,6.01953125 C128.992198,6.16796949 130.179686,7.28123961 130.476562,9.359375 L130.476562,17.5976562 L130.921875,16.7070312 C131.515628,16.1132783 132.109372,16.0390603 132.703125,16.484375 L134.929688,18.0429688 C135.52344,18.3398452 135.894531,18.1171912 136.042969,17.375 C136.191407,16.0390558 137.007805,15.2968757 138.492188,15.1484375 L142.5,15.1484375 Z M185.917969,15.8164062 C186.511722,16.7070357 186.58594,17.5234338 186.140625,18.265625 C185.398434,19.6015692 184.322273,20.6777303 182.912109,21.4941406 C181.501946,22.310551 180.648439,22.1992239 180.351562,21.1601563 C179.460933,18.1913914 178.570317,15.6679791 177.679688,13.5898438 C177.234373,12.5507761 177.531245,11.734378 178.570312,11.140625 C179.60938,10.546872 180.574214,10.62109 181.464844,11.3632812 C182.949226,12.6992254 184.433586,14.1835856 185.917969,15.8164062 Z M202.171875,48.9921875 C201.281246,48.101558 200.464847,48.02734 199.722656,48.7695312 C195.566385,54.5586227 188.886765,58.1953051 179.683594,59.6796875 C178.496088,59.8281257 177.642581,59.3457087 177.123047,58.2324219 C176.603513,57.1191351 176.863276,56.339846 177.902344,55.8945312 C184.582065,53.8163959 189.406235,50.4765855 192.375,45.875 C192.820315,44.6874941 192.375007,44.019532 191.039062,43.8710938 L179.238281,43.8710938 C177.457022,43.7226555 176.41797,42.7578214 176.121094,40.9765625 C175.972656,39.4921801 176.714836,38.601564 178.347656,38.3046875 L193.933594,38.3046875 C194.675785,38.3046875 195.121093,37.9335975 195.269531,37.1914062 C195.566408,36.1523386 196.23437,35.5585945 197.273437,35.4101562 L198.609375,35.4101562 C199.05469,35.261718 199.203126,34.964846 199.054687,34.5195312 C198.609373,33.77734 198.832027,33.183596 199.722656,32.7382812 C201.355477,31.99609 202.914055,31.179692 204.398437,30.2890625 C205.585943,29.5468713 205.882815,28.4336012 205.289062,26.9492188 C204.843748,25.9101511 204.250004,24.945317 203.507812,24.0546875 C203.062498,23.0156198 203.248043,22.1621127 204.064453,21.4941406 C204.880863,20.8261685 205.77148,20.7519505 206.736328,21.2714844 C207.701177,21.7910182 208.628902,22.3476533 209.519531,22.9414062 C210.707037,23.8320357 211.746089,23.7578177 212.636719,22.71875 L214.417969,19.6015625 C214.714845,18.4140566 214.269537,17.6718765 213.082031,17.375 L208.40625,17.375 C206.921868,17.5234382 205.660161,18.1171823 204.621094,19.15625 C202.246082,22.1250148 199.500016,24.6484271 196.382812,26.7265625 C196.234374,26.8750007 196.085938,26.9121097 195.9375,26.8378906 C195.789062,26.7636715 195.714844,26.8007805 195.714844,26.9492188 L195.714844,31.4023438 C195.566406,33.4804791 194.453135,34.6679673 192.375,34.9648438 L191.484375,34.9648438 C189.40624,34.6679673 188.292969,33.4804791 188.144531,31.4023438 L188.144531,30.734375 C187.847655,29.6953073 187.179693,29.3984353 186.140625,29.84375 C184.656243,31.0312559 183.097664,32.2187441 181.464844,33.40625 C179.683585,34.2968795 178.273443,33.9257894 177.234375,32.2929688 L176.789062,31.625 C176.046871,29.6953029 176.566397,28.2109427 178.347656,27.171875 L185.917969,24.0546875 C187.253913,23.3124963 187.996093,22.1992262 188.144531,20.7148438 L188.144531,10.9179688 C188.292969,8.83983336 189.40624,7.72656324 191.484375,7.578125 L192.375,7.578125 C194.453135,7.72656324 195.566406,8.83983336 195.714844,10.9179688 L195.714844,19.6015625 C196.01172,20.3437537 196.38281,20.4179717 196.828125,19.8242188 C198.90626,16.7070157 200.687493,13.1445513 202.171875,9.13671875 C203.062504,7.2070216 204.472647,6.46484152 206.402344,6.91015625 L209.074219,7.80078125 C210.707039,8.39453422 211.152347,9.43358633 210.410156,10.9179688 C210.11328,11.9570364 210.48437,12.5507805 211.523437,12.6992188 L214.640625,12.6992188 C215.531254,12.5507805 216.273435,12.1054725 216.867187,11.3632812 C217.609379,10.3242136 218.574213,10.1015595 219.761719,10.6953125 L224.660156,14.0351562 C225.550786,14.7773475 225.625004,15.6679636 224.882812,16.7070312 C224.28906,17.3007842 223.843751,18.0429643 223.546875,18.9335938 C219.984357,27.0976971 213.824263,32.5898296 205.066406,35.4101562 C205.066406,35.5585945 205.029297,35.7812485 204.955078,36.078125 C204.880859,36.3750015 204.769532,36.7460915 204.621094,37.1914062 C204.621094,37.9335975 204.917966,38.3046875 205.511719,38.3046875 L215.308594,38.3046875 C216.347661,38.3046875 217.089842,37.8593795 217.535156,36.96875 C218.425786,35.9296823 219.464838,35.7812463 220.652344,36.5234375 L223.769531,38.75 C224.808599,39.6406295 225.031253,40.6796816 224.4375,41.8671875 C223.843747,43.0546934 222.878913,43.7226555 221.542969,43.8710938 L206.847656,43.8710938 C205.957027,44.019532 205.734373,44.539058 206.179687,45.4296875 C210.039082,48.6953288 215.382778,50.773433 222.210937,51.6640625 C223.992196,52.2578155 224.511722,53.3710856 223.769531,55.0039062 C223.175778,55.5976592 222.73047,56.3398393 222.433594,57.2304688 C221.09765,59.0117277 219.390635,59.7539077 217.3125,59.4570312 C210.335903,57.8242106 205.289078,54.3359642 202.171875,48.9921875 Z M260.507812,8.46875 C261.101565,8.61718824 261.398437,8.98827828 261.398437,9.58203125 C261.398437,9.87890773 261.621092,10.1015618 262.066406,10.25 L265.40625,10.25 C266.296879,10.1015618 267.03906,9.73047172 267.632812,9.13671875 C268.523442,8.2460893 269.488276,8.09765328 270.527344,8.69140625 L274.757812,11.5859375 C275.79688,12.3281287 275.945316,13.2187448 275.203125,14.2578125 C274.609372,15.0000037 274.3125,15.8906198 274.3125,16.9296875 L274.3125,48.3242188 C274.3125,49.3632864 274.832026,49.8828125 275.871094,49.8828125 C276.613285,49.8828125 277.132811,49.4375045 277.429687,48.546875 C277.578126,47.3593691 277.874998,45.9492269 278.320312,44.3164062 C278.468751,43.4257768 278.988277,43.0917958 279.878906,43.3144531 C280.769536,43.5371105 281.214844,44.0937455 281.214844,44.984375 C281.363282,46.1718809 281.511718,47.062497 281.660156,47.65625 C282.847662,49.5859471 283.29297,51.4413973 282.996094,53.2226562 C281.957026,56.1914211 279.730486,57.5273452 276.316406,57.2304688 L273.421875,57.2304688 C268.671851,57.6757835 266.445311,55.1523712 266.742187,49.6601562 L266.742187,17.8203125 C266.593749,16.4843683 265.851569,15.7421882 264.515625,15.59375 L263.625,15.59375 C262.289056,15.7421882 261.546876,16.4843683 261.398437,17.8203125 L261.398437,29.1757812 C261.695314,41.0508406 257.984414,50.5507456 250.265625,57.6757812 C249.226557,58.4179725 248.187505,58.4550815 247.148437,57.7871094 C246.10937,57.1191373 245.886716,56.2656302 246.480469,55.2265625 C251.675807,48.3984034 254.199219,39.8633325 254.050781,29.6210938 L254.050781,12.03125 C254.199219,9.95311461 255.31249,8.76562648 257.390625,8.46875 L260.507812,8.46875 Z M236.238281,26.5039063 C236.386719,25.1679621 235.792975,24.425782 234.457031,24.2773438 L233.34375,24.2773438 C231.710929,24.1289055 230.671877,23.2382894 230.226562,21.6054688 C230.226562,20.1210863 230.968743,19.2304702 232.453125,18.9335938 L235.570312,18.9335938 C237.054695,18.7851555 237.796875,18.0429754 237.796875,16.7070312 L237.796875,10.0273438 C238.093751,7.94920836 239.207022,6.83593824 241.136719,6.6875 L241.804688,6.6875 C243.882823,6.83593824 245.070311,7.94920836 245.367188,10.0273438 L245.367188,18.7109375 C245.367188,18.8593757 245.441406,18.9335938 245.589844,18.9335938 L245.8125,18.9335938 L246.480469,18.0429688 C247.22266,17.3007775 248.039058,17.2265595 248.929688,17.8203125 L252.269531,20.4921875 C253.011722,21.2343787 253.08594,22.0136678 252.492188,22.8300781 C251.898435,23.6464885 251.082036,24.1289055 250.042969,24.2773438 L246.703125,24.2773438 C245.812496,24.2773438 245.367188,24.7226518 245.367188,25.6132812 L245.367188,26.9492188 C245.367188,27.097657 245.441406,27.134766 245.589844,27.0605469 C245.738282,26.9863278 245.886718,27.0234368 246.035156,27.171875 C247.074224,28.0625045 248.261712,29.0273386 249.597656,30.0664063 C250.9336,31.1054739 251.972653,31.99609 252.714844,32.7382812 C253.01172,33.183596 253.085938,33.77734 252.9375,34.5195313 C252.046871,35.8554754 250.9336,37.1171816 249.597656,38.3046875 C248.707027,39.0468787 248.187501,38.9726607 248.039062,38.0820312 C247.593748,37.0429636 247.000004,35.7070394 246.257812,34.0742188 C245.812498,33.628904 245.515626,33.703122 245.367188,34.296875 L245.367188,55.8945313 C245.070311,57.9726666 243.882823,59.0859368 241.804688,59.234375 L241.136719,59.234375 C239.207022,59.0859368 238.093751,57.9726666 237.796875,55.8945313 L237.796875,40.3085938 C237.648437,39.5664025 237.277347,39.4179665 236.683594,39.8632813 C235.496088,41.7929784 234.234382,43.5742106 232.898438,45.2070313 C232.156246,45.9492225 231.339848,46.0976585 230.449219,45.6523438 C229.558589,44.9101525 229.335935,44.0195364 229.78125,42.9804688 C232.601577,37.1913773 234.753899,31.6992447 236.238281,26.5039063 Z" id="即刻抽奖机" fill="#FFE210"></path>
            </g>
        </g>
    </g>
</svg>