<?xml version="1.0" encoding="UTF-8"?>
<svg width="23px" height="23px" viewBox="0 0 23 23" version="1.1" xmlns="http://www.w3.org/2000/svg" xmlns:xlink="http://www.w3.org/1999/xlink">
    <!-- Generator: Sketch 49.2 (51160) - http://www.bohemiancoding.com/sketch -->
    <title>抽</title>
    <desc>Created with Sketch.</desc>
    <defs></defs>
    <g id="Page-1" stroke="none" stroke-width="1" fill="none" fill-rule="evenodd">
        <g id="着陆页" transform="translate(-183.000000, -376.000000)" fill="#FFFFFF">
            <path d="M195.744,383.256 L195.744,387.408 L197.448,387.408 L197.448,383.256 L195.744,383.256 Z M195.744,390.144 L195.744,394.296 L197.448,394.296 L197.448,390.144 L195.744,390.144 Z M202.224,383.256 L200.472,383.256 L200.472,387.408 L202.224,387.408 L202.224,383.256 Z M200.472,390.144 L200.472,394.296 L202.224,394.296 L202.224,390.144 L200.472,390.144 Z M183.48,388.92 L186.912,387.624 L186.912,383.256 L184.248,383.256 L184.248,380.52 L186.912,380.52 L186.912,376.512 L189.864,376.512 L189.864,380.52 L192.024,380.52 L192.024,383.256 L189.864,383.256 L189.864,386.496 L191.4,385.92 L192.552,388.104 L189.864,389.328 L189.864,394.704 C189.848,397.152012 188.84001,398.392 186.84,398.424 C186.071996,398.424 185.400003,398.392 184.824,398.328 C184.792,397.079994 184.560002,396.064004 184.128,395.28 C184.704003,395.376 185.255997,395.424 185.784,395.424 C186.536004,395.424 186.912,395.104003 186.912,394.464 L186.912,390.648 L184.992,391.536 L183.48,388.92 Z M197.448,376.488 L200.472,376.488 L200.472,380.472 L205.2,380.472 L205.2,398.76 L202.224,398.76 L202.224,397.104 L195.744,397.104 L195.744,398.76 L192.744,398.76 L192.744,380.472 L197.448,380.472 L197.448,376.488 Z" id="抽"></path>
        </g>
    </g>
</svg>