<?xml version="1.0" encoding="UTF-8"?>
<svg width="24px" height="23px" viewBox="0 0 24 23" version="1.1" xmlns="http://www.w3.org/2000/svg" xmlns:xlink="http://www.w3.org/1999/xlink">
    <!-- Generator: Sketch 49.2 (51160) - http://www.bohemiancoding.com/sketch -->
    <title>位</title>
    <desc>Created with Sketch.</desc>
    <defs></defs>
    <g id="Page-1" stroke="none" stroke-width="1" fill="none" fill-rule="evenodd">
        <g id="着陆页" transform="translate(-271.000000, -376.000000)" fill="#FFFFFF">
            <path d="M280.48,385.488 L283.744,385.176 C284.448004,388.168015 284.967998,390.887988 285.304,393.336 L282.112,394.224 C281.775998,391.535987 281.232004,388.624016 280.48,385.488 Z M279.64,381 L285.184,381 C284.735998,379.911995 284.096004,378.568008 283.264,376.968 L286.72,376.248 C287.280003,377.176005 287.927996,378.519991 288.664,380.28 L286.864,381 L293.32,381 L293.32,383.832 L279.64,383.832 L279.64,381 Z M288.544,384.48 L291.928,385.416 C291.095996,388.968018 290.192005,392.207985 289.216,395.136 L294.184,395.136 L294.184,397.968 L278.8,397.968 L278.8,395.136 L286.048,395.136 C287.056005,391.759983 287.887997,388.208019 288.544,384.48 Z M276.736,376.32 L279.76,377.688 C279.119997,379.78401 278.272005,381.79199 277.216,383.712 L277.84,383.712 L277.84,398.76 L274.744,398.76 L274.744,387.408 C274.391998,387.840002 274.008002,388.263998 273.592,388.68 C272.903997,387.687995 272.056005,386.944002 271.048,386.448 C273.704013,383.535985 275.599994,380.160019 276.736,376.32 Z" id="位"></path>
        </g>
    </g>
</svg>