<?xml version="1.0" encoding="utf-8"?>
<!-- Generator: Adobe Illustrator 22.1.0, SVG Export Plug-In . SVG Version: 6.00 Build 0)  -->
<svg version="1.1" id="图层_1" xmlns="http://www.w3.org/2000/svg" xmlns:xlink="http://www.w3.org/1999/xlink" x="0px" y="0px"
	 viewBox="0 0 154 45" style="enable-background:new 0 0 154 45;" xml:space="preserve">
<style type="text/css">
	.st0{fill:#FFFFFF;}
</style>
<title>帮我抽！</title>
<desc>Created with Sketch.</desc>
<g id="Page-1">
	<g id="着陆页" transform="translate(-117.000000, -579.000000)">
		<path id="帮我抽_xFF01_" class="st0" d="M158.5,586.1c0.3,0,0.4,0.2,0.5,0.5c0,0.3,0.2,0.5,0.3,0.5h2.2c0.5,0,0.9-0.2,1.3-0.7
			c0.4-0.5,0.9-0.6,1.5-0.3l3.4,2.5c0.2,0.2,0.2,0.4,0,0.7l-0.3,0.1c-0.7,0.7-1.4,1.3-2,2.1l-0.8,1.3c-0.5,0.7-0.4,1.4,0.3,2.1
			c1.3,1,2,2.3,2.1,3.8c0.3,2.7-1.1,4.2-4.2,4.6c-0.7,0-1.1-0.4-1.4-1.1c-0.3-0.3-0.7-0.5-1.2-0.6s-0.8-0.5-0.9-1
			c0.1-0.6,0.4-0.9,1-1c1.4,0,2.1-0.5,2.2-1.4c0-0.7-0.3-1.3-0.8-2c-0.9-0.9-1.3-2-1-3.4l0.6-1.3c0.2-0.7-0.1-1.2-0.8-1.3
			c-0.9,0.1-1.4,0.6-1.4,1.4v9.8c-0.2,1.3-0.9,2-2.1,2.1h-0.6c-1.3-0.1-2-0.8-2.2-2.1v-13.3c0.2-1.3,0.9-2,2.2-2.1H158.5z
			 M141.6,592.3c0.6-0.1,0.8-0.4,0.8-1s-0.3-0.9-0.8-1h-3.4c-0.9,0-1.5-0.5-1.6-1.4c-0.1-0.9,0.3-1.4,1.2-1.5h3.6c0.7,0,1-0.3,1-1
			c0.1-1,0.7-1.6,1.7-1.7h1.4c0.9,0.1,1.4,0.7,1.5,1.7c0.1,0.7,0.5,1,1.1,1h0.3c0.5,0,0.8-0.2,1.1-0.6c0.4-0.6,0.9-0.7,1.5-0.4
			l1.7,1.3c0.6,0.5,0.7,1,0.4,1.7c-0.5,0.7-1.1,1-1.8,1H148c-0.6,0.1-0.9,0.4-1,1v0.3c0.1,0.4,0.3,0.6,0.7,0.6s0.7-0.1,0.8-0.5
			l0.1-0.1c0.4-0.5,0.9-0.6,1.5-0.3l1.7,1.3c0.6,0.5,0.7,1,0.4,1.7c-0.5,0.7-1.1,1-1.8,1H148c-0.7,0.1-1,0.4-1,1c0,0.6,0.2,1,0.8,1
			h1c0.5,0,0.9-0.2,1.2-0.7c0.3-0.5,0.8-0.6,1.5-0.3l1.7,1.3c0.7,0.5,0.8,1,0.3,1.7c-0.4,0.7-1,1-1.7,1h-4.5c-0.8,0-1.5,0.4-2.1,1.3
			s-1.3,1.7-2.2,2.5c-0.1,0.2,0,0.3,0.3,0.4h0.8c0.1,0,0.1,0.1,0.1,0.2c0,0.1,0,0.2,0.1,0.2h2.8c0.8-0.1,1.3-0.6,1.4-1.5
			c0.1-1.3,0.8-2,2.1-2.1h1c1.3,0.1,2,0.8,2.1,2.1c0.1,0.9,0.6,1.4,1.4,1.5h2.8c0.6,0,1-0.3,1.3-0.8c0.6-0.7,1.2-0.8,1.8-0.6
			l3.2,1.7c0.6,0.5,0.7,1,0.4,1.7c-0.4,0.5-0.6,0.9-0.6,1.4v3.8c0.2,2.3-1,3.6-3.6,3.9c-0.7-0.1-1.3-0.5-1.8-1.3
			c-0.2-0.3-0.7-0.5-1.4-0.6c-0.7-0.1-1.1-0.5-1.2-1.1c0-0.7,0.2-1,0.8-1.1c1.9,0.1,2.7-0.4,2.4-1.5v-0.7c-0.1-0.8-0.6-1.3-1.4-1.4
			H155c-0.8,0.1-1.3,0.6-1.4,1.4v6.4c-0.1,1.3-0.8,2-2.1,2.1h-1c-1.3-0.1-2-0.8-2.1-2.1v-6.4c-0.1-0.8-0.6-1.3-1.4-1.4h-1.5
			c-0.8,0.1-1.3,0.6-1.4,1.4v4.3c-0.1,1.3-0.8,2-2.1,2.1h-0.7c-1.3-0.1-2-0.8-2.1-2.1v-6.8c0-0.3-0.1-0.4-0.4-0.3
			c-0.5,0.2-0.9,0.1-1.4-0.1l-0.4-0.4c-0.5-0.6-0.4-1.1,0.1-1.5c1.1-1,2-2.1,2.8-3.4c0.4-0.7,0.2-1-0.6-1.1h-1.5
			c-0.9-0.1-1.5-0.6-1.8-1.5c0-0.8,0.4-1.3,1.3-1.4h3.5c0.7-0.1,1.2-0.5,1.4-1.1c0-0.6-0.3-0.9-1-1h-1.7c-0.9-0.1-1.5-0.6-1.8-1.5
			c0-0.8,0.4-1.3,1.3-1.4H141.6z M200.2,588.2c0.4,0.2,0.5,0.6,0.3,1.3c-0.2,1-0.5,1.9-1,2.7c-0.5,0.7-1,0.8-1.5,0.1
			c-0.9-1.1-2-2.3-3.2-3.5c-0.4-0.4-0.4-0.8-0.1-1.3s0.7-0.7,1.4-0.5C197.7,587.4,199.1,587.8,200.2,588.2z M176.5,603.5
			c0.8-0.2,1.3-0.7,1.4-1.7v-2.1c-0.1-0.9-0.6-1.4-1.5-1.5h-3.5c-1,0-1.7-0.5-2.1-1.5c-0.1-0.9,0.3-1.5,1.3-1.7h4.3
			c0.9,0,1.4-0.5,1.5-1.4v-1c-0.1-0.8-0.6-1.3-1.5-1.4c-1,0.1-2,0.1-2.9,0.1c-0.9,0-1.4-0.4-1.6-1.2c-0.2-0.8,0.1-1.3,0.8-1.5
			c3.8-0.5,7.4-1.2,10.8-2.1c1.3-0.3,2.3,0.1,3.1,1.3l0.3,0.4c0.4,1.1,0,1.9-1.1,2.2c-0.6,0.1-1.2,0.1-2,0.1
			c-0.8,0.2-1.3,0.7-1.3,1.5v1.4c0.1,0.9,0.6,1.4,1.4,1.4h3.4c0.8,0,1.3-0.5,1.4-1.4v-6.3c0.2-1.3,0.9-2,2.2-2.1h0.4
			c1.2,0.1,1.9,0.8,2.1,2.1v6.3c0.1,0.9,0.6,1.4,1.4,1.4h1.4c0.7,0,1.3-0.2,1.7-0.7c0.7-0.7,1.3-0.7,2.1-0.3l2,1.7
			c0.6,0.5,0.7,1,0.3,1.6c-0.3,0.6-0.9,0.9-1.6,0.9h-5.9c-0.8,0.1-1.3,0.6-1.3,1.4s0,1.6,0.1,2.2c0.2,0.5,0.5,0.5,0.8,0.1
			c0.1-0.2,0.1-0.4,0.1-0.6c0.7-1,1.7-1.3,2.8-0.8l0.8,0.4c1,0.7,1.3,1.7,0.7,2.8c-0.8,1.5-1.8,2.8-2.9,4c-0.6,0.7-0.7,1.5-0.3,2.4
			c0.7,1,1.3,1.5,1.7,1.5c0.7,0,1.2-0.4,1.5-1.3c0.2-0.4,0.3-0.8,0.4-1.3c0.3-0.6,0.7-0.7,1.4-0.5c0.7,0.2,0.9,0.7,0.8,1.3
			c-0.2,0.8-0.2,1.4,0,1.8c0.6,1.3,0.7,2.5,0.4,3.5c-1,1.5-2.2,2.2-3.6,2.2c-2.3,0-4.4-1.3-6.3-3.9c-0.5-0.7-1.1-0.8-1.8-0.4
			c-1.5,1-3.1,2-4.9,2.9c-0.7,0.4-1.4,0.2-2.1-0.4c-0.4-0.7-0.3-1.3,0.3-1.8c2-1.4,3.9-2.9,5.4-4.5c0.7-0.7,0.9-1.5,0.7-2.4
			c-0.4-2.1-0.7-4.6-0.8-7.4c-0.1-0.9-0.6-1.4-1.5-1.5h-3.5c-0.8,0.1-1.3,0.6-1.4,1.5v1.4c0.1,0.8,0.6,1.3,1.4,1.3l2-0.3
			c0.7-0.1,1.3,0.2,1.5,1c0.1,0.7-0.3,1.3-1,1.7c-0.8,0.4-1.6,0.7-2.5,1c-0.9,0.3-1.3,0.9-1.3,1.7v6.6c0.1,2-1.4,3.3-4.5,3.8
			c-0.8-0.1-1.5-0.6-2-1.4c-0.4-0.5-1-0.8-1.8-1.1c-0.7-0.2-1-0.6-1-1.3c0-0.7,0.3-1,0.9-1h2.2c1,0.1,1.5-0.3,1.5-1.3v-2.9
			c-0.2-0.7-0.7-1.1-1.4-1c-1.1,0.3-2.2,0.6-3.2,0.8c-1.3,0.2-2.1-0.4-2.5-1.7l-0.3-0.8c-0.3-1.2,0.2-1.9,1.5-2.2
			C173.3,603.9,174.8,603.6,176.5,603.5z M230.4,599.7c0,0.8,0.4,1.3,1.2,1.3c0.8,0,1.2-0.4,1.3-1.3v-3.6c-0.1-0.8-0.5-1.3-1.3-1.3
			c-0.8,0-1.2,0.4-1.2,1.3V599.7z M222.8,599.7c0.1,0.8,0.6,1.3,1.4,1.3c0.8,0,1.3-0.4,1.3-1.3v-3.6c0-0.8-0.4-1.3-1.3-1.3
			c-0.8,0-1.3,0.4-1.4,1.3V599.7z M230.4,610.7c0,0.7,0.4,1.2,1.3,1.3c0.7-0.1,1.2-0.5,1.3-1.3v-5c-0.1-0.7-0.5-1.2-1.3-1.3
			c-0.8,0.1-1.3,0.5-1.3,1.3V610.7z M222.8,610.7c0.1,0.7,0.6,1.2,1.4,1.3c0.8-0.1,1.3-0.5,1.3-1.3v-5c0-0.7-0.4-1.2-1.3-1.3
			c-0.8,0.1-1.3,0.5-1.4,1.3V610.7z M222.3,590.3c0.4,0.1,0.6,0.3,0.6,0.7c0.1,0.2,0.2,0.3,0.4,0.4h1c0.8-0.1,1.3-0.6,1.3-1.4v-3.4
			c0.2-1.3,0.9-2,2.1-2.1h0.6c1.3,0.1,2,0.8,2.2,2.1v3.5c0,0.7,0.4,1.2,1.1,1.3h0.3c0.6-0.1,1-0.4,1.4-0.8c0.5-0.7,1.1-0.9,1.8-0.6
			l2.7,1.5c0.7,0.5,0.9,1.1,0.6,1.8c-0.4,0.6-0.6,1.1-0.6,1.7v20.7c-0.1,1.2-0.8,1.9-2.1,2.1h-1.1c-0.9-0.1-1.4-0.6-1.5-1.5
			c0-0.6-0.3-0.9-1-1h-8c-0.7,0.1-1,0.4-1.1,1c0,0.9-0.5,1.4-1.4,1.5h-1c-1.3-0.2-2-0.9-2.2-2.1v-21.2c0-0.2-0.1-0.2-0.3,0
			c-0.4,0.5-0.8,0.7-1.4,0.7h-0.8c-0.7,0.1-1,0.5-1,1.1v2.7c0.1,0.7,0.5,1.1,1.1,1l0.6-0.3c0.7-0.1,1.1,0.2,1.3,0.8
			c0,0.8-0.3,1.4-1,1.8c-0.3,0.2-0.6,0.3-0.8,0.4c-0.7,0.5-1.1,1.1-1.1,2v9.4c0.2,2.4-1.1,3.9-3.8,4.3c-0.9,0-1.7-0.5-2.2-1.4
			c-0.3-0.4-0.7-0.6-1.4-0.8c-0.7-0.1-1.1-0.5-1.3-1.2c0-0.7,0.3-1,1-1.1c2.1,0.1,3.1-0.4,2.8-1.4v-5.7c-0.1-0.7-0.5-0.9-1.1-0.7
			c-1.2,0.3-2.1-0.1-2.7-1.3v-0.3c-0.3-1.3,0.2-2.1,1.4-2.5l1.1-0.3c0.8-0.3,1.3-0.9,1.3-1.8v-3.4c0-0.8-0.5-1.3-1.4-1.4H208
			c-1-0.1-1.7-0.7-2-1.7c-0.1-1,0.4-1.6,1.4-1.7h1c0.9-0.1,1.4-0.6,1.4-1.4v-3.8c0.2-1.3,0.9-2,2.2-2.1h0.4c1.3,0.1,2,0.8,2.2,2.1
			v5.2l0.3-0.6c0.4-0.4,0.7-0.4,1.1-0.1l1.4,1c0.4,0.2,0.6,0,0.7-0.4c0.1-0.8,0.6-1.3,1.5-1.4H222.3z M246,613.4
			c0.2-1.8,1.2-2.7,2.9-2.9c1.9,0.2,2.9,1.2,3.1,2.9c-0.2,1.9-1.2,2.8-3.1,2.9C247.2,616.2,246.2,615.2,246,613.4z M248.9,608.2
			c-0.7,0-1-0.4-1.1-1.1l-1.5-9.2c-0.2-1.1-0.3-2.1-0.3-2.9c0-2.5,1-3.8,2.9-3.9c2,0.1,3.1,1.4,3.1,3.9c0,0.8-0.1,1.8-0.3,2.9
			l-1.5,9.2C250.1,607.8,249.7,608.2,248.9,608.2z"/>
	</g>
</g>
</svg>
