<?xml version="1.0" encoding="UTF-8"?>
<svg width="342px" height="25px" viewBox="0 0 342 25" version="1.1" xmlns="http://www.w3.org/2000/svg" xmlns:xlink="http://www.w3.org/1999/xlink">
    <!-- Generator: Sketch 49.2 (51160) - http://www.bohemiancoding.com/sketch -->
    <title>resultbg</title>
    <desc>Created with Sketch.</desc>
    <defs>
        <path d="M259.246424,601 L243.753576,601 C242.032478,595.217022 236.675375,591 230.333333,591 C223.991292,591 218.634189,595.217022 216.913091,601 L201.420243,601 C199.699144,595.217022 194.342041,591 188,591 C181.657959,591 176.300856,595.217022 174.579757,601 L159.086909,601 C157.365811,595.217022 152.008708,591 145.666667,591 C139.324625,591 133.967522,595.217022 132.246424,601 L116.753576,601 C115.032478,595.217022 109.675375,591 103.333333,591 C96.9912921,591 91.6341891,595.217022 89.9130907,601 L74.4202426,601 C72.6991443,595.217022 67.3420413,591 61,591 C54.6579587,591 49.3008557,595.217022 47.5797574,601 L27,601 L27,38 L47.9192576,38 C49.9321022,43.2627404 55.0296092,47 61,47 C66.9703908,47 72.0678978,43.2627404 74.0807424,38 L90.252591,38 C92.2654356,43.2627404 97.3629426,47 103.333333,47 C109.303724,47 114.401231,43.2627404 116.414076,38 L132.585924,38 C134.598769,43.2627404 139.696276,47 145.666667,47 C151.637057,47 156.734564,43.2627404 158.747409,38 L174.919258,38 C176.932102,43.2627404 182.029609,47 188,47 C193.970391,47 199.067898,43.2627404 201.080742,38 L217.252591,38 C219.265436,43.2627404 224.362943,47 230.333333,47 C236.303724,47 241.401231,43.2627404 243.414076,38 L259.585924,38 C261.598769,43.2627404 266.696276,47 272.666667,47 C278.637057,47 283.734564,43.2627404 285.747409,38 L301.919258,38 C303.932102,43.2627404 309.029609,47 315,47 C320.970391,47 326.067898,43.2627404 328.080742,38 L348,38 L348,601 L328.420243,601 C326.699144,595.217022 321.342041,591 315,591 C308.657959,591 303.300856,595.217022 301.579757,601 L286.086909,601 C284.365811,595.217022 279.008708,591 272.666667,591 C266.324625,591 260.967522,595.217022 259.246424,601 Z" id="path-1"></path>
    </defs>
    <g id="Page-1" stroke="none" stroke-width="1" fill="none" fill-rule="evenodd">
        <g id="结果页" transform="translate(-17.000000, -197.000000)">
            <g id="Combined-Shape">
                <use fill="#FFFFFF" fill-rule="evenodd" xlink:href="#path-1"></use>
                <path stroke="#FFE210" stroke-width="8" d="M256.537214,597 C259.518677,590.989321 265.702507,587 272.666667,587 C279.630826,587 285.814656,590.989321 288.796119,597 L298.870548,597 C301.852011,590.989321 308.035841,587 315,587 C321.964159,587 328.147989,590.989321 331.129452,597 L344,597 L344,42 L330.592508,42 C327.433205,47.4712546 321.547643,51 315,51 C308.452357,51 302.566795,47.4712546 299.407492,42 L288.259174,42 C285.099871,47.4712546 279.214309,51 272.666667,51 C266.119024,51 260.233462,47.4712546 257.074159,42 L245.925841,42 C242.766538,47.4712546 236.880976,51 230.333333,51 C223.785691,51 217.900129,47.4712546 214.740826,42 L203.592508,42 C200.433205,47.4712546 194.547643,51 188,51 C181.452357,51 175.566795,47.4712546 172.407492,42 L161.259174,42 C158.099871,47.4712546 152.214309,51 145.666667,51 C139.119024,51 133.233462,47.4712546 130.074159,42 L118.925841,42 C115.766538,47.4712546 109.880976,51 103.333333,51 C96.7856907,51 90.9001288,47.4712546 87.7408256,42 L76.5925078,42 C73.4332046,47.4712546 67.5476426,51 61,51 C54.4523574,51 48.5667954,47.4712546 45.4074922,42 L31,42 L31,597 L44.8705478,597 C47.8520107,590.989321 54.0358407,587 61,587 C67.9641593,587 74.1479893,590.989321 77.1294522,597 L87.2038811,597 C90.1853441,590.989321 96.369174,587 103.333333,587 C110.297493,587 116.481323,590.989321 119.462786,597 L129.537214,597 C132.518677,590.989321 138.702507,587 145.666667,587 C152.630826,587 158.814656,590.989321 161.796119,597 L171.870548,597 C174.852011,590.989321 181.035841,587 188,587 C194.964159,587 201.147989,590.989321 204.129452,597 L214.203881,597 C217.185344,590.989321 223.369174,587 230.333333,587 C237.297493,587 243.481323,590.989321 246.462786,597 L256.537214,597 Z"></path>
            </g>
        </g>
    </g>
</svg>