<?xml version="1.0" encoding="UTF-8"?>
<svg width="342px" height="76px" viewBox="0 0 342 76" version="1.1" xmlns="http://www.w3.org/2000/svg" xmlns:xlink="http://www.w3.org/1999/xlink">
    <!-- Generator: Sketch 49.2 (51160) - http://www.bohemiancoding.com/sketch -->
    <title>resultbu</title>
    <desc>Created with Sketch.</desc>
    <defs>
        <path d="M259.246424,601 L243.753576,601 C242.032478,595.217022 236.675375,591 230.333333,591 C223.991292,591 218.634189,595.217022 216.913091,601 L201.420243,601 C199.699144,595.217022 194.342041,591 188,591 C181.657959,591 176.300856,595.217022 174.579757,601 L159.086909,601 C157.365811,595.217022 152.008708,591 145.666667,591 C139.324625,591 133.967522,595.217022 132.246424,601 L116.753576,601 C115.032478,595.217022 109.675375,591 103.333333,591 C96.9912921,591 91.6341891,595.217022 89.9130907,601 L74.4202426,601 C72.6991443,595.217022 67.3420413,591 61,591 C54.6579587,591 49.3008557,595.217022 47.5797574,601 L27,601 L27,38 L47.9192576,38 C49.9321022,43.2627404 55.0296092,47 61,47 C66.9703908,47 72.0678978,43.2627404 74.0807424,38 L90.252591,38 C92.2654356,43.2627404 97.3629426,47 103.333333,47 C109.303724,47 114.401231,43.2627404 116.414076,38 L132.585924,38 C134.598769,43.2627404 139.696276,47 145.666667,47 C151.637057,47 156.734564,43.2627404 158.747409,38 L174.919258,38 C176.932102,43.2627404 182.029609,47 188,47 C193.970391,47 199.067898,43.2627404 201.080742,38 L217.252591,38 C219.265436,43.2627404 224.362943,47 230.333333,47 C236.303724,47 241.401231,43.2627404 243.414076,38 L259.585924,38 C261.598769,43.2627404 266.696276,47 272.666667,47 C278.637057,47 283.734564,43.2627404 285.747409,38 L301.919258,38 C303.932102,43.2627404 309.029609,47 315,47 C320.970391,47 326.067898,43.2627404 328.080742,38 L348,38 L348,601 L328.420243,601 C326.699144,595.217022 321.342041,591 315,591 C308.657959,591 303.300856,595.217022 301.579757,601 L286.086909,601 C284.365811,595.217022 279.008708,591 272.666667,591 C266.324625,591 260.967522,595.217022 259.246424,601 Z" id="path-1"></path>
    </defs>
    <g id="Page-1" stroke="none" stroke-width="1" fill="none" fill-rule="evenodd">
        <g id="结果页" transform="translate(-17.000000, -527.000000)">
            <g id="Combined-Shape">
                <use fill="#FFFFFF" fill-rule="evenodd" xlink:href="#path-1"></use>
                <path stroke="#FFE210" stroke-width="8" d="M256.537214,597 C259.518677,590.989321 265.702507,587 272.666667,587 C279.630826,587 285.814656,590.989321 288.796119,597 L298.870548,597 C301.852011,590.989321 308.035841,587 315,587 C321.964159,587 328.147989,590.989321 331.129452,597 L344,597 L344,42 L330.592508,42 C327.433205,47.4712546 321.547643,51 315,51 C308.452357,51 302.566795,47.4712546 299.407492,42 L288.259174,42 C285.099871,47.4712546 279.214309,51 272.666667,51 C266.119024,51 260.233462,47.4712546 257.074159,42 L245.925841,42 C242.766538,47.4712546 236.880976,51 230.333333,51 C223.785691,51 217.900129,47.4712546 214.740826,42 L203.592508,42 C200.433205,47.4712546 194.547643,51 188,51 C181.452357,51 175.566795,47.4712546 172.407492,42 L161.259174,42 C158.099871,47.4712546 152.214309,51 145.666667,51 C139.119024,51 133.233462,47.4712546 130.074159,42 L118.925841,42 C115.766538,47.4712546 109.880976,51 103.333333,51 C96.7856907,51 90.9001288,47.4712546 87.7408256,42 L76.5925078,42 C73.4332046,47.4712546 67.5476426,51 61,51 C54.4523574,51 48.5667954,47.4712546 45.4074922,42 L31,42 L31,597 L44.8705478,597 C47.8520107,590.989321 54.0358407,587 61,587 C67.9641593,587 74.1479893,590.989321 77.1294522,597 L87.2038811,597 C90.1853441,590.989321 96.369174,587 103.333333,587 C110.297493,587 116.481323,590.989321 119.462786,597 L129.537214,597 C132.518677,590.989321 138.702507,587 145.666667,587 C152.630826,587 158.814656,590.989321 161.796119,597 L171.870548,597 C174.852011,590.989321 181.035841,587 188,587 C194.964159,587 201.147989,590.989321 204.129452,597 L214.203881,597 C217.185344,590.989321 223.369174,587 230.333333,587 C237.297493,587 243.481323,590.989321 246.462786,597 L256.537214,597 Z"></path>
            </g>
            <path d="M119,543 C122.020833,537.666667 126.854167,535 133.5,535 C140.145833,535 144.979167,537.666667 148,543" id="Path-3" stroke="#0230C5" stroke-width="7.2" stroke-linecap="round" stroke-linejoin="round" transform="translate(133.500000, 539.000000) scale(1, -1) translate(-133.500000, -539.000000) "></path>
            <path d="M298.5,553.5 C301.520833,548.166667 306.354167,545.5 313,545.5 C319.645833,545.5 324.479167,548.166667 327.5,553.5" id="Path-3" stroke="#1FDDD7" stroke-width="7.2" stroke-linecap="round" stroke-linejoin="round" transform="translate(313.000000, 549.500000) scale(1, -1) rotate(-90.000000) translate(-313.000000, -549.500000) "></path>
            <polygon id="Triangle" stroke="#E40B5F" stroke-width="6.3" stroke-linecap="round" stroke-linejoin="round" points="37.5 566 23 540 52 540"></polygon>
            <circle id="Oval-3" fill="#FFE210" cx="93" cy="548" r="5"></circle>
            <circle id="Oval-3" fill="#1FDDD7" cx="201" cy="578" r="5"></circle>
            <path d="M333,564 L353,584" id="Path-4" stroke="#E40B5F" stroke-width="8.1" stroke-linecap="round" stroke-linejoin="round"></path>
            <circle id="Oval" stroke="#FFE210" stroke-width="7.2" cx="226.5" cy="557.5" r="12.5"></circle>
            <path d="M76,568 L76,597" id="Path-4" stroke="#1FDDD7" stroke-width="8.1" stroke-linecap="round" stroke-linejoin="round"></path>
            <path d="M71.8593746,557.076954 L71.8593746,566.366797 C72.0570319,570.254056 69.9487197,572.164714 65.5343748,572.098828 C63.953117,572.098828 62.6848354,571.719991 61.7294921,570.962305 C60.7741488,570.204619 60.2964844,569.265761 60.2964844,568.145703 C60.2964844,566.432674 61.1200438,565.510287 62.7671874,565.378516 C64.0849023,565.378516 64.842577,566.103248 65.0402342,567.552735 C65.0402342,568.738678 64.414329,569.397525 63.1624999,569.529297 L62.9648437,569.529297 C62.5036435,569.595183 62.3389316,569.792837 62.4707031,570.122266 C63.1954462,570.649352 63.9531209,570.912891 64.7437499,570.912891 C66.5885507,570.912891 67.5438797,570.056389 67.6097654,568.343359 L67.6097654,557.076954 C67.7415369,555.956896 67.0497469,555.396876 65.5343748,555.396876 C65.2049461,555.396876 65.0402342,555.232164 65.0402342,554.902735 C65.0402342,554.573306 65.2049461,554.408594 65.5343748,554.408594 L73.737109,554.408594 C74.0665377,554.408594 74.2312496,554.573306 74.2312496,554.902735 C74.2312496,555.232164 74.0665377,555.396876 73.737109,555.396876 C72.4193941,555.462761 71.7934889,556.022782 71.8593746,557.076954 Z M83.9164055,571.802344 L75.8124995,571.802344 C75.4830708,571.802344 75.2854165,571.637632 75.2195308,571.308203 C75.2854165,570.978774 75.4830708,570.814063 75.8124995,570.814063 C77.1961001,570.814063 77.8549477,570.254042 77.789062,569.133984 L77.789062,557.076954 C77.8549477,556.022782 77.1961001,555.462761 75.8124995,555.396876 C75.4830708,555.396876 75.2854165,555.232164 75.2195308,554.902735 C75.2854165,554.573306 75.4830708,554.408594 75.8124995,554.408594 L83.9164055,554.408594 C84.2458342,554.408594 84.4434885,554.573306 84.5093743,554.902735 C84.4434885,555.232164 84.2787766,555.396876 84.0152337,555.396876 C82.5657473,555.462761 81.9068997,556.022782 82.0386712,557.076954 L82.0386712,569.133984 C81.9068997,570.254042 82.5657473,570.814063 84.0152337,570.814063 C84.2787766,570.814063 84.4434885,570.978774 84.5093743,571.308203 C84.4434885,571.637632 84.2458342,571.802344 83.9164055,571.802344 Z M85.892968,554.902735 C85.892968,554.573306 86.0576799,554.408594 86.3871086,554.408594 L94.1945302,554.408594 C94.4580732,554.408594 94.6227851,554.573306 94.6886708,554.902735 C94.6227851,555.166278 94.4580732,555.33099 94.1945302,555.396876 C93.0744726,555.462761 92.5473945,556.022782 92.6132803,557.076954 L92.6132803,561.524219 C92.679166,561.919534 92.9097627,562.018361 93.3050771,561.820703 L97.8511707,557.27461 C98.2464852,556.945181 98.4441395,556.582815 98.4441395,556.1875 C98.5100252,555.660415 98.0817743,555.396876 97.1593739,555.396876 L96.7640614,555.396876 C96.5005184,555.33099 96.3358065,555.166278 96.2699208,554.902735 C96.3358065,554.573306 96.5005184,554.408594 96.7640614,554.408594 L103.286717,554.408594 C103.616146,554.408594 103.780858,554.573306 103.780858,554.902735 C103.780858,555.232164 103.616146,555.429818 103.286717,555.495704 C102.561974,555.561589 102.018425,555.676888 101.656053,555.841602 C101.293682,556.006316 100.881902,556.319269 100.420702,556.780469 L97.258202,559.745313 C96.7970018,560.272399 96.731117,560.799477 97.0605458,561.326563 L102.10078,569.726953 C102.430209,570.319925 103.089056,570.682291 104.077342,570.814063 C104.340885,570.814063 104.505597,570.978774 104.571483,571.308203 C104.505597,571.571746 104.307943,571.736458 103.978514,571.802344 L96.3687489,571.802344 C96.1052059,571.736458 95.9569652,571.555275 95.9240224,571.258789 C95.8910795,570.962303 96.0393202,570.78112 96.3687489,570.715234 C96.9617206,570.649349 97.258202,570.484637 97.258202,570.221094 C97.3240877,570.155208 97.1593759,569.7599 96.7640614,569.035156 C96.3687469,568.310413 95.3804756,566.59741 93.7992177,563.896094 C93.6015605,563.632551 93.3544927,563.61608 93.0580068,563.84668 C92.761521,564.07728 92.6132803,564.423175 92.6132803,564.884375 L92.6132803,569.133984 C92.6132803,570.188156 93.0415312,570.715234 93.8980459,570.715234 C94.2274746,570.78112 94.3921865,570.962303 94.3921865,571.258789 C94.3921865,571.555275 94.2274746,571.736458 93.8980459,571.802344 L86.3871086,571.802344 C86.0576799,571.736458 85.892968,571.555275 85.892968,571.258789 C85.892968,570.962303 86.0576799,570.814063 86.3871086,570.814063 C87.7707092,570.748177 88.4295568,570.188156 88.363671,569.133984 L88.363671,557.076954 C88.4295568,555.956896 87.7707092,555.396876 86.3871086,555.396876 C86.0576799,555.33099 85.892968,555.166278 85.892968,554.902735 Z M120.581639,555.989844 L120.680467,560.140625 C120.680467,560.470054 120.515755,560.634766 120.186326,560.634766 C119.856898,560.634766 119.626301,560.470054 119.494529,560.140625 C118.506243,557.109881 116.595585,555.594532 113.762498,555.594532 C112.247126,555.528646 111.522394,556.088666 111.58828,557.27461 L111.58828,561.128907 C111.654165,561.787764 111.983589,562.117188 112.576561,562.117188 C114.026047,562.051302 114.981376,561.227743 115.442576,559.646485 C115.574348,559.382942 115.788473,559.251172 116.084959,559.251172 C116.381445,559.251172 116.562628,559.415884 116.628514,559.745313 L116.628514,565.773828 C116.562628,566.037371 116.397916,566.202083 116.134373,566.267969 C115.804945,566.202083 115.574348,566.037371 115.442576,565.773828 C114.981376,564.258456 114.05899,563.467839 112.675389,563.401953 C112.016532,563.401953 111.654165,563.698435 111.58828,564.291406 L111.58828,569.035156 C111.522394,570.2211 112.247126,570.78112 113.762498,570.715234 C116.9909,570.517577 119.033327,568.870458 119.889842,565.773828 C120.021613,565.4444 120.25221,565.279688 120.581639,565.279688 C120.911068,565.279688 121.075779,565.4444 121.075779,565.773828 L120.976951,570.319922 C120.911066,571.242322 120.41693,571.7694 119.494529,571.901172 L105.362108,571.901172 C105.098565,571.835286 104.933853,571.637632 104.867967,571.308203 C104.933853,571.04466 105.098565,570.879948 105.362108,570.814063 C106.811594,570.814063 107.470442,570.254042 107.33867,569.133984 L107.33867,557.175782 C107.470442,556.055724 106.811594,555.495704 105.362108,555.495704 C105.098565,555.429818 104.933853,555.265106 104.867967,555.001563 C104.933853,554.672134 105.098565,554.47448 105.362108,554.408594 L119.099217,554.408594 C120.021617,554.540366 120.515753,555.067444 120.581639,555.989844 Z M143.509763,571.802344 L130.859763,571.802344 C130.596221,571.736458 130.431509,571.571746 130.365623,571.308203 C130.431509,570.978774 130.596221,570.78112 130.859763,570.715234 C132.30925,570.715234 132.968097,570.188156 132.836326,569.133984 L132.836326,557.076954 C132.968097,555.956896 132.30925,555.396876 130.859763,555.396876 C130.596221,555.33099 130.431509,555.166278 130.365623,554.902735 C130.431509,554.573306 130.596221,554.375652 130.859763,554.309766 L139.062498,554.309766 C139.391926,554.375652 139.589581,554.573306 139.655466,554.902735 C139.589581,555.166278 139.391926,555.33099 139.062498,555.396876 C137.678897,555.396876 137.020049,555.956896 137.085935,557.076954 L137.085935,569.035156 C137.085935,570.155214 137.678898,570.698763 138.864841,570.66582 C140.050785,570.632877 141.08847,570.122271 141.977927,569.133984 C142.867385,568.145698 143.509761,566.992715 143.905076,565.675 C144.036847,565.345571 144.267444,565.147917 144.596872,565.082031 C144.926301,565.147917 145.091013,565.345571 145.091013,565.675 L144.992185,570.319922 C144.926299,571.242322 144.432164,571.736458 143.509763,571.802344 Z M151.514841,563.105469 C151.448955,568.178671 152.832535,570.781119 155.665622,570.912891 C158.498709,570.781119 159.882289,568.178671 159.816403,563.105469 C159.882289,558.032267 158.498709,555.429819 155.665622,555.298047 C152.832535,555.429819 151.448955,558.032267 151.514841,563.105469 Z M146.869919,561.623047 C147.331119,559.514703 148.368804,557.752286 149.983005,556.335743 C151.597206,554.919199 153.491393,554.177996 155.665622,554.11211 C158.103395,554.177996 160.178764,555.06744 161.891794,556.780469 C163.604823,558.493499 164.494267,560.601811 164.560153,563.105469 C164.494267,565.609127 163.604823,567.717439 161.891794,569.430469 C160.178764,571.143498 158.103395,572.032942 155.665622,572.098828 C153.491393,572.032942 151.597206,571.30821 149.983005,569.924609 C148.368804,568.541009 147.331119,566.76212 146.869919,564.587891 C146.738148,563.599605 146.738148,562.611333 146.869919,561.623047 Z M167.524997,554.408594 L180.866793,554.408594 C181.723308,554.47448 182.217444,554.968616 182.349215,555.891016 L182.349215,560.041797 C182.349215,560.371226 182.184503,560.56888 181.855074,560.634766 C181.45976,560.56888 181.196221,560.371226 181.064449,560.041797 C180.471478,557.604025 179.219667,556.15456 177.308981,555.69336 C176.716009,555.69336 176.386585,555.989841 176.3207,556.582813 L176.3207,569.133984 C176.188928,570.254042 176.946603,570.814063 178.593746,570.814063 C178.857289,570.879948 179.022001,571.04466 179.087887,571.308203 C179.022001,571.637632 178.857289,571.802344 178.593746,571.802344 L169.699215,571.802344 C169.369787,571.802344 169.205075,571.654103 169.205075,571.357617 C169.205075,571.061131 169.369787,570.879948 169.699215,570.814063 C171.412245,570.814063 172.202862,570.254042 172.07109,569.133984 L172.07109,556.582813 C172.005205,555.989841 171.675781,555.69336 171.082809,555.69336 C169.106237,556.220446 167.821484,557.66991 167.228512,560.041797 C167.096741,560.371226 166.866144,560.56888 166.536716,560.634766 C166.141401,560.56888 165.943747,560.371226 165.943747,560.041797 L166.042575,555.891016 C166.108461,554.968616 166.602596,554.47448 167.524997,554.408594 Z M184.819918,554.408594 L198.161715,554.408594 C199.018229,554.47448 199.512365,554.968616 199.644136,555.891016 L199.644136,560.041797 C199.644136,560.371226 199.479425,560.56888 199.149996,560.634766 C198.754681,560.56888 198.491142,560.371226 198.359371,560.041797 C197.766399,557.604025 196.514589,556.15456 194.603902,555.69336 C194.01093,555.69336 193.681507,555.989841 193.615621,556.582813 L193.615621,569.133984 C193.483849,570.254042 194.241524,570.814063 195.888668,570.814063 C196.152211,570.879948 196.316923,571.04466 196.382808,571.308203 C196.316923,571.637632 196.152211,571.802344 195.888668,571.802344 L186.994137,571.802344 C186.664708,571.802344 186.499996,571.654103 186.499996,571.357617 C186.499996,571.061131 186.664708,570.879948 186.994137,570.814063 C188.707166,570.814063 189.497783,570.254042 189.366012,569.133984 L189.366012,556.582813 C189.300126,555.989841 188.970702,555.69336 188.377731,555.69336 C186.401158,556.220446 185.116405,557.66991 184.523434,560.041797 C184.391662,560.371226 184.161066,560.56888 183.831637,560.634766 C183.436322,560.56888 183.238668,560.371226 183.238668,560.041797 L183.337496,555.891016 C183.403382,554.968616 183.897518,554.47448 184.819918,554.408594 Z M216.247261,555.989844 L216.346089,560.140625 C216.346089,560.470054 216.181377,560.634766 215.851948,560.634766 C215.52252,560.634766 215.291923,560.470054 215.160152,560.140625 C214.171865,557.109881 212.261207,555.594532 209.42812,555.594532 C207.912748,555.528646 207.188016,556.088666 207.253902,557.27461 L207.253902,561.128907 C207.319788,561.787764 207.649211,562.117188 208.242183,562.117188 C209.691669,562.051302 210.646998,561.227743 211.108199,559.646485 C211.23997,559.382942 211.454096,559.251172 211.750581,559.251172 C212.047067,559.251172 212.22825,559.415884 212.294136,559.745313 L212.294136,565.773828 C212.22825,566.037371 212.063538,566.202083 211.799995,566.267969 C211.470567,566.202083 211.23997,566.037371 211.108199,565.773828 C210.646998,564.258456 209.724612,563.467839 208.341011,563.401953 C207.682154,563.401953 207.319788,563.698435 207.253902,564.291406 L207.253902,569.035156 C207.188016,570.2211 207.912748,570.78112 209.42812,570.715234 C212.656522,570.517577 214.698949,568.870458 215.555464,565.773828 C215.687236,565.4444 215.917832,565.279688 216.247261,565.279688 C216.57669,565.279688 216.741402,565.4444 216.741402,565.773828 L216.642573,570.319922 C216.576688,571.242322 216.082552,571.7694 215.160152,571.901172 L201.02773,571.901172 C200.764187,571.835286 200.599475,571.637632 200.53359,571.308203 C200.599475,571.04466 200.764187,570.879948 201.02773,570.814063 C202.477216,570.814063 203.136064,570.254042 203.004293,569.133984 L203.004293,557.175782 C203.136064,556.055724 202.477216,555.495704 201.02773,555.495704 C200.764187,555.429818 200.599475,555.265106 200.53359,555.001563 C200.599475,554.672134 200.764187,554.47448 201.02773,554.408594 L214.764839,554.408594 C215.68724,554.540366 216.181375,555.067444 216.247261,555.989844 Z M225.339448,557.076954 L225.339448,561.623047 C225.405334,562.216019 225.734758,562.5125 226.327729,562.5125 C228.567845,562.578386 229.720828,561.458345 229.786714,559.152344 C229.720828,556.912229 228.798441,555.726303 227.019526,555.594532 C226.03124,555.528646 225.47122,556.022782 225.339448,557.076954 Z M235.321088,567.948047 C235.650517,568.013933 235.815229,568.211587 235.815229,568.541016 C235.749343,570.847017 234.530475,572.032942 232.158589,572.098828 C229.65493,572.164714 228.40312,570.715249 228.40312,567.750391 C228.337234,566.498562 228.188993,565.559704 227.958393,564.933789 C227.727793,564.307875 227.184244,563.896095 226.327729,563.698438 C225.734758,563.632552 225.405334,563.896091 225.339448,564.489063 L225.339448,568.8375 C225.141791,570.089329 225.800638,570.748177 227.316011,570.814063 C227.579554,570.879948 227.744265,571.04466 227.810151,571.308203 C227.744265,571.637632 227.579554,571.802344 227.316011,571.802344 L219.310933,571.802344 C219.04739,571.802344 218.899149,571.654103 218.866206,571.357617 C218.833263,571.061131 218.981504,570.879948 219.310933,570.814063 C220.694533,570.814063 221.353381,570.254042 221.287495,569.133984 L221.287495,557.076954 C221.353381,556.022782 220.694533,555.495704 219.310933,555.495704 C218.981504,555.429818 218.833263,555.248635 218.866206,554.952149 C218.899149,554.655663 219.04739,554.47448 219.310933,554.408594 L227.711323,554.408594 C231.993896,554.47448 234.135151,556.022772 234.135151,559.053516 C234.069265,560.70066 233.410418,561.8207 232.158589,562.413672 C230.906759,563.006644 229.556122,563.303125 228.106636,563.303125 L228.007807,563.303125 C228.073693,563.303125 228.106636,563.336068 228.106636,563.401953 C229.556122,563.599611 230.577336,564.044333 231.170307,564.736133 C231.763279,565.427933 232.19153,566.235022 232.455073,567.157422 C232.784502,568.343365 233.048041,569.10104 233.245698,569.430469 C233.443355,569.759898 233.673952,569.891667 233.937495,569.825781 C234.398695,569.759896 234.662234,569.331645 234.72812,568.541016 C234.794005,568.211587 234.99166,568.013933 235.321088,567.948047 Z M236.210542,554.902735 C236.276427,554.573306 236.441139,554.408594 236.704682,554.408594 L244.116791,554.408594 C244.44622,554.408594 244.610932,554.573306 244.610932,554.902735 C244.610932,555.232164 244.44622,555.396876 244.116791,555.396876 C243.194391,555.462761 242.700255,555.7263 242.634369,556.1875 C242.634369,556.451043 242.832024,556.912237 243.227338,557.571094 L245.302729,561.721875 C245.632158,562.051304 245.961581,562.018362 246.29101,561.623047 L248.168744,557.867579 C248.498173,557.274607 248.662885,556.813414 248.662885,556.483985 C248.596999,555.891013 248.004036,555.528647 246.883979,555.396876 C246.620436,555.396876 246.488666,555.232164 246.488666,554.902735 C246.488666,554.573306 246.653378,554.408594 246.982807,554.408594 L252.319525,554.408594 C252.648954,554.408594 252.813666,554.573306 252.813666,554.902735 C252.813666,555.232164 252.648954,555.429818 252.319525,555.495704 C251.067696,555.693361 250.310022,556.253381 250.046479,557.175782 L246.785151,563.698438 C246.521608,564.291409 246.389838,564.917315 246.389838,565.576172 L246.389838,569.133984 C246.258067,570.254042 247.015741,570.814063 248.662885,570.814063 C248.992314,570.814063 249.189968,570.978774 249.255854,571.308203 C249.189968,571.637632 248.992314,571.802344 248.662885,571.802344 L239.96601,571.802344 C239.636581,571.802344 239.47187,571.637632 239.47187,571.308203 C239.47187,570.978774 239.636581,570.814063 239.96601,570.814063 C241.67904,570.814063 242.469657,570.254042 242.337885,569.133984 L242.337885,565.477344 C242.337885,564.818487 242.173173,564.192581 241.843745,563.59961 L239.175385,558.164063 C238.516528,556.582805 237.692968,555.693361 236.704682,555.495704 C236.441139,555.429818 236.276427,555.232164 236.210542,554.902735 Z M266.155463,564.291406 L266.155463,568.738672 C266.089577,569.990501 266.68254,570.616406 267.934369,570.616406 C270.438027,570.550521 271.689837,569.43048 271.689837,567.25625 C271.755723,566.202078 271.508655,565.279692 270.948626,564.489063 C270.388598,563.698434 269.383855,563.270183 267.934369,563.204297 L267.143744,563.204297 C266.550772,563.270183 266.221348,563.632549 266.155463,564.291406 Z M262.10351,569.133984 L262.10351,557.076954 C262.169395,556.022782 261.54349,555.462761 260.225775,555.396876 C259.896346,555.396876 259.731635,555.232164 259.731635,554.902735 C259.731635,554.573306 259.896346,554.408594 260.225775,554.408594 L268.724994,554.408594 C272.80991,554.47448 274.951164,555.891002 275.148822,558.658204 C274.885279,561.03009 273.534641,562.314843 271.096869,562.5125 C272.414584,562.710158 273.551096,563.138408 274.506439,563.797266 C275.461782,564.456123 275.972389,565.477337 276.038275,566.860938 C276.10416,568.046881 275.659438,569.150451 274.704095,570.17168 C273.748752,571.192909 272.052219,571.736458 269.614447,571.802344 L260.225775,571.802344 C259.896346,571.802344 259.731635,571.637632 259.731635,571.308203 C259.731635,570.978774 259.896346,570.814063 260.225775,570.814063 C261.54349,570.748177 262.169395,570.188156 262.10351,569.133984 Z M266.155463,557.27461 L266.155463,561.128907 C266.221348,561.721878 266.550772,562.051302 267.143744,562.117188 C269.581516,562.051302 270.800384,560.997146 270.800384,558.954688 C270.668613,556.714573 269.680341,555.561589 267.835541,555.495704 C266.781369,555.495704 266.221348,556.088666 266.155463,557.27461 Z M282.758587,563.105469 C282.692701,568.178671 284.076281,570.781119 286.909368,570.912891 C289.742455,570.781119 291.126035,568.178671 291.060149,563.105469 C291.126035,558.032267 289.742455,555.429819 286.909368,555.298047 C284.076281,555.429819 282.692701,558.032267 282.758587,563.105469 Z M278.113665,561.623047 C278.574866,559.514703 279.61255,557.752286 281.226751,556.335743 C282.840952,554.919199 284.735139,554.177996 286.909368,554.11211 C289.347141,554.177996 291.42251,555.06744 293.13554,556.780469 C294.848569,558.493499 295.738013,560.601811 295.803899,563.105469 C295.738013,565.609127 294.848569,567.717439 293.13554,569.430469 C291.42251,571.143498 289.347141,572.032942 286.909368,572.098828 C284.735139,572.032942 282.840952,571.30821 281.226751,569.924609 C279.61255,568.541009 278.574866,566.76212 278.113665,564.587891 C277.981894,563.599605 277.981894,562.611333 278.113665,561.623047 Z M298.768743,554.408594 L312.110539,554.408594 C312.967054,554.47448 313.46119,554.968616 313.592961,555.891016 L313.592961,560.041797 C313.592961,560.371226 313.428249,560.56888 313.09882,560.634766 C312.703506,560.56888 312.439967,560.371226 312.308196,560.041797 C311.715224,557.604025 310.463413,556.15456 308.552727,555.69336 C307.959755,555.69336 307.630331,555.989841 307.564446,556.582813 L307.564446,569.133984 C307.432674,570.254042 308.190349,570.814063 309.837492,570.814063 C310.101035,570.879948 310.265747,571.04466 310.331633,571.308203 C310.265747,571.637632 310.101035,571.802344 309.837492,571.802344 L300.942961,571.802344 C300.613533,571.802344 300.448821,571.654103 300.448821,571.357617 C300.448821,571.061131 300.613533,570.879948 300.942961,570.814063 C302.655991,570.814063 303.446608,570.254042 303.314836,569.133984 L303.314836,556.582813 C303.248951,555.989841 302.919527,555.69336 302.326555,555.69336 C300.349983,556.220446 299.06523,557.66991 298.472258,560.041797 C298.340487,560.371226 298.10989,560.56888 297.780462,560.634766 C297.385147,560.56888 297.187493,560.371226 297.187493,560.041797 L297.286321,555.891016 C297.352207,554.968616 297.846342,554.47448 298.768743,554.408594 Z" id="JIKE-LOTTERY-BOT" fill="#0230C5"></path>
        </g>
    </g>
</svg>