<?xml version="1.0" encoding="UTF-8"?>
<svg width="146px" height="47px" viewBox="0 0 146 47" version="1.1" xmlns="http://www.w3.org/2000/svg" xmlns:xlink="http://www.w3.org/1999/xlink">
    <!-- Generator: Sketch 49.2 (51160) - http://www.bohemiancoding.com/sketch -->
    <title>Step 2</title>
    <desc>Created with Sketch.</desc>
    <defs></defs>
    <g id="Page-1" stroke="none" stroke-width="1" fill="none" fill-rule="evenodd">
        <g id="着陆页" transform="translate(-31.000000, -316.000000)" fill="#E40B5F">
            <path d="M55.184,325.808 C54.5573302,324.961996 53.7740047,324.319669 52.834,323.881 C51.8939953,323.442331 50.8443391,323.223 49.685,323.223 C49.1523307,323.223 48.5883363,323.293499 47.993,323.4345 C47.3976637,323.575501 46.8571691,323.810498 46.3715,324.1395 C45.8858309,324.468502 45.4785016,324.883664 45.1495,325.385 C44.8204984,325.886336 44.656,326.49733 44.656,327.218 C44.656,328.158005 45.024163,328.902164 45.7605,329.4505 C46.496837,329.998836 47.5229934,330.507998 48.839,330.978 C50.2803405,331.479336 51.5649944,332.035497 52.693,332.6465 C53.8210056,333.257503 54.7766627,333.954663 55.56,334.738 C56.3433372,335.521337 56.9386646,336.406495 57.346,337.3935 C57.7533354,338.380505 57.957,339.50066 57.957,340.754 C57.957,342.759343 57.5418375,344.466993 56.7115,345.877 C55.8811625,347.287007 54.8080066,348.438496 53.492,349.3315 C52.1759934,350.224504 50.7033415,350.874665 49.074,351.282 C47.4446585,351.689335 45.831008,351.893 44.233,351.893 C43.0423274,351.893 41.8516726,351.783334 40.661,351.564 C39.4703274,351.344666 38.3266722,351.023502 37.23,350.6005 C36.1333279,350.177498 35.1150047,349.637003 34.175,348.979 C33.2349953,348.320997 32.4360033,347.569004 31.778,346.723 L37.559,342.023 C38.2170033,343.025672 39.1883269,343.84033 40.473,344.467 C41.7576731,345.09367 43.0579934,345.407 44.374,345.407 C45.0633368,345.407 45.7291635,345.336501 46.3715,345.1955 C47.0138365,345.054499 47.5856642,344.819502 48.087,344.4905 C48.5883358,344.161498 48.9878318,343.738503 49.2855,343.2215 C49.5831682,342.704497 49.732,342.08567 49.732,341.365 C49.732,340.205661 49.2620047,339.28917 48.322,338.6155 C47.3819953,337.94183 46.1286745,337.338669 44.562,336.806 C43.4653279,336.429998 42.4391714,336.007002 41.4835,335.537 C40.5278286,335.066998 39.6975035,334.487337 38.9925,333.798 C38.2874965,333.108663 37.7235021,332.286171 37.3005,331.3305 C36.8774979,330.374829 36.666,329.22334 36.666,327.876 C36.666,326.183992 37.0184965,324.656507 37.7235,323.2935 C38.4285035,321.930493 39.3919939,320.771171 40.614,319.8155 C41.8360061,318.859829 43.2616585,318.123503 44.891,317.6065 C46.5203415,317.089497 48.2593241,316.831 50.108,316.831 C51.0793382,316.831 52.0663283,316.924999 53.069,317.113 C54.0716717,317.301001 55.035162,317.575165 55.9595,317.9355 C56.883838,318.295835 57.7376627,318.742331 58.521,319.275 C59.3043373,319.807669 59.9623307,320.418663 60.495,321.108 L55.184,325.808 Z M60.965,333.281 L61.999,327.594 L65.712,327.594 L66.793,321.39 L74.125,321.39 L73.044,327.594 L78.026,327.594 L76.992,333.281 L72.151,333.281 L70.459,342.446 C70.4276665,342.665334 70.4041667,342.892499 70.3885,343.1275 C70.3728333,343.362501 70.365,343.558333 70.365,343.715 C70.365,344.498337 70.5843311,345.030999 71.023,345.313 C71.4616689,345.595001 72.0569962,345.736 72.809,345.736 C73.1850019,345.736 73.5531649,345.704667 73.9135,345.642 C74.2738351,345.579333 74.5949986,345.516667 74.877,345.454 L74.172,350.859 C73.7333311,351.047001 73.114504,351.211499 72.3155,351.3525 C71.516496,351.493501 70.7566703,351.564 70.036,351.564 C67.7799887,351.564 66.0018398,351.109671 64.7015,350.201 C63.4011602,349.292329 62.751,347.85101 62.751,345.877 C62.751,345.500998 62.7744998,345.070169 62.8215,344.5845 C62.8685002,344.098831 62.9389995,343.636669 63.033,343.198 L64.819,333.281 L60.965,333.281 Z M85.593,341.318 C85.5616665,341.443334 85.546,341.584333 85.546,341.741 C85.546,342.399003 85.6948318,342.986497 85.9925,343.5035 C86.2901682,344.020503 86.6818309,344.459165 87.1675,344.8195 C87.6531691,345.179835 88.2014969,345.453999 88.8125,345.642 C89.4235031,345.830001 90.0579967,345.924 90.716,345.924 C91.9066726,345.924 92.9563288,345.704669 93.865,345.266 C94.7736712,344.827331 95.5883297,344.232004 96.309,343.48 L101.056,347.193 C99.5519925,348.791008 97.8756759,349.942496 96.027,350.6475 C94.1783241,351.352504 92.1886773,351.705 90.058,351.705 C88.4286585,351.705 86.9168403,351.477836 85.5225,351.0235 C84.1281597,350.569164 82.9140052,349.895504 81.88,349.0025 C80.8459948,348.109496 80.0313363,347.005007 79.436,345.689 C78.8406637,344.372993 78.543,342.869008 78.543,341.177 C78.543,339.171657 78.8954965,337.299509 79.6005,335.5605 C80.3055035,333.821491 81.2768271,332.309673 82.5145,331.025 C83.7521729,329.740327 85.232658,328.729837 86.956,327.9935 C88.679342,327.257163 90.5749897,326.889 92.643,326.889 C94.178341,326.889 95.5804937,327.108331 96.8495,327.547 C98.1185063,327.985669 99.2073288,328.620163 100.116,329.4505 C101.024671,330.280837 101.729664,331.306994 102.231,332.529 C102.732336,333.751006 102.983,335.160992 102.983,336.759 C102.983,337.323003 102.928167,338.035829 102.8185,338.8975 C102.708833,339.759171 102.560001,340.565996 102.372,341.318 L85.593,341.318 Z M96.262,336.712 C96.2933335,336.555333 96.309,336.398667 96.309,336.242 L96.309,335.772 C96.309,334.737995 95.940837,333.876337 95.2045,333.187 C94.468163,332.497663 93.4106736,332.153 92.032,332.153 C91.1859958,332.153 90.42617,332.301832 89.7525,332.5995 C89.07883,332.897168 88.4913358,333.265331 87.99,333.704 C87.4886642,334.142669 87.0813349,334.628331 86.768,335.161 C86.4546651,335.693669 86.235334,336.210664 86.11,336.712 L96.262,336.712 Z M111.114,362.28 L103.594,362.28 L109.704,327.594 L116.848,327.594 L116.284,330.837 L116.425,330.837 C117.302338,329.646327 118.406827,328.71417 119.7385,328.0405 C121.070173,327.36683 122.519326,327.03 124.086,327.03 C125.621341,327.03 126.999994,327.280664 128.222,327.782 C129.444006,328.283336 130.477996,328.980496 131.324,329.8735 C132.170004,330.766504 132.812331,331.831827 133.251,333.0695 C133.689669,334.307173 133.909,335.646659 133.909,337.088 C133.909,339.093343 133.587837,340.981158 132.9455,342.7515 C132.303163,344.521842 131.402339,346.064993 130.243,347.381 C129.083661,348.697007 127.712841,349.738829 126.1305,350.5065 C124.548159,351.274171 122.817009,351.658 120.937,351.658 C119.213658,351.658 117.72534,351.336837 116.472,350.6945 C115.21866,350.052163 114.27867,349.182672 113.652,348.086 L113.558,348.086 L111.114,362.28 Z M126.389,338.075 C126.389,336.664993 125.981671,335.482171 125.167,334.5265 C124.352329,333.570829 123.161675,333.093 121.595,333.093 C120.654995,333.093 119.777671,333.296665 118.963,333.704 C118.148329,334.111335 117.443336,334.659663 116.848,335.349 C116.252664,336.038337 115.782668,336.837329 115.438,337.746 C115.093332,338.654671 114.921,339.610328 114.921,340.613 C114.921,342.054341 115.359662,343.237162 116.237,344.1615 C117.114338,345.085838 118.320659,345.548 119.856,345.548 C120.858672,345.548 121.759496,345.352169 122.5585,344.9605 C123.357504,344.568831 124.038997,344.03617 124.603,343.3625 C125.167003,342.68883 125.605665,341.897671 125.919,340.989 C126.232335,340.080329 126.389,339.109005 126.389,338.075 Z M173.718,344.326 L172.543,351 L148.338,351 L149.466,344.514 L164.459,332.811 C165.775007,331.714328 166.76983,330.711671 167.4435,329.803 C168.11717,328.894329 168.454,327.970005 168.454,327.03 C168.454,325.933328 168.11717,325.063837 167.4435,324.4215 C166.76983,323.779163 165.775007,323.458 164.459,323.458 C163.142993,323.458 162.022838,323.873163 161.0985,324.7035 C160.174162,325.533837 159.492669,326.700992 159.054,328.205 L152.004,326.748 C152.944005,323.583318 154.581155,321.139342 156.9155,319.416 C159.249845,317.692658 161.983651,316.831 165.117,316.831 C166.715008,316.831 168.203326,317.034665 169.582,317.442 C170.960674,317.849335 172.159162,318.452496 173.1775,319.2515 C174.195838,320.050504 174.99483,321.021828 175.5745,322.1655 C176.15417,323.309172 176.444,324.617326 176.444,326.09 C176.444,327.468674 176.240335,328.682828 175.833,329.7325 C175.425665,330.782172 174.869504,331.761329 174.1645,332.67 C173.459496,333.578671 172.637005,334.432496 171.697,335.2315 C170.756995,336.030504 169.738672,336.852996 168.642,337.699 L160.182,344.326 L173.718,344.326 Z" id="Step-2"></path>
        </g>
    </g>
</svg>