<?xml version="1.0" encoding="UTF-8"?>
<svg width="204px" height="18px" viewBox="0 0 204 18" version="1.1" xmlns="http://www.w3.org/2000/svg" xmlns:xlink="http://www.w3.org/1999/xlink">
    <!-- Generator: Sketch 49.2 (51160) - http://www.bohemiancoding.com/sketch -->
    <title>在这里粘贴抽奖动态的链接</title>
    <desc>Created with Sketch.</desc>
    <defs></defs>
    <g id="Page-1" stroke="none" stroke-width="1" fill="none" fill-rule="evenodd">
        <g id="着陆页" transform="translate(-32.000000, -216.000000)" fill="#FFFFFF">
            <path d="M38.63,224.71 L41.894,224.71 L41.894,222.007 L44.24,222.007 L44.24,224.71 L47.589,224.71 L47.589,226.716 L44.24,226.716 L44.24,230.252 L48.235,230.252 L48.235,232.258 L38.154,232.258 L38.154,230.252 L41.894,230.252 L41.894,226.716 L38.63,226.716 L38.63,224.71 Z M38.8,216.856 L41.095,217.519 C40.8683322,218.25567 40.6983339,218.799665 40.585,219.151 L48.167,219.151 L48.167,221.208 L39.735,221.208 C39.1229969,222.47734 38.4090041,223.621995 37.593,224.642 L37.593,232.955 L35.23,232.955 L35.23,227.09 C34.9806654,227.305334 34.5896693,227.616998 34.057,228.025 C34.0116664,228.059 33.9776668,228.087333 33.955,228.11 C33.546998,227.463997 32.906671,226.942669 32.034,226.546 C34.2780112,224.936659 35.9553278,223.157343 37.066,221.208 L33.428,221.208 L33.428,219.151 L38.052,219.151 C38.3580015,218.425663 38.6073324,217.660671 38.8,216.856 Z M50.326,218.794 L52.536,217.74 C53.2500036,218.624004 53.9356634,219.638328 54.593,220.783 L52.57,222.075 C52.0146639,221.100328 51.2666714,220.006673 50.326,218.794 Z M49.816,222.857 L53.896,222.857 L53.896,228.722 C54.9613387,229.696672 56.3156585,230.206666 57.959,230.252 C59.6703419,230.376667 62.1749835,230.331334 65.473,230.116 C65.0763314,231.056671 64.8666668,231.855663 64.844,232.513 C63.6766608,232.558334 62.4753395,232.575333 61.24,232.564 C60.0159939,232.552667 58.939338,232.518667 58.01,232.462 C55.8339891,232.405333 54.1510059,231.827339 52.961,230.728 C52.5076644,231.158669 51.9410034,231.815996 51.261,232.7 L49.527,231.204 C50.252337,230.376663 50.977663,229.623003 51.703,228.943 L51.703,224.948 L49.816,224.948 L49.816,222.857 Z M54.848,219.882 L58.52,219.882 C58.0779978,219.133996 57.6303356,218.44267 57.177,217.808 L59.54,217.009 C60.0953361,217.723004 60.605331,218.538995 61.07,219.457 L60.101,219.882 L64.589,219.882 L64.589,221.922 L62.617,221.922 C62.4356658,223.338674 62.0050034,224.613661 61.325,225.747 C62.3336717,226.461004 63.2856622,227.163663 64.181,227.855 L62.991,229.98 C62.1636625,229.265996 61.1436727,228.450005 59.931,227.532 C58.9903286,228.438671 57.8343402,229.146997 56.463,229.657 C55.9529974,229.010997 55.36367,228.506668 54.695,228.144 C56.1003404,227.57733 57.2223291,226.914337 58.061,226.155 C57.1429954,225.508997 56.1626719,224.840337 55.12,224.149 L56.65,222.653 C57.5453378,223.208336 58.4859951,223.808997 59.472,224.455 C59.9140022,223.706996 60.2143325,222.862671 60.373,221.922 L54.848,221.922 L54.848,219.882 Z M70.726,219.967 L70.726,221.174 L73.361,221.174 L73.361,219.967 L70.726,219.967 Z M78.325,219.967 L75.673,219.967 L75.673,221.174 L78.325,221.174 L78.325,219.967 Z M70.726,223.078 L70.726,224.285 L73.361,224.285 L73.361,223.078 L70.726,223.078 Z M75.673,224.285 L78.325,224.285 L78.325,223.078 L75.673,223.078 L75.673,224.285 Z M68.091,227.413 L73.361,227.413 L73.361,226.257 L68.431,226.257 L68.431,217.995 L80.62,217.995 L80.62,226.257 L75.673,226.257 L75.673,227.413 L80.96,227.413 L80.96,229.385 L75.673,229.385 L75.673,230.541 L82.286,230.541 L82.286,232.564 L66.765,232.564 L66.765,230.541 L73.361,230.541 L73.361,229.385 L68.091,229.385 L68.091,227.413 Z M96.566,226.24 L92.911,226.24 L92.911,229.793 L96.566,229.793 L96.566,226.24 Z M93.234,217.179 L95.376,217.179 L95.376,219.695 L99.235,219.695 L99.235,221.667 L95.376,221.667 L95.376,224.268 L98.674,224.268 L98.674,232.938 L96.566,232.938 L96.566,231.782 L92.911,231.782 L92.911,232.938 L90.786,232.938 L90.786,228.62 L89.511,229.538 C89.0689978,228.597329 88.6723351,227.838003 88.321,227.26 L88.321,232.938 L86.315,232.938 L86.315,227.991 C85.8843312,228.920338 85.3630031,229.809996 84.751,230.66 C84.3316646,230.093331 83.8330029,229.611669 83.255,229.215 C84.3656722,227.97966 85.2496634,226.478009 85.907,224.71 L83.765,224.71 L83.765,222.823 L86.315,222.823 L86.315,221.633 L85.04,222.228 C84.5979978,221.117328 84.1390024,220.125671 83.663,219.253 L85.312,218.709 C85.776669,219.593004 86.110999,220.295664 86.315,220.817 L86.315,217.179 L88.321,217.179 L88.321,220.732 C88.6723351,220.108664 89.0066651,219.394671 89.324,218.59 L90.888,219.321 C90.4573312,220.375005 89.9586695,221.332662 89.392,222.194 C89.0519983,222.001332 88.6950019,221.848334 88.321,221.735 L88.321,222.823 L90.446,222.823 L90.446,224.71 L88.321,224.71 L88.321,226.053 L89.409,225.645 C89.4430002,225.690334 89.488333,225.763999 89.545,225.866 C90.1343363,226.784005 90.5479988,227.480998 90.786,227.957 L90.786,224.268 L93.234,224.268 L93.234,217.179 Z M113.566,226.24 L110.37,226.24 L110.37,229.844 L113.566,229.844 L113.566,226.24 Z M103.587,220.8 L105.185,220.8 L105.185,226.444 C105.185,227.668006 105.060335,228.693663 104.811,229.521 L105.797,228.943 C106.613004,229.64567 107.343997,230.416329 107.99,231.255 L106.647,232.649 C105.955663,231.776329 105.253004,230.983004 104.539,230.269 C104.130998,231.255005 103.388672,232.184329 102.312,233.057 C101.756664,232.535664 101.173003,232.144668 100.561,231.884 C101.739673,231.135996 102.532998,230.371004 102.941,229.589 C103.383002,228.806996 103.598333,227.707674 103.587,226.291 L103.587,220.8 Z M101.19,217.842 L107.599,217.842 L107.599,228.705 L105.831,228.705 L105.831,219.678 L102.958,219.678 L102.958,228.977 L101.19,228.977 L101.19,217.842 Z M110.54,217.162 L112.699,217.162 L112.699,219.729 L116.337,219.729 L116.337,221.667 L112.699,221.667 L112.699,224.302 L115.64,224.302 L115.64,232.938 L113.566,232.938 L113.566,231.782 L110.37,231.782 L110.37,232.938 L108.296,232.938 L108.296,224.302 L110.54,224.302 L110.54,217.162 Z M126.027,221.973 L126.027,224.914 L127.234,224.914 L127.234,221.973 L126.027,221.973 Z M126.027,226.852 L126.027,229.793 L127.234,229.793 L127.234,226.852 L126.027,226.852 Z M130.617,221.973 L129.376,221.973 L129.376,224.914 L130.617,224.914 L130.617,221.973 Z M129.376,226.852 L129.376,229.793 L130.617,229.793 L130.617,226.852 L129.376,226.852 Z M117.34,225.985 L119.771,225.067 L119.771,221.973 L117.884,221.973 L117.884,220.035 L119.771,220.035 L119.771,217.196 L121.862,217.196 L121.862,220.035 L123.392,220.035 L123.392,221.973 L121.862,221.973 L121.862,224.268 L122.95,223.86 L123.766,225.407 L121.862,226.274 L121.862,230.082 C121.850667,231.816009 121.136674,232.694333 119.72,232.717 C119.175997,232.717 118.700002,232.694334 118.292,232.649 C118.269333,231.764996 118.105002,231.045336 117.799,230.49 C118.207002,230.558 118.597998,230.592 118.972,230.592 C119.504669,230.592 119.771,230.365336 119.771,229.912 L119.771,227.209 L118.411,227.838 L117.34,225.985 Z M127.234,217.179 L129.376,217.179 L129.376,220.001 L132.725,220.001 L132.725,232.955 L130.617,232.955 L130.617,231.782 L126.027,231.782 L126.027,232.955 L123.902,232.955 L123.902,220.001 L127.234,220.001 L127.234,217.179 Z M146.954,220.579 L143.894,220.579 C143.519998,221.100336 143.225334,221.474332 143.01,221.701 L144.149,221.191 C144.579669,221.587669 144.970665,222.006998 145.322,222.449 C146.036004,221.904997 146.579998,221.28167 146.954,220.579 Z M141.565,225.696 L142.143,225.781 C141.746331,225.157664 141.304336,224.659002 140.817,224.285 C141.916339,224.069666 142.862663,223.775002 143.656,223.401 C143.304665,223.004331 142.925002,222.607669 142.517,222.211 C142.312999,222.437668 142.086335,222.641666 141.837,222.823 C141.462998,222.516998 141.043669,222.239335 140.579,221.99 L140.579,225.934 L138.42,225.934 L138.42,223.792 L135.938,225.373 L134.595,223.792 L138.42,221.667 L138.42,220.239 L137.502,221.514 C136.731329,220.84533 135.853005,220.21067 134.867,219.61 L136.312,218.284 C137.184671,218.828003 137.887331,219.326664 138.42,219.78 L138.42,217.179 L140.579,217.179 L140.579,221.344 C141.859673,220.051994 142.822997,218.612675 143.469,217.026 L145.407,217.842 C145.270999,218.136668 145.135001,218.425665 144.999,218.709 L149.572,218.709 L149.572,220.375 C148.404661,223.253681 146.11535,225.083996 142.704,225.866 L143.86,226.019 C143.837333,226.302335 143.809,226.506333 143.775,226.631 L149.946,226.631 L149.946,228.637 L143.945,228.637 C145.24834,229.793006 147.463984,230.495665 150.592,230.745 C150.059331,231.44767 149.708001,232.195663 149.538,232.989 C146.443985,232.660332 144.120674,231.640342 142.568,229.929 C141.26466,231.663009 139.020683,232.688665 135.836,233.006 C135.597999,232.26933 135.16167,231.56667 134.527,230.898 C137.643682,230.637332 139.677995,229.883673 140.63,228.637 L135.02,228.637 L135.02,226.631 L141.446,226.631 C141.502667,226.347665 141.542333,226.036002 141.565,225.696 Z M156.1,225.696 C155.793998,226.636671 155.425669,227.594328 154.995,228.569 L157.222,228.178 C156.881998,227.373329 156.508002,226.546004 156.1,225.696 Z M152.649,218.505 L159.109,218.505 L159.109,220.46 L152.649,220.46 L152.649,218.505 Z M161.421,217.179 L163.614,217.298 C163.614,218.340672 163.597,219.394661 163.563,220.46 L166.997,220.46 L166.793,229.47 C166.781667,231.578011 165.886342,232.615 164.107,232.581 C163.687665,232.581 163.234336,232.552667 162.747,232.496 C162.690333,231.770663 162.509002,231.045337 162.203,230.32 C162.758336,230.410667 163.222998,230.456 163.597,230.456 C164.288337,230.456 164.639667,230.065004 164.651,229.283 L164.821,222.398 L163.478,222.398 C163.341999,227.452692 162.067012,231.050989 159.653,233.193 C159.040997,232.716998 158.344004,232.388334 157.562,232.207 C158.400671,231.390996 159.046664,230.63167 159.5,229.929 L158.242,230.711 C158.139999,230.495666 158.049334,230.257668 157.97,229.997 L154.961,230.711 C154.212996,230.881001 153.533003,231.141665 152.921,231.493 L151.68,229.589 C152.178669,229.282998 152.597998,228.750337 152.938,227.991 C153.323335,227.197663 153.770997,226.019008 154.281,224.455 L151.646,224.455 L151.646,222.517 L159.67,222.517 L159.67,224.455 L156.525,224.455 C156.468333,224.647668 156.377667,224.919665 156.253,225.271 C156.196333,225.452334 156.151,225.588333 156.117,225.679 L158.021,225.186 C158.72367,226.55734 159.329997,227.934326 159.84,229.317 C160.712671,227.809659 161.216999,225.503349 161.353,222.398 L159.704,222.398 L159.704,220.46 L161.404,220.46 C161.415333,220.040665 161.421,219.581669 161.421,219.083 L161.421,217.179 Z M180.036,227.872 L181.838,226.903 C182.892005,227.877672 183.826996,228.925994 184.643,230.048 L183.232,231.612 C182.257328,230.251993 181.192006,229.005339 180.036,227.872 Z M170.941,226.92 L172.522,228.042 C171.966664,229.458674 171.173338,230.858326 170.142,232.241 L168.527,230.711 C169.501672,229.520994 170.30633,228.25734 170.941,226.92 Z M175.106,226.937 L176.5,225.985 C175.967331,225.520331 175.315671,225.00467 174.545,224.438 L176.143,223.282 C176.84567,223.735336 177.536997,224.27933 178.217,224.914 L177.197,226.206 C177.763669,226.704669 178.301997,227.231664 178.812,227.787 L177.554,229.334 C176.715329,228.415995 175.899337,227.617003 175.106,226.937 Z M172.879,227.192 L175.055,227.192 L175.055,229.793 C175.066333,230.371003 175.326997,230.654333 175.837,230.643 L178.132,230.643 C178.676003,230.665667 179.015999,230.405003 179.152,229.861 C179.276667,229.441665 179.389999,228.994002 179.492,228.518 C179.990669,229.073336 180.579997,229.486999 181.26,229.759 C181.157999,230.212336 181.039001,230.637331 180.903,231.034 C180.551665,232.088005 179.735673,232.598 178.455,232.564 L175.378,232.564 C173.700658,232.575333 172.867667,231.748008 172.879,230.082 L172.879,227.192 Z M177.299,217.298 C177.231,218.023337 177.134667,218.669331 177.01,219.236 L183.521,219.236 L183.521,221.225 L178.965,221.225 C180.109672,222.800341 182.01932,223.837331 184.694,224.336 C183.979996,224.857336 183.447335,225.548662 183.096,226.41 C179.979318,225.469329 177.809006,223.741013 176.585,221.225 L176.449,221.225 C175.530995,223.469011 173.428683,225.236994 170.142,226.529 C169.699998,225.735663 169.093671,225.123669 168.323,224.693 C171.133681,223.899663 173.014995,222.743674 173.967,221.225 L169.513,221.225 L169.513,219.236 L174.783,219.236 C174.930334,218.623997 175.015333,217.904337 175.038,217.077 L177.299,217.298 Z M190.899,221.82 L188.587,221.82 L188.587,224.506 L190.899,224.506 L190.899,221.82 Z M188.587,226.461 L188.587,229.181 L190.899,229.181 L190.899,226.461 L188.587,226.461 Z M193.534,224.965 L195.302,223.962 C196.095337,224.823338 196.877329,225.837661 197.648,227.005 L196.067,228.416 C195.250996,227.157994 194.406671,226.007672 193.534,224.965 Z M195.37,217.026 L197.376,217.825 C197.171999,218.482337 196.934001,219.150997 196.662,219.831 L200.895,219.831 L200.708,229.742 C200.64,231.793344 199.648343,232.836 197.733,232.87 C197.234331,232.87 196.713003,232.841667 196.169,232.785 C196.089666,231.934996 195.902668,231.181337 195.608,230.524 C196.378671,230.648667 196.922665,230.711 197.24,230.711 C198.090004,230.711 198.520667,230.246338 198.532,229.317 L198.668,221.871 L195.693,221.871 C195.160331,222.823005 194.661669,223.587997 194.197,224.166 C193.709664,223.871332 193.324335,223.673001 193.041,223.571 L193.041,232.394 L190.899,232.394 L190.899,231.187 L188.587,231.187 L188.587,232.938 L186.445,232.938 L186.445,219.814 L188.468,219.814 C188.944002,218.816662 189.278332,217.921337 189.471,217.128 L191.562,217.791 C191.391999,218.369003 191.131335,219.043329 190.78,219.814 L193.041,219.814 L193.041,222.092 C194.095005,220.448658 194.871331,218.760009 195.37,217.026 Z M208.018,218.165 L209.854,217.621 C210.352669,218.527671 210.783332,219.507995 211.146,220.562 L209.48,221.514 C208.890664,219.995326 208.403335,218.879004 208.018,218.165 Z M208.409,222.296 L211.146,222.296 L211.146,229.504 C211.724003,230.286004 212.760993,230.665667 214.257,230.643 C215.673674,230.688334 217.112993,230.643001 218.575,230.507 C218.314332,231.153003 218.184,231.787664 218.184,232.411 C217.673997,232.456334 217.039337,232.479 216.28,232.479 C215.509329,232.490333 214.812336,232.484667 214.189,232.462 C212.375658,232.450667 211.072337,231.997338 210.279,231.102 C209.870998,231.419335 209.344003,231.968996 208.698,232.751 L207.406,231.255 C207.757335,230.880998 208.306996,230.337004 209.055,229.623 C209.145667,229.543666 209.208,229.487 209.242,229.453 L209.242,224.064 L208.409,224.064 L208.409,222.296 Z M202.935,225.271 L204.771,225.271 L204.771,223.724 L203.972,223.724 C203.949333,223.758 203.921,223.809 203.887,223.877 C203.853,223.945 203.785001,224.052666 203.683,224.2 C203.070997,223.644664 202.510003,223.253668 202,223.027 C203.156006,221.349658 203.971998,219.372011 204.448,217.094 L206.352,217.723 L206.097,218.811 L208.256,218.811 L208.256,220.613 L205.502,220.613 C205.309332,221.123003 205.128001,221.559332 204.958,221.922 L208.052,221.922 L208.052,223.724 L206.658,223.724 L206.658,225.271 L208.409,225.271 L208.409,227.073 L206.658,227.073 L206.658,229.011 L207.763,228.076 L208.851,229.334 L206.743,231.17 C206.051663,231.759336 205.587001,232.218332 205.349,232.547 L204.159,230.898 C204.408335,230.637332 204.572666,230.382335 204.652,230.133 C204.731334,229.883665 204.771,229.498336 204.771,228.977 L204.771,227.073 L202.935,227.073 L202.935,225.271 Z M211.605,226.631 L214.07,226.631 L214.07,225.152 L211.554,225.152 L211.554,223.367 C211.928002,222.584996 212.296332,221.604673 212.659,220.426 L211.333,220.426 L211.333,218.624 L213.169,218.624 C213.293667,218.113997 213.395666,217.632336 213.475,217.179 L215.226,217.587 C215.146666,217.927002 215.061667,218.272665 214.971,218.624 L217.946,218.624 L217.946,220.426 L214.478,220.426 C214.115332,221.593339 213.792335,222.567996 213.509,223.35 L214.427,223.35 L214.427,221.021 L216.008,221.021 L216.008,223.35 L217.674,223.35 L217.674,225.152 L216.008,225.152 L216.008,226.631 L218.082,226.631 L218.082,228.433 L216.008,228.433 L216.008,230.286 L214.07,230.286 L214.07,228.433 L211.605,228.433 L211.605,226.631 Z M230.526,229.113 C230.900002,228.704998 231.205999,228.212003 231.444,227.634 L229.217,227.634 C229.046999,227.928668 228.877001,228.194999 228.707,228.433 C229.477671,228.693668 230.083998,228.920332 230.526,229.113 Z M229.795,222.007 L229.064,222.483 L230.577,222.483 C230.985002,221.88233 231.375998,221.259003 231.75,220.613 L228.826,220.613 C229.075335,220.930335 229.398331,221.394997 229.795,222.007 Z M219.221,226.121 L221.652,225.05 L221.652,222.058 L219.816,222.058 L219.816,220.171 L221.652,220.171 L221.652,217.179 L223.709,217.179 L223.709,220.171 L225.239,220.171 L225.239,222.058 L223.709,222.058 L223.709,224.132 L224.882,223.588 L225.681,225.101 L223.709,226.172 L223.709,230.405 C223.720333,232.048342 223.006341,232.864333 221.567,232.853 C221.113664,232.853 220.666002,232.819 220.224,232.751 C220.178666,232.036996 220.008668,231.334337 219.714,230.643 C220.167336,230.722334 220.580998,230.762 220.955,230.762 C221.419669,230.762 221.652,230.535336 221.652,230.082 L221.652,227.277 L220.445,227.923 L219.221,226.121 Z M225.358,225.73 L228.044,225.73 C228.270668,225.287998 228.474666,224.840336 228.656,224.387 L225.562,224.387 L225.562,222.483 L227.704,222.483 C227.533999,222.210999 227.262002,221.814336 226.888,221.293 C226.808666,221.190999 226.752,221.111667 226.718,221.055 L227.959,220.613 L225.8,220.613 L225.8,218.709 L229.115,218.709 C229.012999,218.493666 228.848668,218.187669 228.622,217.791 C228.542666,217.632333 228.480334,217.519 228.435,217.451 L230.764,217.026 C231.047335,217.570003 231.307999,218.130997 231.546,218.709 L234.691,218.709 L234.691,220.613 L232.838,220.613 L233.858,221.072 C233.608665,221.525336 233.319668,221.995664 232.991,222.483 L235.133,222.483 L235.133,224.387 L229.166,224.387 L230.696,224.931 C230.662,225.010334 230.599667,225.134999 230.509,225.305 C230.406999,225.486334 230.333334,225.627999 230.288,225.73 L235.354,225.73 L235.354,227.634 L233.654,227.634 C233.381999,228.518004 233.019336,229.27733 232.566,229.912 C233.461338,230.263335 234.333996,230.642998 235.184,231.051 L234.657,233.057 C233.444327,232.478997 232.231673,231.912336 231.019,231.357 C229.862994,232.150337 228.004346,232.722665 225.443,233.074 C225.182332,232.359996 224.814002,231.725336 224.338,231.17 C226.196676,231.033999 227.624662,230.762002 228.622,230.354 C228.463333,230.297333 228.231002,230.206667 227.925,230.082 C227.006995,229.730665 226.304336,229.470001 225.817,229.3 C225.828333,229.277333 225.851,229.243334 225.885,229.198 C226.361002,228.540663 226.712332,228.019335 226.939,227.634 L225.358,227.634 L225.358,225.73 Z" id="在这里粘贴抽奖动态的链接"></path>
        </g>
    </g>
</svg>